<svg width="932" height="137" viewBox="0 0 932 137" fill="none" xmlns="http://www.w3.org/2000/svg">
<path d="M40 79.9319C40 79.9319 102.099 80.523 122.748 79.9319C134.25 79.6024 157.201 76.2465 168.511 77.2995C179.822 78.3524 198.73 89.6517 210.508 88.4202C228.289 86.5606 234.29 60.6185 252.506 60.6185C272.568 60.6185 280.403 111.831 296.382 111.831C316.128 111.831 307.35 37.2072 336.5 37.2072C365.65 37.2072 356.562 129.094 380.377 129.094C411.717 129.094 395.737 25.794 421.748 25.794C447.759 25.794 438.671 136.12 464.372 136.12C494.458 136.12 471.896 23.1616 508.881 23.1616C539.595 23.1616 517.343 135.535 550.879 135.535C578.776 135.535 564.359 29.8919 592.876 29.8919C617.95 29.8919 605.097 120.609 634.873 120.609C655.562 120.609 653.049 48.0354 679.383 48.0354C699.445 48.0354 702.578 99.2484 721.381 99.2484C735.797 99.2484 742.485 70.2767 760.872 70.2767C770.276 70.2767 794.81 80.7909 807.888 81.9824C818.249 82.9276 839.346 80.1905 849.885 79.935C870.389 79.4362 932 79.935 932 79.935" stroke="#FD4C73" stroke-width="0.796429" stroke-miterlimit="10"/>
<path d="M40 79.6577C40 79.6577 102.099 79.1829 122.748 79.6577C134.25 79.9224 157.201 82.6183 168.511 81.7724C179.822 80.9266 198.73 71.8495 210.508 72.8388C228.289 74.3327 234.29 95.1728 252.506 95.1728C272.568 95.1728 280.403 54.0317 296.382 54.0317C316.128 54.0317 307.35 113.98 336.5 113.98C365.65 113.98 356.562 40.1639 380.377 40.1639C411.717 40.1639 395.737 123.148 421.748 123.148C447.759 123.148 438.671 34.5198 464.372 34.5198C494.458 34.5198 471.896 125.263 508.881 125.263C539.595 125.263 517.343 34.9897 550.879 34.9897C578.776 34.9897 564.359 119.857 592.876 119.857C617.95 119.857 605.097 46.9803 634.873 46.9803C655.562 46.9803 653.049 105.281 679.383 105.281C699.445 105.281 702.578 64.1402 721.381 64.1402C735.797 64.1402 742.485 87.4141 760.872 87.4141C770.276 87.4141 794.81 78.9677 807.888 78.0105C818.249 77.2512 839.346 79.45 849.885 79.6553C870.389 80.0559 932 79.6553 932 79.6553" stroke="#FD805D" stroke-width="0.796429" stroke-miterlimit="10"/>
<path d="M40 80.0501C40 80.0501 102.099 80.3728 122.748 80.0501C134.25 79.8703 157.201 78.0383 168.511 78.6131C179.822 79.1879 198.73 85.3563 210.508 84.684C228.289 83.6688 234.29 69.5067 252.506 69.5067C272.568 69.5067 280.403 97.4645 296.382 97.4645C316.128 97.4645 307.35 56.7262 336.5 56.7262C365.65 56.7262 356.562 106.889 380.377 106.889C411.717 106.889 395.737 50.4956 421.748 50.4956C447.759 50.4956 438.671 110.724 464.372 110.724C494.458 110.724 471.896 49.0586 508.881 49.0586C539.595 49.0586 517.343 110.405 550.879 110.405C578.776 110.405 564.359 52.7327 592.876 52.7327C617.95 52.7327 605.097 102.256 634.873 102.256C655.562 102.256 653.049 62.6375 679.383 62.6375C699.445 62.6375 702.578 90.5952 721.381 90.5952C735.797 90.5952 742.485 74.7793 760.872 74.7793C770.276 74.7793 794.81 80.5191 807.888 81.1695C818.249 81.6855 839.346 80.1913 849.885 80.0518C870.389 79.7795 932 80.0518 932 80.0518" stroke="#FDCB7B" stroke-width="0.796429" stroke-miterlimit="10"/>
<rect x="502.5" y="94.5" width="118" height="38" rx="15.5" fill="white"/>
<rect x="502.5" y="94.5" width="118" height="38" rx="15.5" stroke="#FDCB7B"/>
<path d="M519.215 118C519.105 118 519.05 117.945 519.05 117.835V108.34C519.05 108.23 519.105 108.175 519.215 108.175H521.87C523.11 108.175 524.025 108.445 524.615 108.985C525.215 109.515 525.515 110.315 525.515 111.385C525.515 112.405 525.21 113.19 524.6 113.74C524 114.28 523.095 114.55 521.885 114.55H520.79V117.835C520.79 117.945 520.735 118 520.625 118H519.215ZM520.79 113.05H521.855C522.515 113.05 523 112.915 523.31 112.645C523.62 112.375 523.775 111.96 523.775 111.4C523.775 110.79 523.615 110.35 523.295 110.08C522.985 109.81 522.505 109.675 521.855 109.675H520.79V113.05ZM527.048 118C526.938 118 526.883 117.945 526.883 117.835V112.465C526.883 112.165 526.878 111.88 526.868 111.61C526.858 111.33 526.833 111.06 526.793 110.8C526.783 110.68 526.838 110.62 526.958 110.62H528.173C528.273 110.62 528.333 110.67 528.353 110.77C528.383 110.95 528.408 111.155 528.428 111.385C528.458 111.615 528.473 111.83 528.473 112.03L528.593 112.78V117.835C528.593 117.945 528.538 118 528.428 118H527.048ZM528.443 113.455L528.338 111.97C528.538 111.69 528.763 111.435 529.013 111.205C529.263 110.975 529.518 110.795 529.778 110.665C530.048 110.525 530.308 110.455 530.558 110.455C530.718 110.455 530.848 110.47 530.948 110.5C531.028 110.53 531.068 110.595 531.068 110.695C531.088 110.915 531.093 111.16 531.083 111.43C531.083 111.69 531.068 111.935 531.038 112.165C531.028 112.285 530.963 112.33 530.843 112.3C530.783 112.29 530.708 112.28 530.618 112.27C530.538 112.26 530.453 112.255 530.363 112.255C530.143 112.255 529.918 112.305 529.688 112.405C529.468 112.505 529.248 112.645 529.028 112.825C528.818 112.995 528.623 113.205 528.443 113.455ZM536.18 118C536.09 118 536.03 117.94 536 117.82C535.98 117.69 535.955 117.505 535.925 117.265C535.895 117.025 535.875 116.795 535.865 116.575L535.745 116.065V112.93C535.745 112.51 535.665 112.215 535.505 112.045C535.345 111.875 535.07 111.79 534.68 111.79C533.95 111.79 533.595 112.085 533.615 112.675C533.615 112.785 533.565 112.84 533.465 112.84H532.16C532.06 112.84 532.005 112.76 531.995 112.6C531.945 111.92 532.155 111.395 532.625 111.025C533.105 110.645 533.81 110.455 534.74 110.455C535.67 110.455 536.355 110.655 536.795 111.055C537.235 111.455 537.455 112.09 537.455 112.96V116.14C537.455 116.48 537.46 116.79 537.47 117.07C537.49 117.34 537.515 117.59 537.545 117.82C537.565 117.94 537.51 118 537.38 118H536.18ZM533.45 118.165C532.88 118.165 532.44 117.99 532.13 117.64C531.82 117.28 531.665 116.77 531.665 116.11C531.665 115.6 531.76 115.185 531.95 114.865C532.14 114.535 532.445 114.28 532.865 114.1C533.295 113.91 533.865 113.785 534.575 113.725L535.94 113.59V114.625L534.77 114.73C534.23 114.78 533.855 114.895 533.645 115.075C533.435 115.255 533.33 115.535 533.33 115.915C533.33 116.225 533.39 116.455 533.51 116.605C533.63 116.755 533.815 116.83 534.065 116.83C534.355 116.83 534.645 116.735 534.935 116.545C535.235 116.355 535.59 116.025 536 115.555L536.09 116.665C535.64 117.155 535.21 117.53 534.8 117.79C534.4 118.04 533.95 118.165 533.45 118.165ZM542.216 118.165C541.206 118.165 540.431 117.915 539.891 117.415C539.361 116.905 539.096 116.17 539.096 115.21V113.41C539.096 112.46 539.366 111.73 539.906 111.22C540.446 110.71 541.216 110.455 542.216 110.455C542.856 110.455 543.396 110.565 543.836 110.785C544.286 110.995 544.626 111.285 544.856 111.655C545.086 112.025 545.186 112.45 545.156 112.93C545.156 113.11 545.096 113.2 544.976 113.2H543.701C543.591 113.2 543.536 113.135 543.536 113.005C543.536 112.655 543.421 112.39 543.191 112.21C542.961 112.03 542.641 111.94 542.231 111.94C541.751 111.94 541.391 112.065 541.151 112.315C540.911 112.565 540.791 112.975 540.791 113.545V115.075C540.791 115.635 540.911 116.045 541.151 116.305C541.391 116.555 541.751 116.68 542.231 116.68C542.661 116.68 542.981 116.585 543.191 116.395C543.411 116.205 543.521 115.94 543.521 115.6C543.521 115.47 543.576 115.405 543.686 115.405H544.976C545.086 115.405 545.141 115.46 545.141 115.57C545.161 116.38 544.921 117.015 544.421 117.475C543.931 117.935 543.196 118.165 542.216 118.165ZM549.582 118.165C549.032 118.165 548.587 118.08 548.247 117.91C547.917 117.73 547.677 117.455 547.527 117.085C547.377 116.705 547.302 116.22 547.302 115.63V112.075H546.252C546.142 112.075 546.087 112.015 546.087 111.895V110.785C546.087 110.675 546.142 110.62 546.252 110.62H547.347L547.542 108.82C547.552 108.7 547.612 108.64 547.722 108.64H548.847C548.947 108.64 548.997 108.7 548.997 108.82L549.012 110.62H550.992C551.102 110.62 551.157 110.675 551.157 110.785V111.895C551.157 112.015 551.102 112.075 550.992 112.075H549.012V115.525C549.012 115.945 549.082 116.245 549.222 116.425C549.372 116.605 549.617 116.695 549.957 116.695C550.127 116.695 550.297 116.675 550.467 116.635C550.647 116.595 550.817 116.545 550.977 116.485C551.107 116.435 551.172 116.475 551.172 116.605V117.73C551.172 117.82 551.127 117.885 551.037 117.925C550.847 117.995 550.627 118.05 550.377 118.09C550.127 118.14 549.862 118.165 549.582 118.165ZM552.625 118C552.515 118 552.46 117.945 552.46 117.835V110.785C552.46 110.675 552.515 110.62 552.625 110.62H554.005C554.115 110.62 554.17 110.675 554.17 110.785V117.835C554.17 117.945 554.115 118 554.005 118H552.625ZM553.33 109.555C553 109.555 552.75 109.47 552.58 109.3C552.41 109.12 552.325 108.895 552.325 108.625V108.4C552.325 108.12 552.41 107.9 552.58 107.74C552.75 107.57 553 107.485 553.33 107.485C553.66 107.485 553.905 107.57 554.065 107.74C554.235 107.9 554.32 108.12 554.32 108.4V108.625C554.32 108.895 554.235 109.12 554.065 109.3C553.905 109.47 553.66 109.555 553.33 109.555ZM558.93 118.165C557.92 118.165 557.145 117.915 556.605 117.415C556.075 116.905 555.81 116.17 555.81 115.21V113.41C555.81 112.46 556.08 111.73 556.62 111.22C557.16 110.71 557.93 110.455 558.93 110.455C559.57 110.455 560.11 110.565 560.55 110.785C561 110.995 561.34 111.285 561.57 111.655C561.8 112.025 561.9 112.45 561.87 112.93C561.87 113.11 561.81 113.2 561.69 113.2H560.415C560.305 113.2 560.25 113.135 560.25 113.005C560.25 112.655 560.135 112.39 559.905 112.21C559.675 112.03 559.355 111.94 558.945 111.94C558.465 111.94 558.105 112.065 557.865 112.315C557.625 112.565 557.505 112.975 557.505 113.545V115.075C557.505 115.635 557.625 116.045 557.865 116.305C558.105 116.555 558.465 116.68 558.945 116.68C559.375 116.68 559.695 116.585 559.905 116.395C560.125 116.205 560.235 115.94 560.235 115.6C560.235 115.47 560.29 115.405 560.4 115.405H561.69C561.8 115.405 561.855 115.46 561.855 115.57C561.875 116.38 561.635 117.015 561.135 117.475C560.645 117.935 559.91 118.165 558.93 118.165ZM566.371 118.165C565.331 118.165 564.556 117.935 564.046 117.475C563.536 117.005 563.281 116.305 563.281 115.375V113.425C563.281 112.455 563.536 111.72 564.046 111.22C564.566 110.71 565.331 110.455 566.341 110.455C567.351 110.455 568.116 110.7 568.636 111.19C569.156 111.68 569.416 112.4 569.416 113.35V114.535C569.416 114.645 569.361 114.7 569.251 114.7H564.961V115.3C564.961 115.82 565.071 116.205 565.291 116.455C565.521 116.695 565.886 116.815 566.386 116.815C566.776 116.815 567.076 116.745 567.286 116.605C567.506 116.455 567.611 116.245 567.601 115.975C567.601 115.865 567.661 115.81 567.781 115.81H569.116C569.206 115.81 569.256 115.86 569.266 115.96C569.286 116.68 569.051 117.23 568.561 117.61C568.071 117.98 567.341 118.165 566.371 118.165ZM564.961 113.575H567.736V113.365C567.736 112.825 567.621 112.43 567.391 112.18C567.171 111.93 566.826 111.805 566.356 111.805C565.886 111.805 565.536 111.935 565.306 112.195C565.076 112.445 564.961 112.835 564.961 113.365V113.575ZM573.468 118C573.358 118 573.303 117.945 573.303 117.835V117.76C573.303 117.73 573.308 117.7 573.318 117.67C573.338 117.63 573.353 117.59 573.363 117.55L577.203 111.205C577.353 110.945 577.498 110.695 577.638 110.455C577.788 110.205 577.943 109.96 578.103 109.72V109.705C577.833 109.715 577.563 109.72 577.293 109.72C577.023 109.72 576.758 109.72 576.498 109.72H573.903C573.793 109.72 573.738 109.665 573.738 109.555V108.34C573.738 108.23 573.793 108.175 573.903 108.175H580.548C580.658 108.175 580.713 108.23 580.713 108.34V108.415C580.713 108.485 580.693 108.555 580.653 108.625L576.843 114.88C576.683 115.15 576.518 115.42 576.348 115.69C576.188 115.95 576.028 116.205 575.868 116.455V116.485C576.148 116.465 576.428 116.455 576.708 116.455C576.998 116.455 577.288 116.455 577.578 116.455H580.218C580.328 116.455 580.383 116.51 580.383 116.62V117.835C580.383 117.945 580.328 118 580.218 118H573.468ZM584.61 118.165C583.6 118.165 582.82 117.915 582.27 117.415C581.73 116.915 581.46 116.175 581.46 115.195V113.41C581.46 112.43 581.73 111.695 582.27 111.205C582.82 110.705 583.6 110.455 584.61 110.455C585.61 110.455 586.385 110.705 586.935 111.205C587.485 111.695 587.76 112.43 587.76 113.41V115.195C587.76 116.175 587.485 116.915 586.935 117.415C586.395 117.915 585.62 118.165 584.61 118.165ZM584.61 116.695C585.1 116.695 585.46 116.565 585.69 116.305C585.93 116.045 586.05 115.635 586.05 115.075V113.56C586.05 113 585.93 112.59 585.69 112.33C585.46 112.07 585.1 111.94 584.61 111.94C584.11 111.94 583.74 112.07 583.5 112.33C583.27 112.59 583.155 113 583.155 113.56V115.075C583.155 115.635 583.27 116.045 583.5 116.305C583.74 116.565 584.11 116.695 584.61 116.695ZM593.994 118C593.874 118 593.814 117.945 593.814 117.835V113.125C593.814 112.715 593.739 112.42 593.589 112.24C593.439 112.05 593.194 111.955 592.854 111.955C592.524 111.955 592.199 112.055 591.879 112.255C591.569 112.445 591.224 112.73 590.844 113.11L590.739 111.94C591.019 111.64 591.299 111.38 591.579 111.16C591.859 110.94 592.154 110.77 592.464 110.65C592.784 110.52 593.129 110.455 593.499 110.455C594.169 110.455 594.674 110.655 595.014 111.055C595.354 111.445 595.524 112.045 595.524 112.855V117.835C595.524 117.945 595.474 118 595.374 118H593.994ZM589.524 118C589.414 118 589.359 117.945 589.359 117.835V112.495C589.359 112.195 589.349 111.895 589.329 111.595C589.309 111.295 589.289 111.035 589.269 110.815C589.249 110.685 589.304 110.62 589.434 110.62H590.649C590.749 110.62 590.809 110.67 590.829 110.77C590.859 110.93 590.884 111.14 590.904 111.4C590.934 111.66 590.954 111.89 590.964 112.09L591.069 112.645V117.835C591.069 117.945 591.014 118 590.904 118H589.524ZM600.267 118.165C599.227 118.165 598.452 117.935 597.942 117.475C597.432 117.005 597.177 116.305 597.177 115.375V113.425C597.177 112.455 597.432 111.72 597.942 111.22C598.462 110.71 599.227 110.455 600.237 110.455C601.247 110.455 602.012 110.7 602.532 111.19C603.052 111.68 603.312 112.4 603.312 113.35V114.535C603.312 114.645 603.257 114.7 603.147 114.7H598.857V115.3C598.857 115.82 598.967 116.205 599.187 116.455C599.417 116.695 599.782 116.815 600.282 116.815C600.672 116.815 600.972 116.745 601.182 116.605C601.402 116.455 601.507 116.245 601.497 115.975C601.497 115.865 601.557 115.81 601.677 115.81H603.012C603.102 115.81 603.152 115.86 603.162 115.96C603.182 116.68 602.947 117.23 602.457 117.61C601.967 117.98 601.237 118.165 600.267 118.165ZM598.857 113.575H601.632V113.365C601.632 112.825 601.517 112.43 601.287 112.18C601.067 111.93 600.722 111.805 600.252 111.805C599.782 111.805 599.432 111.935 599.202 112.195C598.972 112.445 598.857 112.835 598.857 113.365V113.575Z" fill="#3E2F43"/>
<rect x="94.5" y="8.5" width="126" height="38" rx="15.5" fill="white"/>
<rect x="94.5" y="8.5" width="126" height="38" rx="15.5" stroke="#FD805D"/>
<path d="M114.635 32.165C113.425 32.165 112.495 31.86 111.845 31.25C111.195 30.64 110.87 29.73 110.87 28.52V25.655C110.87 24.455 111.195 23.55 111.845 22.94C112.505 22.32 113.44 22.01 114.65 22.01C115.47 22.01 116.175 22.15 116.765 22.43C117.355 22.71 117.79 23.11 118.07 23.63C118.36 24.15 118.455 24.765 118.355 25.475C118.345 25.515 118.325 25.555 118.295 25.595C118.275 25.635 118.24 25.655 118.19 25.655H116.765C116.655 25.655 116.605 25.595 116.615 25.475C116.645 24.865 116.495 24.39 116.165 24.05C115.835 23.71 115.335 23.54 114.665 23.54C114.005 23.54 113.495 23.72 113.135 24.08C112.785 24.43 112.61 24.965 112.61 25.685V28.475C112.61 29.205 112.785 29.75 113.135 30.11C113.495 30.46 114.005 30.635 114.665 30.635C115.355 30.635 115.865 30.46 116.195 30.11C116.525 29.76 116.665 29.29 116.615 28.7C116.605 28.58 116.655 28.52 116.765 28.52H118.175C118.285 28.52 118.345 28.585 118.355 28.715C118.425 29.415 118.315 30.025 118.025 30.545C117.745 31.055 117.315 31.455 116.735 31.745C116.165 32.025 115.465 32.165 114.635 32.165ZM120.191 32C120.081 32 120.026 31.945 120.026 31.835V26.465C120.026 26.165 120.021 25.88 120.011 25.61C120.001 25.33 119.976 25.06 119.936 24.8C119.926 24.68 119.981 24.62 120.101 24.62H121.316C121.416 24.62 121.476 24.67 121.496 24.77C121.526 24.95 121.551 25.155 121.571 25.385C121.601 25.615 121.616 25.83 121.616 26.03L121.736 26.78V31.835C121.736 31.945 121.681 32 121.571 32H120.191ZM121.586 27.455L121.481 25.97C121.681 25.69 121.906 25.435 122.156 25.205C122.406 24.975 122.661 24.795 122.921 24.665C123.191 24.525 123.451 24.455 123.701 24.455C123.861 24.455 123.991 24.47 124.091 24.5C124.171 24.53 124.211 24.595 124.211 24.695C124.231 24.915 124.236 25.16 124.226 25.43C124.226 25.69 124.211 25.935 124.181 26.165C124.171 26.285 124.106 26.33 123.986 26.3C123.926 26.29 123.851 26.28 123.761 26.27C123.681 26.26 123.596 26.255 123.506 26.255C123.286 26.255 123.061 26.305 122.831 26.405C122.611 26.505 122.391 26.645 122.171 26.825C121.961 26.995 121.766 27.205 121.586 27.455ZM126.733 34.775C126.673 34.775 126.628 34.755 126.598 34.715C126.578 34.675 126.578 34.63 126.598 34.58L127.558 31.955L124.963 24.815C124.923 24.685 124.963 24.62 125.083 24.62H126.583C126.693 24.62 126.758 24.665 126.778 24.755L127.783 27.86C127.883 28.18 127.978 28.515 128.068 28.865C128.168 29.215 128.258 29.565 128.338 29.915H128.383C128.463 29.565 128.553 29.215 128.653 28.865C128.753 28.515 128.848 28.185 128.938 27.875L129.958 24.755C129.968 24.665 130.028 24.62 130.138 24.62H131.608C131.748 24.62 131.793 24.685 131.743 24.815L128.263 34.64C128.233 34.73 128.168 34.775 128.068 34.775H126.733ZM138.127 32C138.027 32 137.977 31.945 137.977 31.835V23.72H135.502C135.392 23.72 135.337 23.665 135.337 23.555V22.34C135.337 22.23 135.392 22.175 135.502 22.175H142.192C142.302 22.175 142.357 22.23 142.357 22.34V23.555C142.357 23.665 142.302 23.72 142.192 23.72H139.717V31.835C139.717 31.945 139.662 32 139.552 32H138.127ZM142.794 32C142.684 32 142.629 31.945 142.629 31.835V26.465C142.629 26.165 142.624 25.88 142.614 25.61C142.604 25.33 142.579 25.06 142.539 24.8C142.529 24.68 142.584 24.62 142.704 24.62H143.919C144.019 24.62 144.079 24.67 144.099 24.77C144.129 24.95 144.154 25.155 144.174 25.385C144.204 25.615 144.219 25.83 144.219 26.03L144.339 26.78V31.835C144.339 31.945 144.284 32 144.174 32H142.794ZM144.189 27.455L144.084 25.97C144.284 25.69 144.509 25.435 144.759 25.205C145.009 24.975 145.264 24.795 145.524 24.665C145.794 24.525 146.054 24.455 146.304 24.455C146.464 24.455 146.594 24.47 146.694 24.5C146.774 24.53 146.814 24.595 146.814 24.695C146.834 24.915 146.839 25.16 146.829 25.43C146.829 25.69 146.814 25.935 146.784 26.165C146.774 26.285 146.709 26.33 146.589 26.3C146.529 26.29 146.454 26.28 146.364 26.27C146.284 26.26 146.199 26.255 146.109 26.255C145.889 26.255 145.664 26.305 145.434 26.405C145.214 26.505 144.994 26.645 144.774 26.825C144.564 26.995 144.369 27.205 144.189 27.455ZM151.925 32C151.835 32 151.775 31.94 151.745 31.82C151.725 31.69 151.7 31.505 151.67 31.265C151.64 31.025 151.62 30.795 151.61 30.575L151.49 30.065V26.93C151.49 26.51 151.41 26.215 151.25 26.045C151.09 25.875 150.815 25.79 150.425 25.79C149.695 25.79 149.34 26.085 149.36 26.675C149.36 26.785 149.31 26.84 149.21 26.84H147.905C147.805 26.84 147.75 26.76 147.74 26.6C147.69 25.92 147.9 25.395 148.37 25.025C148.85 24.645 149.555 24.455 150.485 24.455C151.415 24.455 152.1 24.655 152.54 25.055C152.98 25.455 153.2 26.09 153.2 26.96V30.14C153.2 30.48 153.205 30.79 153.215 31.07C153.235 31.34 153.26 31.59 153.29 31.82C153.31 31.94 153.255 32 153.125 32H151.925ZM149.195 32.165C148.625 32.165 148.185 31.99 147.875 31.64C147.565 31.28 147.41 30.77 147.41 30.11C147.41 29.6 147.505 29.185 147.695 28.865C147.885 28.535 148.19 28.28 148.61 28.1C149.04 27.91 149.61 27.785 150.32 27.725L151.685 27.59V28.625L150.515 28.73C149.975 28.78 149.6 28.895 149.39 29.075C149.18 29.255 149.075 29.535 149.075 29.915C149.075 30.225 149.135 30.455 149.255 30.605C149.375 30.755 149.56 30.83 149.81 30.83C150.1 30.83 150.39 30.735 150.68 30.545C150.98 30.355 151.335 30.025 151.745 29.555L151.835 30.665C151.385 31.155 150.955 31.53 150.545 31.79C150.145 32.04 149.695 32.165 149.195 32.165ZM159.641 32C159.521 32 159.461 31.945 159.461 31.835V27.125C159.461 26.715 159.386 26.42 159.236 26.24C159.086 26.05 158.841 25.955 158.501 25.955C158.171 25.955 157.846 26.055 157.526 26.255C157.216 26.445 156.871 26.73 156.491 27.11L156.386 25.94C156.666 25.64 156.946 25.38 157.226 25.16C157.506 24.94 157.801 24.77 158.111 24.65C158.431 24.52 158.776 24.455 159.146 24.455C159.816 24.455 160.321 24.655 160.661 25.055C161.001 25.445 161.171 26.045 161.171 26.855V31.835C161.171 31.945 161.121 32 161.021 32H159.641ZM155.171 32C155.061 32 155.006 31.945 155.006 31.835V26.495C155.006 26.195 154.996 25.895 154.976 25.595C154.956 25.295 154.936 25.035 154.916 24.815C154.896 24.685 154.951 24.62 155.081 24.62H156.296C156.396 24.62 156.456 24.67 156.476 24.77C156.506 24.93 156.531 25.14 156.551 25.4C156.581 25.66 156.601 25.89 156.611 26.09L156.716 26.645V31.835C156.716 31.945 156.661 32 156.551 32H155.171ZM165.435 32.165C164.485 32.165 163.785 31.975 163.335 31.595C162.895 31.205 162.695 30.605 162.735 29.795C162.745 29.685 162.805 29.63 162.915 29.63H164.205C164.305 29.63 164.355 29.685 164.355 29.795C164.355 30.165 164.44 30.44 164.61 30.62C164.79 30.79 165.07 30.875 165.45 30.875C165.84 30.875 166.125 30.81 166.305 30.68C166.495 30.54 166.59 30.335 166.59 30.065C166.59 29.855 166.525 29.68 166.395 29.54C166.275 29.4 166.07 29.265 165.78 29.135L164.145 28.385C163.675 28.165 163.33 27.91 163.11 27.62C162.9 27.32 162.795 26.935 162.795 26.465C162.795 25.795 163.01 25.295 163.44 24.965C163.87 24.625 164.53 24.455 165.42 24.455C166.34 24.455 167.025 24.635 167.475 24.995C167.935 25.355 168.16 25.875 168.15 26.555C168.15 26.665 168.09 26.72 167.97 26.72H166.695C166.575 26.72 166.515 26.645 166.515 26.495C166.525 26.255 166.44 26.07 166.26 25.94C166.09 25.81 165.835 25.745 165.495 25.745C165.155 25.745 164.905 25.805 164.745 25.925C164.585 26.035 164.505 26.21 164.505 26.45C164.505 26.65 164.555 26.805 164.655 26.915C164.765 27.025 164.97 27.15 165.27 27.29L166.89 28.01C167.38 28.24 167.735 28.505 167.955 28.805C168.185 29.105 168.3 29.5 168.3 29.99C168.3 30.7 168.06 31.24 167.58 31.61C167.1 31.98 166.385 32.165 165.435 32.165ZM169.908 32C169.798 32 169.743 31.945 169.743 31.835V21.92C169.743 21.81 169.798 21.755 169.908 21.755H171.288C171.398 21.755 171.453 21.81 171.453 21.92V31.835C171.453 31.945 171.398 32 171.288 32H169.908ZM177.413 32C177.323 32 177.263 31.94 177.233 31.82C177.213 31.69 177.188 31.505 177.158 31.265C177.128 31.025 177.108 30.795 177.098 30.575L176.978 30.065V26.93C176.978 26.51 176.898 26.215 176.738 26.045C176.578 25.875 176.303 25.79 175.913 25.79C175.183 25.79 174.828 26.085 174.848 26.675C174.848 26.785 174.798 26.84 174.698 26.84H173.393C173.293 26.84 173.238 26.76 173.228 26.6C173.178 25.92 173.388 25.395 173.858 25.025C174.338 24.645 175.043 24.455 175.973 24.455C176.903 24.455 177.588 24.655 178.028 25.055C178.468 25.455 178.688 26.09 178.688 26.96V30.14C178.688 30.48 178.693 30.79 178.703 31.07C178.723 31.34 178.748 31.59 178.778 31.82C178.798 31.94 178.743 32 178.613 32H177.413ZM174.683 32.165C174.113 32.165 173.673 31.99 173.363 31.64C173.053 31.28 172.898 30.77 172.898 30.11C172.898 29.6 172.993 29.185 173.183 28.865C173.373 28.535 173.678 28.28 174.098 28.1C174.528 27.91 175.098 27.785 175.808 27.725L177.173 27.59V28.625L176.003 28.73C175.463 28.78 175.088 28.895 174.878 29.075C174.668 29.255 174.563 29.535 174.563 29.915C174.563 30.225 174.623 30.455 174.743 30.605C174.863 30.755 175.048 30.83 175.298 30.83C175.588 30.83 175.878 30.735 176.168 30.545C176.468 30.355 176.823 30.025 177.233 29.555L177.323 30.665C176.873 31.155 176.443 31.53 176.033 31.79C175.633 32.04 175.183 32.165 174.683 32.165ZM183.33 32.165C182.78 32.165 182.335 32.08 181.995 31.91C181.665 31.73 181.425 31.455 181.275 31.085C181.125 30.705 181.05 30.22 181.05 29.63V26.075H180C179.89 26.075 179.835 26.015 179.835 25.895V24.785C179.835 24.675 179.89 24.62 180 24.62H181.095L181.29 22.82C181.3 22.7 181.36 22.64 181.47 22.64H182.595C182.695 22.64 182.745 22.7 182.745 22.82L182.76 24.62H184.74C184.85 24.62 184.905 24.675 184.905 24.785V25.895C184.905 26.015 184.85 26.075 184.74 26.075H182.76V29.525C182.76 29.945 182.83 30.245 182.97 30.425C183.12 30.605 183.365 30.695 183.705 30.695C183.875 30.695 184.045 30.675 184.215 30.635C184.395 30.595 184.565 30.545 184.725 30.485C184.855 30.435 184.92 30.475 184.92 30.605V31.73C184.92 31.82 184.875 31.885 184.785 31.925C184.595 31.995 184.375 32.05 184.125 32.09C183.875 32.14 183.61 32.165 183.33 32.165ZM186.373 32C186.263 32 186.208 31.945 186.208 31.835V24.785C186.208 24.675 186.263 24.62 186.373 24.62H187.753C187.863 24.62 187.918 24.675 187.918 24.785V31.835C187.918 31.945 187.863 32 187.753 32H186.373ZM187.078 23.555C186.748 23.555 186.498 23.47 186.328 23.3C186.158 23.12 186.073 22.895 186.073 22.625V22.4C186.073 22.12 186.158 21.9 186.328 21.74C186.498 21.57 186.748 21.485 187.078 21.485C187.408 21.485 187.653 21.57 187.813 21.74C187.983 21.9 188.068 22.12 188.068 22.4V22.625C188.068 22.895 187.983 23.12 187.813 23.3C187.653 23.47 187.408 23.555 187.078 23.555ZM192.708 32.165C191.698 32.165 190.918 31.915 190.368 31.415C189.828 30.915 189.558 30.175 189.558 29.195V27.41C189.558 26.43 189.828 25.695 190.368 25.205C190.918 24.705 191.698 24.455 192.708 24.455C193.708 24.455 194.483 24.705 195.033 25.205C195.583 25.695 195.858 26.43 195.858 27.41V29.195C195.858 30.175 195.583 30.915 195.033 31.415C194.493 31.915 193.718 32.165 192.708 32.165ZM192.708 30.695C193.198 30.695 193.558 30.565 193.788 30.305C194.028 30.045 194.148 29.635 194.148 29.075V27.56C194.148 27 194.028 26.59 193.788 26.33C193.558 26.07 193.198 25.94 192.708 25.94C192.208 25.94 191.838 26.07 191.598 26.33C191.368 26.59 191.253 27 191.253 27.56V29.075C191.253 29.635 191.368 30.045 191.598 30.305C191.838 30.565 192.208 30.695 192.708 30.695ZM202.093 32C201.973 32 201.913 31.945 201.913 31.835V27.125C201.913 26.715 201.838 26.42 201.688 26.24C201.538 26.05 201.293 25.955 200.953 25.955C200.623 25.955 200.298 26.055 199.978 26.255C199.668 26.445 199.323 26.73 198.943 27.11L198.838 25.94C199.118 25.64 199.398 25.38 199.678 25.16C199.958 24.94 200.253 24.77 200.563 24.65C200.883 24.52 201.228 24.455 201.598 24.455C202.268 24.455 202.773 24.655 203.113 25.055C203.453 25.445 203.623 26.045 203.623 26.855V31.835C203.623 31.945 203.573 32 203.473 32H202.093ZM197.623 32C197.513 32 197.458 31.945 197.458 31.835V26.495C197.458 26.195 197.448 25.895 197.428 25.595C197.408 25.295 197.388 25.035 197.368 24.815C197.348 24.685 197.403 24.62 197.533 24.62H198.748C198.848 24.62 198.908 24.67 198.928 24.77C198.958 24.93 198.983 25.14 199.003 25.4C199.033 25.66 199.053 25.89 199.063 26.09L199.168 26.645V31.835C199.168 31.945 199.113 32 199.003 32H197.623Z" fill="#3E2F43"/>
<rect x="744.5" y="81.5" width="94" height="38" rx="15.5" fill="white"/>
<rect x="744.5" y="81.5" width="94" height="38" rx="15.5" stroke="#41CDE9"/>
<path d="M764.635 105.165C763.425 105.165 762.495 104.86 761.845 104.25C761.195 103.64 760.87 102.73 760.87 101.52V98.655C760.87 97.455 761.195 96.55 761.845 95.94C762.505 95.32 763.44 95.01 764.65 95.01C765.47 95.01 766.175 95.15 766.765 95.43C767.355 95.71 767.79 96.11 768.07 96.63C768.36 97.15 768.455 97.765 768.355 98.475C768.345 98.515 768.325 98.555 768.295 98.595C768.275 98.635 768.24 98.655 768.19 98.655H766.765C766.655 98.655 766.605 98.595 766.615 98.475C766.645 97.865 766.495 97.39 766.165 97.05C765.835 96.71 765.335 96.54 764.665 96.54C764.005 96.54 763.495 96.72 763.135 97.08C762.785 97.43 762.61 97.965 762.61 98.685V101.475C762.61 102.205 762.785 102.75 763.135 103.11C763.495 103.46 764.005 103.635 764.665 103.635C765.355 103.635 765.865 103.46 766.195 103.11C766.525 102.76 766.665 102.29 766.615 101.7C766.605 101.58 766.655 101.52 766.765 101.52H768.175C768.285 101.52 768.345 101.585 768.355 101.715C768.425 102.415 768.315 103.025 768.025 103.545C767.745 104.055 767.315 104.455 766.735 104.745C766.165 105.025 765.465 105.165 764.635 105.165ZM770.191 105C770.081 105 770.026 104.945 770.026 104.835V99.465C770.026 99.165 770.021 98.88 770.011 98.61C770.001 98.33 769.976 98.06 769.936 97.8C769.926 97.68 769.981 97.62 770.101 97.62H771.316C771.416 97.62 771.476 97.67 771.496 97.77C771.526 97.95 771.551 98.155 771.571 98.385C771.601 98.615 771.616 98.83 771.616 99.03L771.736 99.78V104.835C771.736 104.945 771.681 105 771.571 105H770.191ZM771.586 100.455L771.481 98.97C771.681 98.69 771.906 98.435 772.156 98.205C772.406 97.975 772.661 97.795 772.921 97.665C773.191 97.525 773.451 97.455 773.701 97.455C773.861 97.455 773.991 97.47 774.091 97.5C774.171 97.53 774.211 97.595 774.211 97.695C774.231 97.915 774.236 98.16 774.226 98.43C774.226 98.69 774.211 98.935 774.181 99.165C774.171 99.285 774.106 99.33 773.986 99.3C773.926 99.29 773.851 99.28 773.761 99.27C773.681 99.26 773.596 99.255 773.506 99.255C773.286 99.255 773.061 99.305 772.831 99.405C772.611 99.505 772.391 99.645 772.171 99.825C771.961 99.995 771.766 100.205 771.586 100.455ZM776.733 107.775C776.673 107.775 776.628 107.755 776.598 107.715C776.578 107.675 776.578 107.63 776.598 107.58L777.558 104.955L774.963 97.815C774.923 97.685 774.963 97.62 775.083 97.62H776.583C776.693 97.62 776.758 97.665 776.778 97.755L777.783 100.86C777.883 101.18 777.978 101.515 778.068 101.865C778.168 102.215 778.258 102.565 778.338 102.915H778.383C778.463 102.565 778.553 102.215 778.653 101.865C778.753 101.515 778.848 101.185 778.938 100.875L779.958 97.755C779.968 97.665 780.028 97.62 780.138 97.62H781.608C781.748 97.62 781.793 97.685 781.743 97.815L778.263 107.64C778.233 107.73 778.168 107.775 778.068 107.775H776.733ZM786.147 105C786.037 105 785.982 104.945 785.982 104.835V95.34C785.982 95.23 786.037 95.175 786.147 95.175H788.142C788.232 95.175 788.292 95.215 788.322 95.295L790.617 100.095C790.777 100.415 790.927 100.735 791.067 101.055C791.217 101.365 791.357 101.67 791.487 101.97C791.617 102.26 791.727 102.535 791.817 102.795H791.862C791.852 102.515 791.837 102.205 791.817 101.865C791.807 101.525 791.797 101.185 791.787 100.845C791.777 100.505 791.772 100.2 791.772 99.93V95.34C791.772 95.23 791.827 95.175 791.937 95.175H793.302C793.402 95.175 793.452 95.23 793.452 95.34V104.835C793.452 104.945 793.402 105 793.302 105H791.322C791.232 105 791.167 104.96 791.127 104.88L788.877 100.23C788.737 99.92 788.592 99.605 788.442 99.285C788.302 98.965 788.162 98.65 788.022 98.34C787.892 98.02 787.767 97.715 787.647 97.425H787.617C787.627 97.735 787.637 98.065 787.647 98.415C787.657 98.765 787.662 99.11 787.662 99.45C787.672 99.79 787.677 100.12 787.677 100.44V104.835C787.677 104.945 787.617 105 787.497 105H786.147ZM798.367 105.165C797.357 105.165 796.577 104.915 796.027 104.415C795.487 103.915 795.217 103.175 795.217 102.195V100.41C795.217 99.43 795.487 98.695 796.027 98.205C796.577 97.705 797.357 97.455 798.367 97.455C799.367 97.455 800.142 97.705 800.692 98.205C801.242 98.695 801.517 99.43 801.517 100.41V102.195C801.517 103.175 801.242 103.915 800.692 104.415C800.152 104.915 799.377 105.165 798.367 105.165ZM798.367 103.695C798.857 103.695 799.217 103.565 799.447 103.305C799.687 103.045 799.807 102.635 799.807 102.075V100.56C799.807 100 799.687 99.59 799.447 99.33C799.217 99.07 798.857 98.94 798.367 98.94C797.867 98.94 797.497 99.07 797.257 99.33C797.027 99.59 796.912 100 796.912 100.56V102.075C796.912 102.635 797.027 103.045 797.257 103.305C797.497 103.565 797.867 103.695 798.367 103.695ZM805.966 105.165C805.416 105.165 804.971 105.08 804.631 104.91C804.301 104.73 804.061 104.455 803.911 104.085C803.761 103.705 803.686 103.22 803.686 102.63V99.075H802.636C802.526 99.075 802.471 99.015 802.471 98.895V97.785C802.471 97.675 802.526 97.62 802.636 97.62H803.731L803.926 95.82C803.936 95.7 803.996 95.64 804.106 95.64H805.231C805.331 95.64 805.381 95.7 805.381 95.82L805.396 97.62H807.376C807.486 97.62 807.541 97.675 807.541 97.785V98.895C807.541 99.015 807.486 99.075 807.376 99.075H805.396V102.525C805.396 102.945 805.466 103.245 805.606 103.425C805.756 103.605 806.001 103.695 806.341 103.695C806.511 103.695 806.681 103.675 806.851 103.635C807.031 103.595 807.201 103.545 807.361 103.485C807.491 103.435 807.556 103.475 807.556 103.605V104.73C807.556 104.82 807.511 104.885 807.421 104.925C807.231 104.995 807.011 105.05 806.761 105.09C806.511 105.14 806.246 105.165 805.966 105.165ZM811.681 105.165C810.641 105.165 809.866 104.935 809.356 104.475C808.846 104.005 808.591 103.305 808.591 102.375V100.425C808.591 99.455 808.846 98.72 809.356 98.22C809.876 97.71 810.641 97.455 811.651 97.455C812.661 97.455 813.426 97.7 813.946 98.19C814.466 98.68 814.726 99.4 814.726 100.35V101.535C814.726 101.645 814.671 101.7 814.561 101.7H810.271V102.3C810.271 102.82 810.381 103.205 810.601 103.455C810.831 103.695 811.196 103.815 811.696 103.815C812.086 103.815 812.386 103.745 812.596 103.605C812.816 103.455 812.921 103.245 812.911 102.975C812.911 102.865 812.971 102.81 813.091 102.81H814.426C814.516 102.81 814.566 102.86 814.576 102.96C814.596 103.68 814.361 104.23 813.871 104.61C813.381 104.98 812.651 105.165 811.681 105.165ZM810.271 100.575H813.046V100.365C813.046 99.825 812.931 99.43 812.701 99.18C812.481 98.93 812.136 98.805 811.666 98.805C811.196 98.805 810.846 98.935 810.616 99.195C810.386 99.445 810.271 99.835 810.271 100.365V100.575ZM818.789 105.165C817.839 105.165 817.139 104.975 816.689 104.595C816.249 104.205 816.049 103.605 816.089 102.795C816.099 102.685 816.159 102.63 816.269 102.63H817.559C817.659 102.63 817.709 102.685 817.709 102.795C817.709 103.165 817.794 103.44 817.964 103.62C818.144 103.79 818.424 103.875 818.804 103.875C819.194 103.875 819.479 103.81 819.659 103.68C819.849 103.54 819.944 103.335 819.944 103.065C819.944 102.855 819.879 102.68 819.749 102.54C819.629 102.4 819.424 102.265 819.134 102.135L817.499 101.385C817.029 101.165 816.684 100.91 816.464 100.62C816.254 100.32 816.149 99.935 816.149 99.465C816.149 98.795 816.364 98.295 816.794 97.965C817.224 97.625 817.884 97.455 818.774 97.455C819.694 97.455 820.379 97.635 820.829 97.995C821.289 98.355 821.514 98.875 821.504 99.555C821.504 99.665 821.444 99.72 821.324 99.72H820.049C819.929 99.72 819.869 99.645 819.869 99.495C819.879 99.255 819.794 99.07 819.614 98.94C819.444 98.81 819.189 98.745 818.849 98.745C818.509 98.745 818.259 98.805 818.099 98.925C817.939 99.035 817.859 99.21 817.859 99.45C817.859 99.65 817.909 99.805 818.009 99.915C818.119 100.025 818.324 100.15 818.624 100.29L820.244 101.01C820.734 101.24 821.089 101.505 821.309 101.805C821.539 102.105 821.654 102.5 821.654 102.99C821.654 103.7 821.414 104.24 820.934 104.61C820.454 104.98 819.739 105.165 818.789 105.165Z" fill="#3E2F43"/>
<rect x="0.5" y="82.5" width="139" height="38" rx="15.5" fill="white"/>
<rect x="0.5" y="82.5" width="139" height="38" rx="15.5" stroke="#61C587"/>
<path d="M16.15 106C16.02 106 15.97 105.935 16 105.805L19.075 96.31C19.115 96.22 19.18 96.175 19.27 96.175H21.13C21.23 96.175 21.3 96.22 21.34 96.31L24.415 105.805C24.455 105.935 24.415 106 24.295 106H22.735C22.645 106 22.585 105.955 22.555 105.865L20.71 99.655C20.62 99.325 20.53 99 20.44 98.68C20.36 98.36 20.28 98.04 20.2 97.72H20.17C20.09 98.04 20.005 98.36 19.915 98.68C19.835 99 19.75 99.32 19.66 99.64L17.845 105.865C17.815 105.955 17.75 106 17.65 106H16.15ZM18.145 103.915L18.46 102.475H21.895L22.225 103.915H18.145ZM25.6379 106C25.5279 106 25.4729 105.945 25.4729 105.835V96.34C25.4729 96.23 25.5279 96.175 25.6379 96.175H27.0479C27.1579 96.175 27.2129 96.23 27.2129 96.34V105.835C27.2129 105.945 27.1579 106 27.0479 106H25.6379ZM32.3908 106C32.2808 106 32.2258 105.945 32.2258 105.835V96.34C32.2258 96.23 32.2808 96.175 32.3908 96.175H35.2258C37.5058 96.175 38.6458 96.985 38.6458 98.605C38.6458 99.175 38.5208 99.635 38.2708 99.985C38.0208 100.325 37.6258 100.595 37.0858 100.795V100.84C37.7158 100.96 38.2008 101.22 38.5408 101.62C38.8808 102.01 39.0508 102.535 39.0508 103.195C39.0508 104.165 38.7508 104.875 38.1508 105.325C37.5508 105.775 36.5858 106 35.2558 106H32.3908ZM33.9658 104.545H35.2858C36.0058 104.545 36.5208 104.43 36.8308 104.2C37.1508 103.97 37.3108 103.595 37.3108 103.075C37.3108 102.575 37.1508 102.21 36.8308 101.98C36.5108 101.75 36.0108 101.635 35.3308 101.635H33.9658V104.545ZM33.9658 100.315H35.2408C35.8008 100.315 36.2158 100.2 36.4858 99.97C36.7658 99.73 36.9058 99.38 36.9058 98.92C36.9058 98.47 36.7608 98.14 36.4708 97.93C36.1908 97.72 35.7358 97.615 35.1058 97.615H33.9658V100.315ZM44.7708 106C44.6808 106 44.6208 105.94 44.5908 105.82C44.5708 105.69 44.5458 105.505 44.5158 105.265C44.4858 105.025 44.4658 104.795 44.4558 104.575L44.3358 104.065V100.93C44.3358 100.51 44.2558 100.215 44.0958 100.045C43.9358 99.875 43.6608 99.79 43.2708 99.79C42.5408 99.79 42.1858 100.085 42.2058 100.675C42.2058 100.785 42.1558 100.84 42.0558 100.84H40.7508C40.6508 100.84 40.5958 100.76 40.5858 100.6C40.5358 99.92 40.7458 99.395 41.2158 99.025C41.6958 98.645 42.4008 98.455 43.3308 98.455C44.2608 98.455 44.9458 98.655 45.3858 99.055C45.8258 99.455 46.0458 100.09 46.0458 100.96V104.14C46.0458 104.48 46.0508 104.79 46.0608 105.07C46.0808 105.34 46.1058 105.59 46.1358 105.82C46.1558 105.94 46.1008 106 45.9708 106H44.7708ZM42.0408 106.165C41.4708 106.165 41.0308 105.99 40.7208 105.64C40.4108 105.28 40.2558 104.77 40.2558 104.11C40.2558 103.6 40.3508 103.185 40.5408 102.865C40.7308 102.535 41.0358 102.28 41.4558 102.1C41.8858 101.91 42.4558 101.785 43.1658 101.725L44.5308 101.59V102.625L43.3608 102.73C42.8208 102.78 42.4458 102.895 42.2358 103.075C42.0258 103.255 41.9208 103.535 41.9208 103.915C41.9208 104.225 41.9808 104.455 42.1008 104.605C42.2208 104.755 42.4058 104.83 42.6558 104.83C42.9458 104.83 43.2358 104.735 43.5258 104.545C43.8258 104.355 44.1808 104.025 44.5908 103.555L44.6808 104.665C44.2308 105.155 43.8008 105.53 43.3908 105.79C42.9908 106.04 42.5408 106.165 42.0408 106.165ZM50.8971 106.165C50.3571 106.165 49.8571 106.12 49.3971 106.03C48.9471 105.94 48.4321 105.875 47.8521 105.835V95.92C47.8521 95.81 47.9071 95.755 48.0171 95.755H49.3971C49.5071 95.755 49.5621 95.81 49.5621 95.92V104.605C49.7521 104.635 49.9471 104.665 50.1471 104.695C50.3571 104.725 50.5521 104.74 50.7321 104.74C51.2321 104.74 51.6021 104.61 51.8421 104.35C52.0921 104.08 52.2171 103.675 52.2171 103.135V101.26C52.2171 100.81 52.1371 100.48 51.9771 100.27C51.8171 100.06 51.5671 99.955 51.2271 99.955C50.9471 99.955 50.6571 100.035 50.3571 100.195C50.0671 100.355 49.7221 100.62 49.3221 100.99L49.3521 99.655C49.7821 99.245 50.2021 98.945 50.6121 98.755C51.0221 98.555 51.4421 98.455 51.8721 98.455C52.5621 98.455 53.0771 98.66 53.4171 99.07C53.7571 99.48 53.9271 100.11 53.9271 100.96V103.27C53.9271 104.24 53.6771 104.965 53.1771 105.445C52.6771 105.925 51.9171 106.165 50.8971 106.165ZM56.595 108.775C56.535 108.775 56.49 108.755 56.46 108.715C56.44 108.675 56.44 108.63 56.46 108.58L57.42 105.955L54.825 98.815C54.785 98.685 54.825 98.62 54.945 98.62H56.445C56.555 98.62 56.62 98.665 56.64 98.755L57.645 101.86C57.745 102.18 57.84 102.515 57.93 102.865C58.03 103.215 58.12 103.565 58.2 103.915H58.245C58.325 103.565 58.415 103.215 58.515 102.865C58.615 102.515 58.71 102.185 58.8 101.875L59.82 98.755C59.83 98.665 59.89 98.62 60 98.62H61.47C61.61 98.62 61.655 98.685 61.605 98.815L58.125 108.64C58.095 108.73 58.03 108.775 57.93 108.775H56.595ZM64.9439 106C64.8139 106 64.7639 105.935 64.7939 105.805L67.8689 96.31C67.9089 96.22 67.9739 96.175 68.0639 96.175H69.9239C70.0239 96.175 70.0939 96.22 70.1339 96.31L73.2089 105.805C73.2489 105.935 73.2089 106 73.0889 106H71.5289C71.4389 106 71.3789 105.955 71.3489 105.865L69.5039 99.655C69.4139 99.325 69.3239 99 69.2339 98.68C69.1539 98.36 69.0739 98.04 68.9939 97.72H68.9639C68.8839 98.04 68.7989 98.36 68.7089 98.68C68.6289 99 68.5439 99.32 68.4539 99.64L66.6389 105.865C66.6089 105.955 66.5439 106 66.4439 106H64.9439ZM66.9389 103.915L67.2539 102.475H70.6889L71.0189 103.915H66.9389ZM76.6204 106.165C75.6704 106.165 74.9704 105.975 74.5204 105.595C74.0804 105.205 73.8804 104.605 73.9204 103.795C73.9304 103.685 73.9904 103.63 74.1004 103.63H75.3904C75.4904 103.63 75.5404 103.685 75.5404 103.795C75.5404 104.165 75.6254 104.44 75.7954 104.62C75.9754 104.79 76.2554 104.875 76.6354 104.875C77.0254 104.875 77.3104 104.81 77.4904 104.68C77.6804 104.54 77.7754 104.335 77.7754 104.065C77.7754 103.855 77.7104 103.68 77.5804 103.54C77.4604 103.4 77.2554 103.265 76.9654 103.135L75.3304 102.385C74.8604 102.165 74.5154 101.91 74.2954 101.62C74.0854 101.32 73.9804 100.935 73.9804 100.465C73.9804 99.795 74.1954 99.295 74.6254 98.965C75.0554 98.625 75.7154 98.455 76.6054 98.455C77.5254 98.455 78.2104 98.635 78.6604 98.995C79.1204 99.355 79.3454 99.875 79.3354 100.555C79.3354 100.665 79.2754 100.72 79.1554 100.72H77.8804C77.7604 100.72 77.7004 100.645 77.7004 100.495C77.7104 100.255 77.6254 100.07 77.4454 99.94C77.2754 99.81 77.0204 99.745 76.6804 99.745C76.3404 99.745 76.0904 99.805 75.9304 99.925C75.7704 100.035 75.6904 100.21 75.6904 100.45C75.6904 100.65 75.7404 100.805 75.8404 100.915C75.9504 101.025 76.1554 101.15 76.4554 101.29L78.0754 102.01C78.5654 102.24 78.9204 102.505 79.1404 102.805C79.3704 103.105 79.4854 103.5 79.4854 103.99C79.4854 104.7 79.2454 105.24 78.7654 105.61C78.2854 105.98 77.5704 106.165 76.6204 106.165ZM83.2122 106.165C82.2622 106.165 81.5622 105.975 81.1122 105.595C80.6722 105.205 80.4722 104.605 80.5122 103.795C80.5222 103.685 80.5822 103.63 80.6922 103.63H81.9822C82.0822 103.63 82.1322 103.685 82.1322 103.795C82.1322 104.165 82.2172 104.44 82.3872 104.62C82.5672 104.79 82.8472 104.875 83.2272 104.875C83.6172 104.875 83.9022 104.81 84.0822 104.68C84.2722 104.54 84.3672 104.335 84.3672 104.065C84.3672 103.855 84.3022 103.68 84.1722 103.54C84.0522 103.4 83.8472 103.265 83.5572 103.135L81.9222 102.385C81.4522 102.165 81.1072 101.91 80.8872 101.62C80.6772 101.32 80.5722 100.935 80.5722 100.465C80.5722 99.795 80.7872 99.295 81.2172 98.965C81.6472 98.625 82.3072 98.455 83.1972 98.455C84.1172 98.455 84.8022 98.635 85.2522 98.995C85.7122 99.355 85.9372 99.875 85.9272 100.555C85.9272 100.665 85.8672 100.72 85.7472 100.72H84.4722C84.3522 100.72 84.2922 100.645 84.2922 100.495C84.3022 100.255 84.2172 100.07 84.0372 99.94C83.8672 99.81 83.6122 99.745 83.2722 99.745C82.9322 99.745 82.6822 99.805 82.5222 99.925C82.3622 100.035 82.2822 100.21 82.2822 100.45C82.2822 100.65 82.3322 100.805 82.4322 100.915C82.5422 101.025 82.7472 101.15 83.0472 101.29L84.6672 102.01C85.1572 102.24 85.5122 102.505 85.7322 102.805C85.9622 103.105 86.0772 103.5 86.0772 103.99C86.0772 104.7 85.8372 105.24 85.3572 105.61C84.8772 105.98 84.1622 106.165 83.2122 106.165ZM87.6998 106C87.5898 106 87.5348 105.945 87.5348 105.835V98.785C87.5348 98.675 87.5898 98.62 87.6998 98.62H89.0798C89.1898 98.62 89.2448 98.675 89.2448 98.785V105.835C89.2448 105.945 89.1898 106 89.0798 106H87.6998ZM88.4048 97.555C88.0748 97.555 87.8248 97.47 87.6548 97.3C87.4848 97.12 87.3998 96.895 87.3998 96.625V96.4C87.3998 96.12 87.4848 95.9 87.6548 95.74C87.8248 95.57 88.0748 95.485 88.4048 95.485C88.7348 95.485 88.9798 95.57 89.1398 95.74C89.3098 95.9 89.3948 96.12 89.3948 96.4V96.625C89.3948 96.895 89.3098 97.12 89.1398 97.3C88.9798 97.47 88.7348 97.555 88.4048 97.555ZM93.4954 106.165C92.5454 106.165 91.8454 105.975 91.3954 105.595C90.9554 105.205 90.7554 104.605 90.7954 103.795C90.8054 103.685 90.8654 103.63 90.9754 103.63H92.2654C92.3654 103.63 92.4154 103.685 92.4154 103.795C92.4154 104.165 92.5004 104.44 92.6704 104.62C92.8504 104.79 93.1304 104.875 93.5104 104.875C93.9004 104.875 94.1854 104.81 94.3654 104.68C94.5554 104.54 94.6504 104.335 94.6504 104.065C94.6504 103.855 94.5854 103.68 94.4554 103.54C94.3354 103.4 94.1304 103.265 93.8404 103.135L92.2054 102.385C91.7354 102.165 91.3904 101.91 91.1704 101.62C90.9604 101.32 90.8554 100.935 90.8554 100.465C90.8554 99.795 91.0704 99.295 91.5004 98.965C91.9304 98.625 92.5904 98.455 93.4804 98.455C94.4004 98.455 95.0854 98.635 95.5354 98.995C95.9954 99.355 96.2204 99.875 96.2104 100.555C96.2104 100.665 96.1504 100.72 96.0304 100.72H94.7554C94.6354 100.72 94.5754 100.645 94.5754 100.495C94.5854 100.255 94.5004 100.07 94.3204 99.94C94.1504 99.81 93.8954 99.745 93.5554 99.745C93.2154 99.745 92.9654 99.805 92.8054 99.925C92.6454 100.035 92.5654 100.21 92.5654 100.45C92.5654 100.65 92.6154 100.805 92.7154 100.915C92.8254 101.025 93.0304 101.15 93.3304 101.29L94.9504 102.01C95.4404 102.24 95.7954 102.505 96.0154 102.805C96.2454 103.105 96.3604 103.5 96.3604 103.99C96.3604 104.7 96.1204 105.24 95.6404 105.61C95.1604 105.98 94.4454 106.165 93.4954 106.165ZM100.653 106.165C100.103 106.165 99.658 106.08 99.318 105.91C98.988 105.73 98.748 105.455 98.598 105.085C98.448 104.705 98.373 104.22 98.373 103.63V100.075H97.323C97.213 100.075 97.158 100.015 97.158 99.895V98.785C97.158 98.675 97.213 98.62 97.323 98.62H98.418L98.613 96.82C98.623 96.7 98.683 96.64 98.793 96.64H99.918C100.018 96.64 100.068 96.7 100.068 96.82L100.083 98.62H102.063C102.173 98.62 102.228 98.675 102.228 98.785V99.895C102.228 100.015 102.173 100.075 102.063 100.075H100.083V103.525C100.083 103.945 100.153 104.245 100.293 104.425C100.443 104.605 100.688 104.695 101.028 104.695C101.198 104.695 101.368 104.675 101.538 104.635C101.718 104.595 101.888 104.545 102.048 104.485C102.178 104.435 102.243 104.475 102.243 104.605V105.73C102.243 105.82 102.198 105.885 102.108 105.925C101.918 105.995 101.698 106.05 101.448 106.09C101.198 106.14 100.933 106.165 100.653 106.165ZM107.686 106C107.596 106 107.536 105.94 107.506 105.82C107.486 105.69 107.461 105.505 107.431 105.265C107.401 105.025 107.381 104.795 107.371 104.575L107.251 104.065V100.93C107.251 100.51 107.171 100.215 107.011 100.045C106.851 99.875 106.576 99.79 106.186 99.79C105.456 99.79 105.101 100.085 105.121 100.675C105.121 100.785 105.071 100.84 104.971 100.84H103.666C103.566 100.84 103.511 100.76 103.501 100.6C103.451 99.92 103.661 99.395 104.131 99.025C104.611 98.645 105.316 98.455 106.246 98.455C107.176 98.455 107.861 98.655 108.301 99.055C108.741 99.455 108.961 100.09 108.961 100.96V104.14C108.961 104.48 108.966 104.79 108.976 105.07C108.996 105.34 109.021 105.59 109.051 105.82C109.071 105.94 109.016 106 108.886 106H107.686ZM104.956 106.165C104.386 106.165 103.946 105.99 103.636 105.64C103.326 105.28 103.171 104.77 103.171 104.11C103.171 103.6 103.266 103.185 103.456 102.865C103.646 102.535 103.951 102.28 104.371 102.1C104.801 101.91 105.371 101.785 106.081 101.725L107.446 101.59V102.625L106.276 102.73C105.736 102.78 105.361 102.895 105.151 103.075C104.941 103.255 104.836 103.535 104.836 103.915C104.836 104.225 104.896 104.455 105.016 104.605C105.136 104.755 105.321 104.83 105.571 104.83C105.861 104.83 106.151 104.735 106.441 104.545C106.741 104.355 107.096 104.025 107.506 103.555L107.596 104.665C107.146 105.155 106.716 105.53 106.306 105.79C105.906 106.04 105.456 106.165 104.956 106.165ZM115.402 106C115.282 106 115.222 105.945 115.222 105.835V101.125C115.222 100.715 115.147 100.42 114.997 100.24C114.847 100.05 114.602 99.955 114.262 99.955C113.932 99.955 113.607 100.055 113.287 100.255C112.977 100.445 112.632 100.73 112.252 101.11L112.147 99.94C112.427 99.64 112.707 99.38 112.987 99.16C113.267 98.94 113.562 98.77 113.872 98.65C114.192 98.52 114.537 98.455 114.907 98.455C115.577 98.455 116.082 98.655 116.422 99.055C116.762 99.445 116.932 100.045 116.932 100.855V105.835C116.932 105.945 116.882 106 116.782 106H115.402ZM110.932 106C110.822 106 110.767 105.945 110.767 105.835V100.495C110.767 100.195 110.757 99.895 110.737 99.595C110.717 99.295 110.697 99.035 110.677 98.815C110.657 98.685 110.712 98.62 110.842 98.62H112.057C112.157 98.62 112.217 98.67 112.237 98.77C112.267 98.93 112.292 99.14 112.312 99.4C112.342 99.66 112.362 99.89 112.372 100.09L112.477 100.645V105.835C112.477 105.945 112.422 106 112.312 106H110.932ZM121.659 106.165C121.109 106.165 120.664 106.08 120.324 105.91C119.994 105.73 119.754 105.455 119.604 105.085C119.454 104.705 119.379 104.22 119.379 103.63V100.075H118.329C118.219 100.075 118.164 100.015 118.164 99.895V98.785C118.164 98.675 118.219 98.62 118.329 98.62H119.424L119.619 96.82C119.629 96.7 119.689 96.64 119.799 96.64H120.924C121.024 96.64 121.074 96.7 121.074 96.82L121.089 98.62H123.069C123.179 98.62 123.234 98.675 123.234 98.785V99.895C123.234 100.015 123.179 100.075 123.069 100.075H121.089V103.525C121.089 103.945 121.159 104.245 121.299 104.425C121.449 104.605 121.694 104.695 122.034 104.695C122.204 104.695 122.374 104.675 122.544 104.635C122.724 104.595 122.894 104.545 123.054 104.485C123.184 104.435 123.249 104.475 123.249 104.605V105.73C123.249 105.82 123.204 105.885 123.114 105.925C122.924 105.995 122.704 106.05 122.454 106.09C122.204 106.14 121.939 106.165 121.659 106.165Z" fill="#3E2F43"/>
<rect x="226.5" y="93.5" width="100" height="38" rx="15.5" fill="white"/>
<rect x="226.5" y="93.5" width="100" height="38" rx="15.5" stroke="#FDCB7B"/>
<path d="M243.02 117C242.91 117 242.855 116.945 242.855 116.835L243.035 107.34C243.035 107.23 243.09 107.175 243.2 107.175H245.045C245.135 107.175 245.195 107.215 245.225 107.295L247.64 112.785L250.025 107.295C250.065 107.215 250.125 107.175 250.205 107.175H252.05C252.16 107.175 252.215 107.23 252.215 107.34L252.41 116.835C252.41 116.945 252.355 117 252.245 117H250.865C250.755 117 250.7 116.945 250.7 116.835L250.595 111.975C250.585 111.575 250.585 111.175 250.595 110.775C250.615 110.365 250.63 109.975 250.64 109.605H250.61C250.47 109.965 250.315 110.335 250.145 110.715C249.985 111.085 249.82 111.45 249.65 111.81L247.85 115.725C247.81 115.815 247.745 115.86 247.655 115.86H247.595C247.515 115.86 247.455 115.815 247.415 115.725L245.585 111.78C245.415 111.43 245.255 111.07 245.105 110.7C244.955 110.33 244.81 109.965 244.67 109.605H244.625C244.645 109.975 244.66 110.36 244.67 110.76C244.68 111.16 244.68 111.555 244.67 111.945L244.565 116.835C244.565 116.945 244.51 117 244.4 117H243.02ZM254.315 117C254.205 117 254.15 116.945 254.15 116.835V109.785C254.15 109.675 254.205 109.62 254.315 109.62H255.695C255.805 109.62 255.86 109.675 255.86 109.785V116.835C255.86 116.945 255.805 117 255.695 117H254.315ZM255.02 108.555C254.69 108.555 254.44 108.47 254.27 108.3C254.1 108.12 254.015 107.895 254.015 107.625V107.4C254.015 107.12 254.1 106.9 254.27 106.74C254.44 106.57 254.69 106.485 255.02 106.485C255.35 106.485 255.595 106.57 255.755 106.74C255.925 106.9 256.01 107.12 256.01 107.4V107.625C256.01 107.895 255.925 108.12 255.755 108.3C255.595 108.47 255.35 108.555 255.02 108.555ZM257.831 117C257.721 117 257.666 116.945 257.666 116.835V106.92C257.666 106.81 257.721 106.755 257.831 106.755H259.211C259.321 106.755 259.376 106.81 259.376 106.92V116.835C259.376 116.945 259.321 117 259.211 117H257.831ZM264.106 117.165C263.066 117.165 262.291 116.935 261.781 116.475C261.271 116.005 261.016 115.305 261.016 114.375V112.425C261.016 111.455 261.271 110.72 261.781 110.22C262.301 109.71 263.066 109.455 264.076 109.455C265.086 109.455 265.851 109.7 266.371 110.19C266.891 110.68 267.151 111.4 267.151 112.35V113.535C267.151 113.645 267.096 113.7 266.986 113.7H262.696V114.3C262.696 114.82 262.806 115.205 263.026 115.455C263.256 115.695 263.621 115.815 264.121 115.815C264.511 115.815 264.811 115.745 265.021 115.605C265.241 115.455 265.346 115.245 265.336 114.975C265.336 114.865 265.396 114.81 265.516 114.81H266.851C266.941 114.81 266.991 114.86 267.001 114.96C267.021 115.68 266.786 116.23 266.296 116.61C265.806 116.98 265.076 117.165 264.106 117.165ZM262.696 112.575H265.471V112.365C265.471 111.825 265.356 111.43 265.126 111.18C264.906 110.93 264.561 110.805 264.091 110.805C263.621 110.805 263.271 110.935 263.041 111.195C262.811 111.445 262.696 111.835 262.696 112.365V112.575ZM271.214 117.165C270.264 117.165 269.564 116.975 269.114 116.595C268.674 116.205 268.474 115.605 268.514 114.795C268.524 114.685 268.584 114.63 268.694 114.63H269.984C270.084 114.63 270.134 114.685 270.134 114.795C270.134 115.165 270.219 115.44 270.389 115.62C270.569 115.79 270.849 115.875 271.229 115.875C271.619 115.875 271.904 115.81 272.084 115.68C272.274 115.54 272.369 115.335 272.369 115.065C272.369 114.855 272.304 114.68 272.174 114.54C272.054 114.4 271.849 114.265 271.559 114.135L269.924 113.385C269.454 113.165 269.109 112.91 268.889 112.62C268.679 112.32 268.574 111.935 268.574 111.465C268.574 110.795 268.789 110.295 269.219 109.965C269.649 109.625 270.309 109.455 271.199 109.455C272.119 109.455 272.804 109.635 273.254 109.995C273.714 110.355 273.939 110.875 273.929 111.555C273.929 111.665 273.869 111.72 273.749 111.72H272.474C272.354 111.72 272.294 111.645 272.294 111.495C272.304 111.255 272.219 111.07 272.039 110.94C271.869 110.81 271.614 110.745 271.274 110.745C270.934 110.745 270.684 110.805 270.524 110.925C270.364 111.035 270.284 111.21 270.284 111.45C270.284 111.65 270.334 111.805 270.434 111.915C270.544 112.025 270.749 112.15 271.049 112.29L272.669 113.01C273.159 113.24 273.514 113.505 273.734 113.805C273.964 114.105 274.079 114.5 274.079 114.99C274.079 115.7 273.839 116.24 273.359 116.61C272.879 116.98 272.164 117.165 271.214 117.165ZM278.372 117.165C277.822 117.165 277.377 117.08 277.037 116.91C276.707 116.73 276.467 116.455 276.317 116.085C276.167 115.705 276.092 115.22 276.092 114.63V111.075H275.042C274.932 111.075 274.877 111.015 274.877 110.895V109.785C274.877 109.675 274.932 109.62 275.042 109.62H276.137L276.332 107.82C276.342 107.7 276.402 107.64 276.512 107.64H277.637C277.737 107.64 277.787 107.7 277.787 107.82L277.802 109.62H279.782C279.892 109.62 279.947 109.675 279.947 109.785V110.895C279.947 111.015 279.892 111.075 279.782 111.075H277.802V114.525C277.802 114.945 277.872 115.245 278.012 115.425C278.162 115.605 278.407 115.695 278.747 115.695C278.917 115.695 279.087 115.675 279.257 115.635C279.437 115.595 279.607 115.545 279.767 115.485C279.897 115.435 279.962 115.475 279.962 115.605V116.73C279.962 116.82 279.917 116.885 279.827 116.925C279.637 116.995 279.417 117.05 279.167 117.09C278.917 117.14 278.652 117.165 278.372 117.165ZM284.147 117.165C283.137 117.165 282.357 116.915 281.807 116.415C281.267 115.915 280.997 115.175 280.997 114.195V112.41C280.997 111.43 281.267 110.695 281.807 110.205C282.357 109.705 283.137 109.455 284.147 109.455C285.147 109.455 285.922 109.705 286.472 110.205C287.022 110.695 287.297 111.43 287.297 112.41V114.195C287.297 115.175 287.022 115.915 286.472 116.415C285.932 116.915 285.157 117.165 284.147 117.165ZM284.147 115.695C284.637 115.695 284.997 115.565 285.227 115.305C285.467 115.045 285.587 114.635 285.587 114.075V112.56C285.587 112 285.467 111.59 285.227 111.33C284.997 111.07 284.637 110.94 284.147 110.94C283.647 110.94 283.277 111.07 283.037 111.33C282.807 111.59 282.692 112 282.692 112.56V114.075C282.692 114.635 282.807 115.045 283.037 115.305C283.277 115.565 283.647 115.695 284.147 115.695ZM293.531 117C293.411 117 293.351 116.945 293.351 116.835V112.125C293.351 111.715 293.276 111.42 293.126 111.24C292.976 111.05 292.731 110.955 292.391 110.955C292.061 110.955 291.736 111.055 291.416 111.255C291.106 111.445 290.761 111.73 290.381 112.11L290.276 110.94C290.556 110.64 290.836 110.38 291.116 110.16C291.396 109.94 291.691 109.77 292.001 109.65C292.321 109.52 292.666 109.455 293.036 109.455C293.706 109.455 294.211 109.655 294.551 110.055C294.891 110.445 295.061 111.045 295.061 111.855V116.835C295.061 116.945 295.011 117 294.911 117H293.531ZM289.061 117C288.951 117 288.896 116.945 288.896 116.835V111.495C288.896 111.195 288.886 110.895 288.866 110.595C288.846 110.295 288.826 110.035 288.806 109.815C288.786 109.685 288.841 109.62 288.971 109.62H290.186C290.286 109.62 290.346 109.67 290.366 109.77C290.396 109.93 290.421 110.14 290.441 110.4C290.471 110.66 290.491 110.89 290.501 111.09L290.606 111.645V116.835C290.606 116.945 290.551 117 290.441 117H289.061ZM299.804 117.165C298.764 117.165 297.989 116.935 297.479 116.475C296.969 116.005 296.714 115.305 296.714 114.375V112.425C296.714 111.455 296.969 110.72 297.479 110.22C297.999 109.71 298.764 109.455 299.774 109.455C300.784 109.455 301.549 109.7 302.069 110.19C302.589 110.68 302.849 111.4 302.849 112.35V113.535C302.849 113.645 302.794 113.7 302.684 113.7H298.394V114.3C298.394 114.82 298.504 115.205 298.724 115.455C298.954 115.695 299.319 115.815 299.819 115.815C300.209 115.815 300.509 115.745 300.719 115.605C300.939 115.455 301.044 115.245 301.034 114.975C301.034 114.865 301.094 114.81 301.214 114.81H302.549C302.639 114.81 302.689 114.86 302.699 114.96C302.719 115.68 302.484 116.23 301.994 116.61C301.504 116.98 300.774 117.165 299.804 117.165ZM298.394 112.575H301.169V112.365C301.169 111.825 301.054 111.43 300.824 111.18C300.604 110.93 300.259 110.805 299.789 110.805C299.319 110.805 298.969 110.935 298.739 111.195C298.509 111.445 298.394 111.835 298.394 112.365V112.575ZM306.912 117.165C305.962 117.165 305.262 116.975 304.812 116.595C304.372 116.205 304.172 115.605 304.212 114.795C304.222 114.685 304.282 114.63 304.392 114.63H305.682C305.782 114.63 305.832 114.685 305.832 114.795C305.832 115.165 305.917 115.44 306.087 115.62C306.267 115.79 306.547 115.875 306.927 115.875C307.317 115.875 307.602 115.81 307.782 115.68C307.972 115.54 308.067 115.335 308.067 115.065C308.067 114.855 308.002 114.68 307.872 114.54C307.752 114.4 307.547 114.265 307.257 114.135L305.622 113.385C305.152 113.165 304.807 112.91 304.587 112.62C304.377 112.32 304.272 111.935 304.272 111.465C304.272 110.795 304.487 110.295 304.917 109.965C305.347 109.625 306.007 109.455 306.897 109.455C307.817 109.455 308.502 109.635 308.952 109.995C309.412 110.355 309.637 110.875 309.627 111.555C309.627 111.665 309.567 111.72 309.447 111.72H308.172C308.052 111.72 307.992 111.645 307.992 111.495C308.002 111.255 307.917 111.07 307.737 110.94C307.567 110.81 307.312 110.745 306.972 110.745C306.632 110.745 306.382 110.805 306.222 110.925C306.062 111.035 305.982 111.21 305.982 111.45C305.982 111.65 306.032 111.805 306.132 111.915C306.242 112.025 306.447 112.15 306.747 112.29L308.367 113.01C308.857 113.24 309.212 113.505 309.432 113.805C309.662 114.105 309.777 114.5 309.777 114.99C309.777 115.7 309.537 116.24 309.057 116.61C308.577 116.98 307.862 117.165 306.912 117.165Z" fill="#3E2F43"/>
<rect x="362.5" y="31.5" width="82" height="38" rx="15.5" fill="white"/>
<rect x="362.5" y="31.5" width="82" height="38" rx="15.5" stroke="#B657DE"/>
<path d="M379.215 55C379.105 55 379.05 54.945 379.05 54.835V45.34C379.05 45.23 379.105 45.175 379.215 45.175H380.625C380.735 45.175 380.79 45.23 380.79 45.34V54.835C380.79 54.945 380.735 55 380.625 55H379.215ZM387.358 55C387.238 55 387.178 54.945 387.178 54.835V50.125C387.178 49.715 387.103 49.42 386.953 49.24C386.803 49.05 386.558 48.955 386.218 48.955C385.888 48.955 385.563 49.055 385.243 49.255C384.933 49.445 384.588 49.73 384.208 50.11L384.103 48.94C384.383 48.64 384.663 48.38 384.943 48.16C385.223 47.94 385.518 47.77 385.828 47.65C386.148 47.52 386.493 47.455 386.863 47.455C387.533 47.455 388.038 47.655 388.378 48.055C388.718 48.445 388.888 49.045 388.888 49.855V54.835C388.888 54.945 388.838 55 388.738 55H387.358ZM382.888 55C382.778 55 382.723 54.945 382.723 54.835V49.495C382.723 49.195 382.713 48.895 382.693 48.595C382.673 48.295 382.653 48.035 382.633 47.815C382.613 47.685 382.668 47.62 382.798 47.62H384.013C384.113 47.62 384.173 47.67 384.193 47.77C384.223 47.93 384.248 48.14 384.268 48.4C384.298 48.66 384.318 48.89 384.328 49.09L384.433 49.645V54.835C384.433 54.945 384.378 55 384.268 55H382.888ZM393.152 55.165C392.202 55.165 391.502 54.975 391.052 54.595C390.612 54.205 390.412 53.605 390.452 52.795C390.462 52.685 390.522 52.63 390.632 52.63H391.922C392.022 52.63 392.072 52.685 392.072 52.795C392.072 53.165 392.157 53.44 392.327 53.62C392.507 53.79 392.787 53.875 393.167 53.875C393.557 53.875 393.842 53.81 394.022 53.68C394.212 53.54 394.307 53.335 394.307 53.065C394.307 52.855 394.242 52.68 394.112 52.54C393.992 52.4 393.787 52.265 393.497 52.135L391.862 51.385C391.392 51.165 391.047 50.91 390.827 50.62C390.617 50.32 390.512 49.935 390.512 49.465C390.512 48.795 390.727 48.295 391.157 47.965C391.587 47.625 392.247 47.455 393.137 47.455C394.057 47.455 394.742 47.635 395.192 47.995C395.652 48.355 395.877 48.875 395.867 49.555C395.867 49.665 395.807 49.72 395.687 49.72H394.412C394.292 49.72 394.232 49.645 394.232 49.495C394.242 49.255 394.157 49.07 393.977 48.94C393.807 48.81 393.552 48.745 393.212 48.745C392.872 48.745 392.622 48.805 392.462 48.925C392.302 49.035 392.222 49.21 392.222 49.45C392.222 49.65 392.272 49.805 392.372 49.915C392.482 50.025 392.687 50.15 392.987 50.29L394.607 51.01C395.097 51.24 395.452 51.505 395.672 51.805C395.902 52.105 396.017 52.5 396.017 52.99C396.017 53.7 395.777 54.24 395.297 54.61C394.817 54.98 394.102 55.165 393.152 55.165ZM397.639 55C397.529 55 397.474 54.945 397.474 54.835V47.785C397.474 47.675 397.529 47.62 397.639 47.62H399.019C399.129 47.62 399.184 47.675 399.184 47.785V54.835C399.184 54.945 399.129 55 399.019 55H397.639ZM398.344 46.555C398.014 46.555 397.764 46.47 397.594 46.3C397.424 46.12 397.339 45.895 397.339 45.625V45.4C397.339 45.12 397.424 44.9 397.594 44.74C397.764 44.57 398.014 44.485 398.344 44.485C398.674 44.485 398.919 44.57 399.079 44.74C399.249 44.9 399.334 45.12 399.334 45.4V45.625C399.334 45.895 399.249 46.12 399.079 46.3C398.919 46.47 398.674 46.555 398.344 46.555ZM403.72 57.94C402.57 57.94 401.735 57.79 401.215 57.49C400.695 57.19 400.435 56.73 400.435 56.11C400.435 55.71 400.53 55.36 400.72 55.06C400.92 54.77 401.22 54.525 401.62 54.325L402.925 54.73C402.665 54.83 402.47 54.965 402.34 55.135C402.22 55.305 402.16 55.51 402.16 55.75C402.16 56.06 402.285 56.28 402.535 56.41C402.785 56.54 403.21 56.605 403.81 56.605C404.48 56.615 404.93 56.55 405.16 56.41C405.4 56.28 405.52 56.05 405.52 55.72C405.52 55.47 405.46 55.285 405.34 55.165C405.23 55.045 405.03 54.98 404.74 54.97L402.28 54.805C401.88 54.785 401.555 54.66 401.305 54.43C401.065 54.19 400.945 53.855 400.945 53.425C400.945 53.095 401.025 52.81 401.185 52.57C401.345 52.33 401.605 52.095 401.965 51.865L402.985 52.33C402.785 52.41 402.64 52.51 402.55 52.63C402.46 52.74 402.415 52.865 402.415 53.005C402.415 53.135 402.46 53.235 402.55 53.305C402.64 53.375 402.805 53.42 403.045 53.44L405.235 53.59C405.925 53.64 406.42 53.84 406.72 54.19C407.03 54.53 407.185 55.04 407.185 55.72C407.185 56.5 406.915 57.065 406.375 57.415C405.835 57.765 404.95 57.94 403.72 57.94ZM403.87 52.585C402.91 52.585 402.205 52.375 401.755 51.955C401.305 51.535 401.08 50.895 401.08 50.035C401.08 49.155 401.305 48.505 401.755 48.085C402.215 47.665 402.925 47.455 403.885 47.455C404.835 47.455 405.535 47.67 405.985 48.1C406.435 48.52 406.66 49.165 406.66 50.035C406.66 50.905 406.435 51.55 405.985 51.97C405.535 52.38 404.83 52.585 403.87 52.585ZM403.87 51.28C404.3 51.28 404.6 51.185 404.77 50.995C404.94 50.805 405.025 50.48 405.025 50.02C405.025 49.57 404.94 49.25 404.77 49.06C404.6 48.87 404.3 48.775 403.87 48.775C403.44 48.775 403.14 48.87 402.97 49.06C402.8 49.25 402.715 49.57 402.715 50.02C402.715 50.48 402.8 50.805 402.97 50.995C403.14 51.185 403.44 51.28 403.87 51.28ZM405.76 48.235L404.545 47.77C404.575 47.37 404.61 47.01 404.65 46.69C404.69 46.37 404.735 46.095 404.785 45.865C404.805 45.755 404.855 45.7 404.935 45.7H406.075C406.205 45.7 406.255 45.76 406.225 45.88C406.115 46.22 406.025 46.575 405.955 46.945C405.885 47.315 405.82 47.745 405.76 48.235ZM413.066 55C412.946 55 412.886 54.945 412.886 54.835V50.125C412.886 49.725 412.811 49.43 412.661 49.24C412.511 49.05 412.266 48.955 411.926 48.955C411.596 48.955 411.266 49.055 410.936 49.255C410.606 49.455 410.271 49.74 409.931 50.11L409.841 48.925C410.111 48.625 410.386 48.37 410.666 48.16C410.946 47.94 411.241 47.77 411.551 47.65C411.871 47.52 412.211 47.455 412.571 47.455C413.241 47.455 413.746 47.655 414.086 48.055C414.426 48.445 414.596 49.045 414.596 49.855V54.835C414.596 54.945 414.546 55 414.446 55H413.066ZM408.596 55C408.486 55 408.431 54.945 408.431 54.835V44.92C408.431 44.81 408.486 44.755 408.596 44.755H409.976C410.086 44.755 410.141 44.81 410.141 44.92V54.835C410.141 54.945 410.086 55 409.976 55H408.596ZM419.323 55.165C418.773 55.165 418.328 55.08 417.988 54.91C417.658 54.73 417.418 54.455 417.268 54.085C417.118 53.705 417.043 53.22 417.043 52.63V49.075H415.993C415.883 49.075 415.828 49.015 415.828 48.895V47.785C415.828 47.675 415.883 47.62 415.993 47.62H417.088L417.283 45.82C417.293 45.7 417.353 45.64 417.463 45.64H418.588C418.688 45.64 418.738 45.7 418.738 45.82L418.753 47.62H420.733C420.843 47.62 420.898 47.675 420.898 47.785V48.895C420.898 49.015 420.843 49.075 420.733 49.075H418.753V52.525C418.753 52.945 418.823 53.245 418.963 53.425C419.113 53.605 419.358 53.695 419.698 53.695C419.868 53.695 420.038 53.675 420.208 53.635C420.388 53.595 420.558 53.545 420.718 53.485C420.848 53.435 420.913 53.475 420.913 53.605V54.73C420.913 54.82 420.868 54.885 420.778 54.925C420.588 54.995 420.368 55.05 420.118 55.09C419.868 55.14 419.603 55.165 419.323 55.165ZM424.675 55.165C423.725 55.165 423.025 54.975 422.575 54.595C422.135 54.205 421.935 53.605 421.975 52.795C421.985 52.685 422.045 52.63 422.155 52.63H423.445C423.545 52.63 423.595 52.685 423.595 52.795C423.595 53.165 423.68 53.44 423.85 53.62C424.03 53.79 424.31 53.875 424.69 53.875C425.08 53.875 425.365 53.81 425.545 53.68C425.735 53.54 425.83 53.335 425.83 53.065C425.83 52.855 425.765 52.68 425.635 52.54C425.515 52.4 425.31 52.265 425.02 52.135L423.385 51.385C422.915 51.165 422.57 50.91 422.35 50.62C422.14 50.32 422.035 49.935 422.035 49.465C422.035 48.795 422.25 48.295 422.68 47.965C423.11 47.625 423.77 47.455 424.66 47.455C425.58 47.455 426.265 47.635 426.715 47.995C427.175 48.355 427.4 48.875 427.39 49.555C427.39 49.665 427.33 49.72 427.21 49.72H425.935C425.815 49.72 425.755 49.645 425.755 49.495C425.765 49.255 425.68 49.07 425.5 48.94C425.33 48.81 425.075 48.745 424.735 48.745C424.395 48.745 424.145 48.805 423.985 48.925C423.825 49.035 423.745 49.21 423.745 49.45C423.745 49.65 423.795 49.805 423.895 49.915C424.005 50.025 424.21 50.15 424.51 50.29L426.13 51.01C426.62 51.24 426.975 51.505 427.195 51.805C427.425 52.105 427.54 52.5 427.54 52.99C427.54 53.7 427.3 54.24 426.82 54.61C426.34 54.98 425.625 55.165 424.675 55.165Z" fill="#3E2F43"/>
<rect x="654.5" y="0.5" width="112" height="38" rx="15.5" fill="white"/>
<rect x="654.5" y="0.5" width="112" height="38" rx="15.5" stroke="#B657DE"/>
<path d="M671.215 24C671.105 24 671.05 23.945 671.05 23.835V14.34C671.05 14.23 671.105 14.175 671.215 14.175H674.05C676.33 14.175 677.47 14.985 677.47 16.605C677.47 17.175 677.345 17.635 677.095 17.985C676.845 18.325 676.45 18.595 675.91 18.795V18.84C676.54 18.96 677.025 19.22 677.365 19.62C677.705 20.01 677.875 20.535 677.875 21.195C677.875 22.165 677.575 22.875 676.975 23.325C676.375 23.775 675.41 24 674.08 24H671.215ZM672.79 22.545H674.11C674.83 22.545 675.345 22.43 675.655 22.2C675.975 21.97 676.135 21.595 676.135 21.075C676.135 20.575 675.975 20.21 675.655 19.98C675.335 19.75 674.835 19.635 674.155 19.635H672.79V22.545ZM672.79 18.315H674.065C674.625 18.315 675.04 18.2 675.31 17.97C675.59 17.73 675.73 17.38 675.73 16.92C675.73 16.47 675.585 16.14 675.295 15.93C675.015 15.72 674.56 15.615 673.93 15.615H672.79V18.315ZM683.595 24C683.505 24 683.445 23.94 683.415 23.82C683.395 23.69 683.37 23.505 683.34 23.265C683.31 23.025 683.29 22.795 683.28 22.575L683.16 22.065V18.93C683.16 18.51 683.08 18.215 682.92 18.045C682.76 17.875 682.485 17.79 682.095 17.79C681.365 17.79 681.01 18.085 681.03 18.675C681.03 18.785 680.98 18.84 680.88 18.84H679.575C679.475 18.84 679.42 18.76 679.41 18.6C679.36 17.92 679.57 17.395 680.04 17.025C680.52 16.645 681.225 16.455 682.155 16.455C683.085 16.455 683.77 16.655 684.21 17.055C684.65 17.455 684.87 18.09 684.87 18.96V22.14C684.87 22.48 684.875 22.79 684.885 23.07C684.905 23.34 684.93 23.59 684.96 23.82C684.98 23.94 684.925 24 684.795 24H683.595ZM680.865 24.165C680.295 24.165 679.855 23.99 679.545 23.64C679.235 23.28 679.08 22.77 679.08 22.11C679.08 21.6 679.175 21.185 679.365 20.865C679.555 20.535 679.86 20.28 680.28 20.1C680.71 19.91 681.28 19.785 681.99 19.725L683.355 19.59V20.625L682.185 20.73C681.645 20.78 681.27 20.895 681.06 21.075C680.85 21.255 680.745 21.535 680.745 21.915C680.745 22.225 680.805 22.455 680.925 22.605C681.045 22.755 681.23 22.83 681.48 22.83C681.77 22.83 682.06 22.735 682.35 22.545C682.65 22.355 683.005 22.025 683.415 21.555L683.505 22.665C683.055 23.155 682.625 23.53 682.215 23.79C681.815 24.04 681.365 24.165 680.865 24.165ZM689.721 24.165C689.181 24.165 688.681 24.12 688.221 24.03C687.771 23.94 687.256 23.875 686.676 23.835V13.92C686.676 13.81 686.731 13.755 686.841 13.755H688.221C688.331 13.755 688.386 13.81 688.386 13.92V22.605C688.576 22.635 688.771 22.665 688.971 22.695C689.181 22.725 689.376 22.74 689.556 22.74C690.056 22.74 690.426 22.61 690.666 22.35C690.916 22.08 691.041 21.675 691.041 21.135V19.26C691.041 18.81 690.961 18.48 690.801 18.27C690.641 18.06 690.391 17.955 690.051 17.955C689.771 17.955 689.481 18.035 689.181 18.195C688.891 18.355 688.546 18.62 688.146 18.99L688.176 17.655C688.606 17.245 689.026 16.945 689.436 16.755C689.846 16.555 690.266 16.455 690.696 16.455C691.386 16.455 691.901 16.66 692.241 17.07C692.581 17.48 692.751 18.11 692.751 18.96V21.27C692.751 22.24 692.501 22.965 692.001 23.445C691.501 23.925 690.741 24.165 689.721 24.165ZM695.419 26.775C695.359 26.775 695.314 26.755 695.284 26.715C695.264 26.675 695.264 26.63 695.284 26.58L696.244 23.955L693.649 16.815C693.609 16.685 693.649 16.62 693.769 16.62H695.269C695.379 16.62 695.444 16.665 695.464 16.755L696.469 19.86C696.569 20.18 696.664 20.515 696.754 20.865C696.854 21.215 696.944 21.565 697.024 21.915H697.069C697.149 21.565 697.239 21.215 697.339 20.865C697.439 20.515 697.534 20.185 697.624 19.875L698.644 16.755C698.654 16.665 698.714 16.62 698.824 16.62H700.294C700.434 16.62 700.479 16.685 700.429 16.815L696.949 26.64C696.919 26.73 696.854 26.775 696.754 26.775H695.419ZM706.813 24C706.713 24 706.663 23.945 706.663 23.835V15.72H704.188C704.078 15.72 704.023 15.665 704.023 15.555V14.34C704.023 14.23 704.078 14.175 704.188 14.175H710.878C710.988 14.175 711.043 14.23 711.043 14.34V15.555C711.043 15.665 710.988 15.72 710.878 15.72H708.403V23.835C708.403 23.945 708.348 24 708.238 24H706.813ZM711.48 24C711.37 24 711.315 23.945 711.315 23.835V18.465C711.315 18.165 711.31 17.88 711.3 17.61C711.29 17.33 711.265 17.06 711.225 16.8C711.215 16.68 711.27 16.62 711.39 16.62H712.605C712.705 16.62 712.765 16.67 712.785 16.77C712.815 16.95 712.84 17.155 712.86 17.385C712.89 17.615 712.905 17.83 712.905 18.03L713.025 18.78V23.835C713.025 23.945 712.97 24 712.86 24H711.48ZM712.875 19.455L712.77 17.97C712.97 17.69 713.195 17.435 713.445 17.205C713.695 16.975 713.95 16.795 714.21 16.665C714.48 16.525 714.74 16.455 714.99 16.455C715.15 16.455 715.28 16.47 715.38 16.5C715.46 16.53 715.5 16.595 715.5 16.695C715.52 16.915 715.525 17.16 715.515 17.43C715.515 17.69 715.5 17.935 715.47 18.165C715.46 18.285 715.395 18.33 715.275 18.3C715.215 18.29 715.14 18.28 715.05 18.27C714.97 18.26 714.885 18.255 714.795 18.255C714.575 18.255 714.35 18.305 714.12 18.405C713.9 18.505 713.68 18.645 713.46 18.825C713.25 18.995 713.055 19.205 712.875 19.455ZM720.612 24C720.522 24 720.462 23.94 720.432 23.82C720.412 23.69 720.387 23.505 720.357 23.265C720.327 23.025 720.307 22.795 720.297 22.575L720.177 22.065V18.93C720.177 18.51 720.097 18.215 719.937 18.045C719.777 17.875 719.502 17.79 719.112 17.79C718.382 17.79 718.027 18.085 718.047 18.675C718.047 18.785 717.997 18.84 717.897 18.84H716.592C716.492 18.84 716.437 18.76 716.427 18.6C716.377 17.92 716.587 17.395 717.057 17.025C717.537 16.645 718.242 16.455 719.172 16.455C720.102 16.455 720.787 16.655 721.227 17.055C721.667 17.455 721.887 18.09 721.887 18.96V22.14C721.887 22.48 721.892 22.79 721.902 23.07C721.922 23.34 721.947 23.59 721.977 23.82C721.997 23.94 721.942 24 721.812 24H720.612ZM717.882 24.165C717.312 24.165 716.872 23.99 716.562 23.64C716.252 23.28 716.097 22.77 716.097 22.11C716.097 21.6 716.192 21.185 716.382 20.865C716.572 20.535 716.877 20.28 717.297 20.1C717.727 19.91 718.297 19.785 719.007 19.725L720.372 19.59V20.625L719.202 20.73C718.662 20.78 718.287 20.895 718.077 21.075C717.867 21.255 717.762 21.535 717.762 21.915C717.762 22.225 717.822 22.455 717.942 22.605C718.062 22.755 718.247 22.83 718.497 22.83C718.787 22.83 719.077 22.735 719.367 22.545C719.667 22.355 720.022 22.025 720.432 21.555L720.522 22.665C720.072 23.155 719.642 23.53 719.232 23.79C718.832 24.04 718.382 24.165 717.882 24.165ZM726.648 24.165C725.638 24.165 724.863 23.915 724.323 23.415C723.793 22.905 723.528 22.17 723.528 21.21V19.41C723.528 18.46 723.798 17.73 724.338 17.22C724.878 16.71 725.648 16.455 726.648 16.455C727.288 16.455 727.828 16.565 728.268 16.785C728.718 16.995 729.058 17.285 729.288 17.655C729.518 18.025 729.618 18.45 729.588 18.93C729.588 19.11 729.528 19.2 729.408 19.2H728.133C728.023 19.2 727.968 19.135 727.968 19.005C727.968 18.655 727.853 18.39 727.623 18.21C727.393 18.03 727.073 17.94 726.663 17.94C726.183 17.94 725.823 18.065 725.583 18.315C725.343 18.565 725.223 18.975 725.223 19.545V21.075C725.223 21.635 725.343 22.045 725.583 22.305C725.823 22.555 726.183 22.68 726.663 22.68C727.093 22.68 727.413 22.585 727.623 22.395C727.843 22.205 727.953 21.94 727.953 21.6C727.953 21.47 728.008 21.405 728.118 21.405H729.408C729.518 21.405 729.573 21.46 729.573 21.57C729.593 22.38 729.353 23.015 728.853 23.475C728.363 23.935 727.628 24.165 726.648 24.165ZM731.373 24C731.263 24 731.208 23.945 731.208 23.835V13.92C731.208 13.81 731.263 13.755 731.373 13.755H732.753C732.863 13.755 732.918 13.81 732.918 13.92V17.655C732.918 17.995 732.913 18.345 732.903 18.705C732.903 19.055 732.893 19.405 732.873 19.755H732.903C733.063 19.525 733.223 19.3 733.383 19.08C733.553 18.85 733.728 18.625 733.908 18.405L735.318 16.71C735.358 16.65 735.423 16.62 735.513 16.62H737.223C737.283 16.62 737.323 16.64 737.343 16.68C737.363 16.72 737.348 16.77 737.298 16.83L734.943 19.62L737.523 23.79C737.553 23.85 737.553 23.9 737.523 23.94C737.503 23.98 737.463 24 737.403 24H735.798C735.708 24 735.638 23.965 735.588 23.895L733.743 20.85L732.918 21.765V23.835C732.918 23.945 732.863 24 732.753 24H731.373ZM741.281 24.165C740.241 24.165 739.466 23.935 738.956 23.475C738.446 23.005 738.191 22.305 738.191 21.375V19.425C738.191 18.455 738.446 17.72 738.956 17.22C739.476 16.71 740.241 16.455 741.251 16.455C742.261 16.455 743.026 16.7 743.546 17.19C744.066 17.68 744.326 18.4 744.326 19.35V20.535C744.326 20.645 744.271 20.7 744.161 20.7H739.871V21.3C739.871 21.82 739.981 22.205 740.201 22.455C740.431 22.695 740.796 22.815 741.296 22.815C741.686 22.815 741.986 22.745 742.196 22.605C742.416 22.455 742.521 22.245 742.511 21.975C742.511 21.865 742.571 21.81 742.691 21.81H744.026C744.116 21.81 744.166 21.86 744.176 21.96C744.196 22.68 743.961 23.23 743.471 23.61C742.981 23.98 742.251 24.165 741.281 24.165ZM739.871 19.575H742.646V19.365C742.646 18.825 742.531 18.43 742.301 18.18C742.081 17.93 741.736 17.805 741.266 17.805C740.796 17.805 740.446 17.935 740.216 18.195C739.986 18.445 739.871 18.835 739.871 19.365V19.575ZM746.109 24C745.999 24 745.944 23.945 745.944 23.835V18.465C745.944 18.165 745.939 17.88 745.929 17.61C745.919 17.33 745.894 17.06 745.854 16.8C745.844 16.68 745.899 16.62 746.019 16.62H747.234C747.334 16.62 747.394 16.67 747.414 16.77C747.444 16.95 747.469 17.155 747.489 17.385C747.519 17.615 747.534 17.83 747.534 18.03L747.654 18.78V23.835C747.654 23.945 747.599 24 747.489 24H746.109ZM747.504 19.455L747.399 17.97C747.599 17.69 747.824 17.435 748.074 17.205C748.324 16.975 748.579 16.795 748.839 16.665C749.109 16.525 749.369 16.455 749.619 16.455C749.779 16.455 749.909 16.47 750.009 16.5C750.089 16.53 750.129 16.595 750.129 16.695C750.149 16.915 750.154 17.16 750.144 17.43C750.144 17.69 750.129 17.935 750.099 18.165C750.089 18.285 750.024 18.33 749.904 18.3C749.844 18.29 749.769 18.28 749.679 18.27C749.599 18.26 749.514 18.255 749.424 18.255C749.204 18.255 748.979 18.305 748.749 18.405C748.529 18.505 748.309 18.645 748.089 18.825C747.879 18.995 747.684 19.205 747.504 19.455Z" fill="#3E2F43"/>
</svg>
