<svg width="21" height="24" viewBox="0 0 21 24" fill="none" xmlns="http://www.w3.org/2000/svg">
<path d="M16.8897 12.7632C16.9016 11.8433 17.1476 10.9414 17.6048 10.1413C18.0619 9.34118 18.7154 8.66894 19.5043 8.18712C19.0031 7.47607 18.3419 6.8909 17.5732 6.47809C16.8045 6.06529 15.9495 5.83622 15.0761 5.80907C13.213 5.61481 11.4067 6.91653 10.4573 6.91653C9.48951 6.91653 8.02773 5.82836 6.45364 5.86053C5.43547 5.89321 4.44318 6.18731 3.57346 6.7142C2.70374 7.24108 1.98625 7.98277 1.49089 8.867C-0.654903 12.5574 0.945665 17.9811 3.00115 20.9641C4.02956 22.4248 5.23147 24.0565 6.80414 23.9986C8.3431 23.9352 8.91787 23.0238 10.7755 23.0238C12.6159 23.0238 13.1552 23.9986 14.7598 23.9618C16.4111 23.9352 17.4516 22.4946 18.4439 21.0201C19.1828 19.9793 19.7514 18.8289 20.1286 17.6117C19.1692 17.2086 18.3505 16.5339 17.7745 15.6717C17.1985 14.8095 16.8908 13.798 16.8897 12.7632Z" fill="#F6F4F6"/>
<path d="M13.8589 3.84712C14.7593 2.77342 15.2029 1.39335 15.0955 0C13.7199 0.14352 12.4492 0.796599 11.5367 1.82911C11.0905 2.33352 10.7487 2.92033 10.531 3.55601C10.3133 4.19169 10.2238 4.86376 10.2677 5.53381C10.9557 5.54084 11.6364 5.3927 12.2585 5.10054C12.8806 4.80838 13.4278 4.37982 13.8589 3.84712Z" fill="#F6F4F6"/>
</svg>
