<svg width="23" height="24" viewBox="0 0 23 24" fill="none" xmlns="http://www.w3.org/2000/svg">
<path fill-rule="evenodd" clip-rule="evenodd" d="M1.04143 23.664L11.5744 13.1625L15.2854 16.8645L2.76643 23.805C2.29093 24.069 1.70743 24.0645 1.23493 23.7945L1.04143 23.664ZM10.5124 12.1035L0.471436 22.1145V2.09253L10.5124 12.1035ZM16.7854 7.96651L21.6904 10.686C22.1734 10.9545 22.4719 11.4555 22.4719 12C22.4719 12.5445 22.1734 13.0455 21.6904 13.314L16.6504 16.107L12.6364 12.1035L16.7854 7.96651ZM0.930434 0.433538L1.23493 0.205539C1.70743 -0.0644603 2.29093 -0.0689602 2.76643 0.195039L15.4204 7.21052L11.5744 11.0445L0.930434 0.433538Z" fill="#F6F4F6"/>
</svg>
