<svg width="128" height="40" viewBox="0 0 128 40" fill="none" xmlns="http://www.w3.org/2000/svg">
<g id="Google_logo" clip-path="url(#clip0_12987_62005)">
<g id="Group">
<path id="Vector" d="M16.3322 14.2727V18.5455H26.6049C26.3322 20.9091 25.514 22.7273 24.2413 23.9091C22.7867 25.3636 20.4231 27 16.3322 27C10.0595 27 5.15037 21.9091 5.15037 15.6364C5.15037 9.36364 9.96855 4.27273 16.3322 4.27273C19.6958 4.27273 22.2413 5.63636 24.0595 7.36364L27.0595 4.36364C24.514 1.90909 21.0595 0 16.3322 0C7.69582 0 0.423096 7 0.423096 15.6364C0.423096 24.2727 7.69582 31.2727 16.3322 31.2727C20.9686 31.2727 24.514 29.7273 27.2413 26.9091C30.0595 24.0909 30.9685 20.0909 30.9685 16.9091C30.9685 15.9091 30.8776 15 30.7867 14.2727H16.3322Z" fill="#7B6E7F"/>
<path id="Vector_2" d="M43.6957 10.7273C38.1503 10.7273 33.5139 15 33.5139 20.8182C33.5139 26.6364 38.0594 30.9091 43.6957 30.9091C49.3321 30.9091 53.8776 26.7273 53.8776 20.9091C53.8776 15 49.3321 10.7273 43.6957 10.7273ZM43.6957 27C40.6048 27 37.9685 24.4545 37.9685 20.9091C37.9685 17.2727 40.6048 14.8182 43.6957 14.8182C46.7866 14.8182 49.423 17.2727 49.423 20.9091C49.423 24.4545 46.7866 27 43.6957 27Z" fill="#7B6E7F"/>
<path id="Vector_3" d="M93.4231 13H93.2413C92.2413 11.8182 90.3322 10.7273 87.8776 10.7273C82.7867 10.7273 78.4231 15.0909 78.4231 20.8182C78.4231 26.4545 82.7867 30.9091 87.8776 30.9091C90.3322 30.9091 92.2413 29.8182 93.2413 28.6364H93.4231V30.0909C93.4231 33.9091 91.3322 36 88.0595 36C85.3322 36 83.6958 34.0909 82.9686 32.3636L79.1504 34C80.2413 36.6364 83.2413 40 88.1504 40C93.3322 40 97.7867 36.9091 97.7867 29.4545V11.2727H93.6049V13H93.4231ZM88.3322 27C85.2413 27 82.9686 24.3636 82.9686 20.9091C82.9686 17.3636 85.3322 14.8182 88.3322 14.8182C91.3322 14.8182 93.6958 17.4545 93.6958 21C93.7867 24.4545 91.4231 27 88.3322 27Z" fill="#7B6E7F"/>
<path id="Vector_4" d="M66.3322 10.7273C60.7868 10.7273 56.1504 15 56.1504 20.8182C56.1504 26.6364 60.6958 30.9091 66.3322 30.9091C71.9686 30.9091 76.514 26.7273 76.514 20.9091C76.514 15 71.9686 10.7273 66.3322 10.7273ZM66.3322 27C63.2413 27 60.6049 24.4545 60.6049 20.9091C60.6049 17.2727 63.2413 14.8182 66.3322 14.8182C69.4231 14.8182 72.0595 17.2727 72.0595 20.9091C72.0595 24.4545 69.4231 27 66.3322 27Z" fill="#7B6E7F"/>
<path id="Vector_5" d="M101.15 0.454559H105.514V31H101.15V0.454559Z" fill="#7B6E7F"/>
<path id="Vector_6" d="M118.968 27C116.696 27 115.15 26 114.059 23.9091L127.605 18.3636L127.15 17.1818C126.332 14.9091 123.696 10.7273 118.514 10.7273C113.332 10.7273 108.969 14.8182 108.969 20.8182C108.969 26.4545 113.241 30.9091 118.968 30.9091C123.605 30.9091 126.241 28.0909 127.423 26.4545L123.968 24.1818C122.787 25.9091 121.241 27 118.968 27ZM118.696 14.5454C120.514 14.5454 122.059 15.4545 122.514 16.7273L113.423 20.5454C113.332 16.3636 116.423 14.5454 118.696 14.5454Z" fill="#7B6E7F"/>
</g>
</g>
<defs>
<clipPath id="clip0_12987_62005">
<rect width="127.182" height="40" fill="white" transform="translate(0.423096)"/>
</clipPath>
</defs>
</svg>
