<svg width="141" height="40" viewBox="0 0 141 40" fill="none" xmlns="http://www.w3.org/2000/svg">
<g id="mcgill-university-logo-svg-vector 1">
<g id="Group 2">
<path id="Vector" fill-rule="evenodd" clip-rule="evenodd" d="M4.4666 18.6574C3.24936 14.3967 3.96579 10.4226 3.96579 5.66037C8.22648 3.51176 12.4872 3.33334 17.0696 3.33334C21.0437 3.33334 26.6649 3.83484 30.0301 5.66037C30.3883 10.136 30.6032 14.1101 29.4211 19.2298C28.2755 24.3503 24.9104 31.4395 17.2122 36.6667C8.83407 31.1529 6.1137 24.5294 4.4666 18.6574Z" fill="white"/>
<g id="Union">
<path fill-rule="evenodd" clip-rule="evenodd" d="M17.7142 9.81361H18.0008C18.2515 9.81361 18.2874 9.59868 18.2874 9.45539C18.2874 9.31211 18.2515 9.133 18.0008 9.133H17.7142V9.81361ZM17.8568 9.24116H18.0001C18.0717 9.24116 18.1434 9.27698 18.1434 9.45608C18.1434 9.59937 18.1076 9.70683 18.0001 9.70683H17.8568V9.24116Z" fill="#7B6E7F"/>
<path fill-rule="evenodd" clip-rule="evenodd" d="M18.4658 9.56355C18.4658 9.92176 18.7165 9.95759 18.824 9.95759C18.8956 9.95759 19.1464 9.92176 19.1464 9.56355C19.1464 9.24115 18.8963 9.20533 18.824 9.20533C18.7165 9.20533 18.4658 9.24115 18.4658 9.56355ZM18.6449 9.56355C18.6449 9.38444 18.7165 9.34862 18.824 9.34862C18.8956 9.34862 19.0031 9.38444 19.0031 9.56355C19.0031 9.77848 18.8956 9.8143 18.824 9.8143C18.7165 9.81361 18.6449 9.77848 18.6449 9.56355Z" fill="#7B6E7F"/>
<path d="M18.0717 8.16719H18.3941V8.02391H18.0717V7.88063H18.43V7.77316H17.9285V8.45308H18.0717V8.16719Z" fill="#7B6E7F"/>
<path d="M18.6091 8.45308H18.7524V7.77316H18.6091V8.45308Z" fill="#7B6E7F"/>
<path d="M17.9643 6.52009C17.9643 6.41263 17.8568 6.26934 17.6777 6.26934C17.4628 6.26934 17.3553 6.41263 17.3553 6.62756C17.3553 6.87831 17.4628 7.0216 17.6777 7.0216C17.821 7.0216 17.9285 6.91413 17.9643 6.77085H17.821C17.7852 6.84249 17.7493 6.87831 17.6777 6.87831C17.5344 6.87831 17.4986 6.77085 17.4986 6.62756C17.4986 6.44914 17.6061 6.41263 17.6777 6.41263C17.7556 6.41263 17.777 6.45029 17.7966 6.48466C17.804 6.49769 17.8111 6.51024 17.821 6.52009H17.9643Z" fill="#7B6E7F"/>
<path fill-rule="evenodd" clip-rule="evenodd" d="M18.0717 6.73502C18.0717 7.05742 18.3225 7.09324 18.43 7.09324C18.5016 7.09324 18.7524 7.05742 18.7524 6.73502C18.7524 6.41263 18.5016 6.37681 18.43 6.37681C18.3225 6.37681 18.0717 6.41263 18.0717 6.73502ZM18.2508 6.73502C18.2508 6.5201 18.3583 6.48428 18.43 6.48428C18.5016 6.48428 18.6091 6.5201 18.6091 6.73502C18.6091 6.91413 18.5016 6.98577 18.43 6.98577C18.3583 6.98509 18.2508 6.91344 18.2508 6.73502Z" fill="#7B6E7F"/>
<path d="M19.289 6.87831L19.0382 6.37681H18.8591V7.09255H19.0024V6.59105L19.289 7.09255H19.4323V6.37681H19.289V6.87831Z" fill="#7B6E7F"/>
<path fill-rule="evenodd" clip-rule="evenodd" d="M15.7447 9.45608C15.7447 9.8143 15.9955 9.84943 16.1029 9.84943C16.1746 9.84943 16.4246 9.81361 16.4246 9.45608C16.4246 9.13369 16.1746 9.09787 16.1029 9.09787C15.9955 9.09787 15.7447 9.13369 15.7447 9.45608ZM15.888 9.45608C15.888 9.27698 16.0313 9.24116 16.1029 9.24116C16.1746 9.24116 16.2821 9.27698 16.2821 9.45608C16.2821 9.67101 16.1746 9.74266 16.1029 9.74266C16.0313 9.74266 15.888 9.67032 15.888 9.45608Z" fill="#7B6E7F"/>
<path d="M15.4582 9.63519L15.2074 9.13369H15.0283V9.84943H15.1716V9.34793L15.4582 9.84943H15.6014V9.13369H15.4582V9.63519Z" fill="#7B6E7F"/>
<path d="M14.7424 9.92177H14.8857V9.20533H14.7424V9.92177Z" fill="#7B6E7F"/>
<path d="M16.5321 7.59406H16.3172L16.2097 8.13069L16.0664 7.59406H15.8515V8.31048H15.9948V7.73734L16.1381 8.31048H16.2814L16.4246 7.73734V8.31048H16.5321V7.59406Z" fill="#7B6E7F"/>
<path fill-rule="evenodd" clip-rule="evenodd" d="M15.0999 8.02391C15.0999 8.3463 15.3149 8.38213 15.4223 8.38213C15.494 8.38213 15.7447 8.3463 15.7447 8.02391C15.7447 7.70151 15.494 7.6657 15.4223 7.6657C15.3149 7.6657 15.0999 7.70151 15.0999 8.02391ZM15.2432 8.02391C15.2432 7.80898 15.3507 7.77316 15.4223 7.77316C15.494 7.77316 15.6014 7.80898 15.6014 8.02391C15.6014 8.20302 15.494 8.27466 15.4223 8.27466C15.3507 8.27398 15.2432 8.20233 15.2432 8.02391Z" fill="#7B6E7F"/>
<path fill-rule="evenodd" clip-rule="evenodd" d="M14.42 8.45308H14.7066C14.9573 8.45308 14.9932 8.20233 14.9932 8.09487C14.9932 7.95158 14.9573 7.73665 14.7424 7.73665H14.42V8.45308ZM14.5633 7.84481H14.7066C14.7782 7.84481 14.8499 7.88063 14.8499 8.09556C14.8499 8.20302 14.8134 8.31048 14.7066 8.31048H14.5633V7.84481Z" fill="#7B6E7F"/>
<path d="M15.7447 6.77015L15.4582 6.26866H15.3149V6.94926H15.4223V6.48359L15.7089 6.94926H15.8522V6.26866H15.7447V6.77015Z" fill="#7B6E7F"/>
<path d="M14.9573 6.98509H15.1006V6.30448H14.9573V6.98509Z" fill="#7B6E7F"/>
<path fill-rule="evenodd" clip-rule="evenodd" d="M8.30039 20.3698C8.34998 20.2257 8.40079 20.0779 8.44057 20.0179C8.36892 19.8739 8.26146 19.7307 8.11817 19.7307C8.14483 19.6773 8.19132 19.6191 8.23735 19.5614C8.31504 19.464 8.39142 19.3683 8.36892 19.3008C8.34515 19.2057 8.2898 19.1895 8.18195 19.1579C8.12731 19.1419 8.0592 19.122 7.97489 19.0859C8.04653 18.9068 8.26146 18.7993 8.3331 18.7993C8.39819 18.783 8.43371 18.7372 8.47653 18.6819C8.52798 18.6155 8.58997 18.5355 8.72645 18.4769C8.94138 18.3336 9.19213 18.3336 9.44288 18.3336C9.83692 18.3694 10.8392 18.656 10.5892 19.8726C10.9802 20.7034 12.104 20.201 13.0061 19.7977C13.4263 19.6098 13.7985 19.4434 14.026 19.4434L14.0206 19.4541C13.8791 19.7365 13.7372 20.0197 13.5603 20.2666C13.7024 20.3618 13.8602 20.3311 14.0233 20.2994C14.1068 20.2831 14.1918 20.2666 14.2767 20.2666C14.0357 20.9208 13.6623 21.211 13.348 21.4552C13.3353 21.465 13.3227 21.4748 13.3102 21.4845C13.5801 22.4134 14.5019 22.2632 15.467 22.1059C15.655 22.0753 15.8446 22.0444 16.0313 22.0212C15.95 22.2244 15.7649 22.3352 15.5808 22.4453C15.4405 22.5293 15.3008 22.6129 15.2081 22.7369C15.6014 23.1309 16.0313 23.6683 16.282 24.2049C15.8842 23.9497 15.1485 23.6719 14.6829 23.4961C14.5617 23.4503 14.4587 23.4114 14.3849 23.3817C13.7401 23.1316 12.3437 23.1316 11.6638 23.3817C11.7677 23.5895 11.9278 23.7031 12.0899 23.8182C12.1513 23.8618 12.213 23.9056 12.2721 23.9548C12.0023 24.4945 11.457 24.306 11.0553 24.1672C10.977 24.1401 10.9042 24.115 10.8399 24.0974C10.4817 24.3489 9.83692 24.3489 9.69432 24.2049C9.69432 24.2049 9.69432 24.0623 9.87343 23.8832C9.94886 23.7889 9.83568 23.7343 9.68544 23.6619C9.55027 23.5967 9.38511 23.517 9.30028 23.381C9.30028 23.2775 9.37555 23.274 9.46548 23.2698C9.56166 23.2654 9.6746 23.2602 9.73014 23.1309C9.62313 22.9057 9.39378 22.7395 9.14296 22.5576C8.6381 22.1917 8.04622 21.7626 8.18981 20.6627C8.22168 20.5986 8.26065 20.4854 8.30039 20.3698ZM9.157 18.729C9.22864 18.729 9.26446 18.8007 9.26446 18.8723C9.26446 18.944 9.22864 19.0156 9.157 19.0156C9.08535 19.0156 9.01371 18.944 9.01371 18.8723C9.01371 18.8007 9.08535 18.729 9.157 18.729Z" fill="#7B6E7F"/>
<path fill-rule="evenodd" clip-rule="evenodd" d="M17.821 20.8418C17.8568 20.7343 18.0001 20.3396 18.1076 20.197C18.0001 20.0537 17.8568 19.9104 17.7852 19.9104C17.7999 19.8513 17.8513 19.7862 17.9015 19.7224C17.973 19.6316 18.0422 19.5437 18.0001 19.4806C17.9803 19.4213 17.9388 19.4056 17.8695 19.3795C17.8131 19.3582 17.7383 19.3299 17.6419 19.2657C17.7135 19.0865 17.8568 18.9791 18.0001 18.9791C18.0783 18.9791 18.1138 18.9151 18.159 18.8338C18.1967 18.7659 18.2411 18.686 18.3225 18.6209C18.4948 18.5716 18.6671 18.5562 18.851 18.5398C18.9348 18.5323 19.0209 18.5246 19.1106 18.5134C19.4688 18.5492 20.5069 18.8358 20.2203 20.053C20.6334 20.8786 21.7377 20.3866 22.6404 19.9845C23.0687 19.7937 23.4516 19.6232 23.6937 19.6232C23.6281 19.7542 23.5476 19.8853 23.4693 20.0128C23.3763 20.1642 23.2863 20.3107 23.228 20.4464C23.3485 20.5433 23.5177 20.5098 23.6807 20.4775C23.76 20.4618 23.8378 20.4464 23.9079 20.4464C23.7222 21.0343 23.3767 21.3282 23.0782 21.5821C23.0312 21.6221 22.9853 21.6611 22.9414 21.7001C23.2164 22.585 24.1943 22.4295 25.1646 22.2753C25.332 22.2487 25.4992 22.2221 25.6625 22.201C25.5979 22.4376 25.4043 22.5448 25.2057 22.6547C25.0735 22.7278 24.9392 22.8022 24.8393 22.9167C25.2333 23.3107 25.6625 23.8481 25.949 24.4212C25.5766 24.1552 24.8886 23.8896 24.4273 23.7115C24.2674 23.6498 24.1347 23.5986 24.0519 23.5615C23.3354 23.3114 21.9756 23.3114 21.295 23.5615C21.424 23.8196 21.6693 23.962 21.8471 24.0653C21.8667 24.0767 21.8855 24.0876 21.9033 24.0981C21.5917 24.7219 21.0638 24.505 20.6723 24.3441L20.6722 24.344C20.6137 24.32 20.5582 24.2972 20.5069 24.2786C20.1129 24.5287 19.5046 24.5287 19.3255 24.4212C19.3255 24.4212 19.3255 24.2063 19.5404 24.063C19.5963 23.9698 19.4874 23.9154 19.3448 23.8442C19.2133 23.7785 19.0532 23.6986 18.9673 23.5608C18.9673 23.4358 19.03 23.4358 19.115 23.4358C19.2001 23.4358 19.3076 23.4358 19.3971 23.3107C19.2796 23.0881 19.0509 22.923 18.8026 22.7439C18.2929 22.3761 17.701 21.949 17.821 20.8418ZM18.7524 18.944C18.8598 18.944 18.8956 18.9798 18.8956 19.0514C18.8956 19.1231 18.8598 19.1947 18.7524 19.1947C18.6807 19.1947 18.6449 19.1231 18.6449 19.0514C18.6449 18.9798 18.68 18.944 18.7524 18.944Z" fill="#7B6E7F"/>
<path fill-rule="evenodd" clip-rule="evenodd" d="M13.2021 27.7154C13.229 27.6618 13.261 27.5725 13.2962 27.4745C13.3546 27.3119 13.4216 27.1251 13.4886 27.0362C13.4579 27.0055 13.4272 26.9689 13.3965 26.9324C13.3198 26.841 13.243 26.7496 13.1663 26.7496C13.1823 26.6852 13.2342 26.621 13.2835 26.5601C13.3443 26.485 13.401 26.4149 13.3812 26.3556C13.3572 26.2592 13.3172 26.2437 13.2073 26.2012C13.1531 26.1802 13.0818 26.1526 12.9871 26.1055C13.0946 25.9615 13.2737 25.8541 13.3812 25.8189C13.4571 25.8189 13.4928 25.7686 13.5416 25.6999C13.5848 25.639 13.6384 25.5635 13.7394 25.4959C13.9 25.4156 14.1005 25.3953 14.296 25.3755C14.3621 25.3688 14.4277 25.3621 14.491 25.3533C14.8492 25.3884 15.8515 25.675 15.6007 26.9287C15.9917 27.7347 17.1322 27.2406 18.0451 26.8452C18.4704 26.661 18.8464 26.4982 19.0741 26.4982C19.0315 26.5729 18.9858 26.6507 18.9389 26.7306C18.8279 26.9198 18.7098 27.1209 18.6091 27.3214C18.7536 27.4182 18.914 27.3848 19.069 27.3525C19.1444 27.3368 19.2186 27.3214 19.289 27.3214C19.0973 27.8965 18.763 28.1867 18.4643 28.446C18.4281 28.4774 18.3924 28.5084 18.3576 28.5393C18.6316 29.4532 19.5779 29.3053 20.559 29.1519C20.7323 29.1248 20.9067 29.0976 21.0787 29.0759C20.9981 29.2775 20.8157 29.3769 20.6332 29.4764C20.4914 29.5538 20.3495 29.6312 20.2555 29.7566C20.6495 30.1857 21.0787 30.6879 21.3294 31.2611C20.9275 31.0017 20.1789 30.7202 19.7142 30.5455C19.5999 30.5025 19.5028 30.466 19.4323 30.4378C18.7523 30.1864 17.3918 30.1864 16.6754 30.4378C16.8175 30.6859 17.0654 30.8282 17.3141 30.971L17.3202 30.9745C17.0116 31.5596 16.4644 31.3493 16.0439 31.1878C15.9762 31.1618 15.9118 31.137 15.8522 31.1171C15.5298 31.4037 14.8857 31.4037 14.7059 31.2611C14.7059 31.2611 14.7059 31.0819 14.9208 30.938C15.0019 30.8164 14.8654 30.7524 14.699 30.6743C14.5712 30.6143 14.4258 30.5461 14.3477 30.4372C14.3477 30.3114 14.4193 30.3114 14.5089 30.3114C14.5984 30.3114 14.7059 30.3114 14.7775 30.1857C14.6571 29.9446 14.4148 29.7686 14.1545 29.5795C13.642 29.2072 13.06 28.7844 13.2021 27.7154ZM14.2051 25.7817C14.2409 25.7817 14.3125 25.8183 14.3125 25.9257C14.3125 25.9608 14.2409 26.0318 14.2051 26.0318C14.0976 26.0318 14.026 25.9602 14.026 25.9257C14.026 25.8183 14.0976 25.7817 14.2051 25.7817Z" fill="#7B6E7F"/>
<path d="M8.58455 9.74196C8.5682 9.74196 8.5649 9.74279 8.57293 9.7444C8.5978 9.74273 8.60316 9.74196 8.58455 9.74196Z" fill="#7B6E7F"/>
<path d="M10.0877 9.70683L9.72946 9.27697L9.37193 9.59936L10.0877 9.70683Z" fill="#7B6E7F"/>
<path d="M9.04954 9.59867L8.58386 8.77547L8.154 9.59867H9.04954Z" fill="#7B6E7F"/>
<path d="M7.11587 9.70683L7.47408 9.27697L7.8323 9.59936L7.11587 9.70683Z" fill="#7B6E7F"/>
<path d="M10.3742 10.5659C10.3742 10.4942 10.2668 10.3509 10.1593 10.3509C10.0518 10.3509 9.90856 10.4942 9.90856 10.5659C9.90856 10.7091 10.0518 10.8166 10.1593 10.8166C10.2668 10.8166 10.3742 10.7091 10.3742 10.5659Z" fill="#7B6E7F"/>
<path d="M9.62268 10.4226C9.62268 10.3151 9.51521 10.2076 9.40775 10.2076C9.29959 10.2076 9.157 10.3151 9.157 10.4226C9.157 10.53 9.30028 10.6733 9.40775 10.6733C9.51521 10.6733 9.62268 10.53 9.62268 10.4226Z" fill="#7B6E7F"/>
<path d="M8.83391 10.3509C8.83391 10.2435 8.72714 10.136 8.58385 10.136C8.51221 10.136 8.36892 10.2435 8.36892 10.3509C8.36892 10.4942 8.51221 10.6017 8.58385 10.6017C8.61696 10.6024 8.64987 10.5965 8.6806 10.5841C8.71132 10.5718 8.73922 10.5533 8.7626 10.5299C8.78599 10.5064 8.80436 10.4785 8.81662 10.4477C8.82888 10.417 8.83476 10.384 8.83391 10.3509Z" fill="#7B6E7F"/>
<path d="M8.04722 10.4226C8.04722 10.3151 7.93975 10.2076 7.79647 10.2076C7.68831 10.2076 7.58154 10.3151 7.58154 10.4226C7.58154 10.53 7.689 10.6733 7.79647 10.6733C7.93975 10.6733 8.04722 10.53 8.04722 10.4226Z" fill="#7B6E7F"/>
<path d="M7.33079 10.5659C7.33079 10.4942 7.1875 10.3509 7.08004 10.3509C6.97257 10.3509 6.82928 10.4942 6.82928 10.5659C6.82928 10.7091 6.97257 10.8166 7.08004 10.8166C7.1875 10.8166 7.33079 10.7091 7.33079 10.5659Z" fill="#7B6E7F"/>
<path d="M26.7006 9.27697L27.094 9.70683L26.3782 9.59936L26.7006 9.27697Z" fill="#7B6E7F"/>
<path d="M25.555 8.77547L26.0207 9.59867H25.161L25.555 8.77547Z" fill="#7B6E7F"/>
<path d="M24.4452 9.27697L24.087 9.70683L24.8027 9.59936L24.4452 9.27697Z" fill="#7B6E7F"/>
<path d="M27.3812 10.5659C27.3812 10.4942 27.2379 10.3509 27.1305 10.3509C27.023 10.3509 26.9155 10.4942 26.9155 10.5659C26.9155 10.7091 27.023 10.8166 27.1305 10.8166C27.2379 10.8166 27.3812 10.7091 27.3812 10.5659Z" fill="#7B6E7F"/>
<path d="M26.629 10.4226C26.629 10.3151 26.4857 10.2076 26.3782 10.2076C26.2707 10.2076 26.1633 10.3151 26.1633 10.4226C26.1633 10.53 26.2707 10.6733 26.3782 10.6733C26.4857 10.6733 26.629 10.53 26.629 10.4226Z" fill="#7B6E7F"/>
<path d="M25.8058 10.3509C25.8058 10.2435 25.6983 10.136 25.5908 10.136C25.4827 10.136 25.3401 10.2435 25.3401 10.3509C25.3401 10.4942 25.4834 10.6017 25.5908 10.6017C25.6983 10.6017 25.8058 10.4942 25.8058 10.3509Z" fill="#7B6E7F"/>
<path d="M25.0177 10.4226C25.0177 10.3151 24.9102 10.2076 24.7669 10.2076C24.6953 10.2076 24.552 10.3151 24.552 10.4226C24.552 10.53 24.6953 10.6733 24.7669 10.6733C24.9102 10.6733 25.0177 10.53 25.0177 10.4226Z" fill="#7B6E7F"/>
<path d="M24.3019 10.5659C24.3019 10.4942 24.1586 10.3509 24.0512 10.3509C23.9437 10.3509 23.8363 10.4942 23.8363 10.5659C23.8363 10.7091 23.9437 10.8166 24.0512 10.8166C24.1586 10.8166 24.3019 10.7091 24.3019 10.5659Z" fill="#7B6E7F"/>
<path fill-rule="evenodd" clip-rule="evenodd" d="M4.25396 9.83324C4.12129 12.9142 4.00005 15.7295 4.82466 18.6932C6.43595 24.3854 9.08536 30.8305 17.2127 36.1293C24.6595 31.0813 27.9179 24.2063 29.0276 19.2657C30.1381 14.2892 29.959 10.4584 29.6366 6.09021C26.3431 4.33634 20.9003 3.83484 17.0336 3.83484C12.5938 3.83484 8.51222 4.04976 4.35898 6.09021C4.35898 7.39443 4.30561 8.63396 4.25396 9.83324ZM19.7905 5.62456C19.7905 5.62456 19.1815 5.8753 18.6807 5.66037C18.0359 5.40962 17.4993 5.26634 17.1418 5.48127V10.6733C17.4635 10.53 17.8933 10.6017 18.4665 10.745C19.0396 10.8524 19.3613 10.8883 19.7912 10.7808L19.7905 5.62456ZM16.8826 11.0605C16.7732 11.1525 16.7309 11.1881 16.7829 11.3181H17.2127C17.2485 11.1383 17.2127 11.0309 17.0336 10.9241C16.9747 10.983 16.9239 11.0258 16.8826 11.0605ZM13.6678 11.3174L14.1693 10.9234C14.5275 11.0309 15.279 10.8876 15.6373 10.8159C15.7928 10.7976 15.9251 10.7746 16.0429 10.7541C16.3858 10.6944 16.6067 10.656 16.9261 10.8159C16.6754 10.9234 16.5321 11.1376 16.5321 11.3174H13.6678ZM20.2913 11.3174L19.8263 10.9234C19.4326 11.0308 18.7176 10.8878 18.3591 10.8161L18.3583 10.8159C18.1803 10.7961 18.0351 10.7709 17.9106 10.7492C17.5845 10.6924 17.4003 10.6604 17.1411 10.8159C17.3202 10.9234 17.4628 11.1376 17.4276 11.3174H20.2913ZM19.9696 5.5536L20.4346 6.01859V11.1741L19.9696 10.745V5.5536ZM14.1693 5.62456C14.1693 5.62456 14.7775 5.8753 15.3149 5.66038C15.9231 5.40962 16.4963 5.26634 16.9261 5.48127V10.6733C16.5679 10.53 16.0664 10.6017 15.494 10.745C14.9573 10.8524 14.6349 10.8883 14.1693 10.7808V5.62456ZM14.026 5.62456L13.5252 6.01859V11.2458L14.026 10.7808V5.62456ZM25.5908 10.9592C26.4857 10.9592 27.3096 11.1383 27.3096 11.2458C27.3096 11.3174 26.5931 11.3891 25.6625 11.3891C24.7676 11.3891 23.9795 11.3174 23.9795 11.2458C23.9795 11.1383 24.6953 10.9592 25.5908 10.9592ZM4.75302 16.9745L8.72715 12.6428L13.0244 16.9386L16.9985 12.6428L20.9368 16.9745L25.2691 12.6063L29.1358 16.9028C28.5985 21.1277 26.1991 29.614 17.2127 35.807C8.11887 29.8992 5.64856 21.1635 4.75302 16.9745ZM10.5534 8.13068C10.4101 8.1665 10.5175 8.23814 10.5534 8.23814C11.6273 8.91875 10.1235 9.92176 9.83693 9.02691C8.58386 9.20601 8.90625 8.13206 9.22865 8.02459C9.36517 7.97909 9.32826 7.96249 9.27398 7.93807C9.2428 7.92405 9.2059 7.90745 9.19283 7.88131C9.17162 7.88131 9.14902 7.87991 9.12612 7.8785C9.033 7.87275 8.935 7.8667 8.90625 7.95295C8.94208 7.3798 8.90625 7.0581 8.58386 6.84317C8.29729 7.02228 8.26147 7.3798 8.26147 7.95295C8.26147 7.84548 8.08236 7.84549 8.01072 7.88131C7.90325 7.88131 7.76065 7.95295 8.01072 7.98877C8.29729 8.13206 8.6555 9.17019 7.40244 9.02691C7.08073 9.92176 5.64856 9.02691 6.65087 8.23883C6.65087 8.21569 6.66582 8.19629 6.67882 8.17942C6.70606 8.14405 6.72475 8.1198 6.57923 8.09555C6.54341 8.09555 6.32917 8.09555 6.11424 8.38212C6.09715 8.37358 6.06987 8.34669 6.03484 8.31216C5.92298 8.20191 5.73204 8.01371 5.5411 8.09555C5.5411 8.09555 6.32848 9.88525 6.43594 10.0644C6.67206 9.85775 8.09931 9.77274 8.49438 9.74921C8.52896 9.74715 8.55566 9.74556 8.57293 9.7444C8.59396 9.74863 8.6928 9.75823 8.83819 9.77235C9.36634 9.82364 10.5088 9.9346 10.7683 10.0644C10.8399 9.92107 11.628 8.1665 11.628 8.13068C11.4668 8.05008 11.2855 8.23143 11.1746 8.34225C11.1377 8.37919 11.1086 8.4083 11.0907 8.41725C10.8399 8.13068 10.6608 8.13068 10.5534 8.13068ZM6.73988 10.6429C6.80329 10.7825 6.87036 10.9302 6.93744 11.0309C7.36661 10.8876 8.01071 10.8166 8.58454 10.8159C9.04953 10.8159 9.80178 10.8876 10.3384 11.1025C10.4817 10.7808 10.625 10.2793 10.625 10.2793C10.3033 10.0644 9.3361 9.9569 8.65618 9.9569C8.1905 9.9569 6.90162 9.99272 6.5434 10.2793C6.60056 10.3361 6.66785 10.4843 6.73988 10.6429ZM8.61968 10.9592C9.51453 10.9592 10.3384 11.1383 10.3384 11.2458C10.3384 11.3174 9.62199 11.3891 8.69132 11.3891C7.79647 11.3891 7.00839 11.3174 7.00839 11.2458C7.00839 11.1383 7.72483 10.9592 8.61968 10.9592ZM27.5596 8.23814C27.5238 8.23814 27.4163 8.1665 27.5596 8.13068C27.6313 8.13068 27.8462 8.13068 28.0611 8.41725C28.0939 8.40633 28.1366 8.3654 28.1873 8.31683C28.3028 8.20621 28.4595 8.056 28.6343 8.13068C28.6343 8.1665 27.8462 9.92107 27.7394 10.0644C27.4986 9.93058 26.299 9.81679 25.7821 9.76775C25.6561 9.7558 25.5706 9.74769 25.5496 9.74409C25.5699 9.74264 25.5731 9.74196 25.5557 9.74196C25.5429 9.74196 25.5414 9.74268 25.5496 9.74409C25.5326 9.7453 25.5038 9.74705 25.4651 9.7494C25.0734 9.77319 23.672 9.8583 23.4071 10.0644C23.2996 9.88525 22.5122 8.09555 22.5122 8.09555C22.6885 8.02 22.8648 8.1746 22.9913 8.28554C23.0447 8.33241 23.0893 8.37148 23.1212 8.38212C23.3003 8.09555 23.5146 8.09555 23.5504 8.09555C23.6959 8.1198 23.6772 8.14405 23.65 8.17942C23.637 8.19629 23.622 8.21569 23.622 8.23883C22.6555 9.02691 24.0519 9.92176 24.3736 9.02691C25.6266 9.17019 25.2684 8.13206 24.9819 7.98877C24.7318 7.95295 24.9102 7.88131 24.9819 7.88131C25.0893 7.84549 25.2326 7.84548 25.2326 7.95295C25.2326 7.3798 25.2684 7.02228 25.555 6.84317C25.8774 7.0581 25.9132 7.3798 25.8774 7.95295C25.9058 7.86765 26.002 7.87263 26.1117 7.87831C26.1402 7.87978 26.1697 7.88131 26.1991 7.88131C26.2121 7.90721 26.2437 7.92374 26.2704 7.93769C26.3176 7.96231 26.3493 7.97885 26.2349 8.02459C25.8767 8.13206 25.555 9.20601 26.8081 9.02691C27.094 9.92176 28.5978 8.91875 27.5596 8.23814ZM23.6847 10.5417C23.7642 10.7067 23.8601 10.9054 23.9437 11.0309C24.3736 10.8876 25.0177 10.8166 25.555 10.8159C26.0565 10.8159 26.7722 10.8876 27.3454 11.1025C27.4529 10.7808 27.5961 10.2793 27.5961 10.2793C27.2737 10.0644 26.3431 9.9569 25.6266 9.9569C25.161 9.9569 23.8721 9.99272 23.5497 10.2793C23.5795 10.3237 23.6279 10.4241 23.6847 10.5417Z" fill="#7B6E7F"/>
<path d="M40.7502 29.7945C40.5727 29.8386 40.3417 29.896 40.3417 30.2932V33.5529C40.3417 35.0203 41.2724 35.665 42.5255 35.665C44.2084 35.665 44.6024 34.5553 44.6024 33.4799V30.5439C44.6024 29.9701 44.2751 29.9001 44.0244 29.8465C43.8688 29.8132 43.7427 29.7863 43.7427 29.6491C43.7427 29.614 43.8144 29.5774 43.8502 29.5774C44.0289 29.5774 44.2077 29.5866 44.3866 29.5957C44.5657 29.6048 44.7449 29.6139 44.9241 29.6139C44.9914 29.6139 45.0669 29.6058 45.1467 29.5973C45.2361 29.5876 45.331 29.5774 45.4256 29.5774C45.4608 29.5774 45.5324 29.614 45.5324 29.6491C45.5324 29.7379 45.4647 29.7727 45.3773 29.8175C45.2188 29.8988 44.9958 30.0132 44.9958 30.5439V33.3731C44.9958 33.3875 44.9959 33.4038 44.996 33.4221C44.9999 33.9504 45.0154 36.057 42.4538 36.057C40.091 36.057 39.626 34.6965 39.626 33.3001V30.258C39.626 29.947 39.3866 29.8876 39.1845 29.8375C39.0371 29.8009 38.9096 29.7693 38.9096 29.6484C38.9096 29.5768 39.0528 29.5767 39.0887 29.5767C39.214 29.5767 39.3305 29.5859 39.4469 29.595C39.5633 29.6041 39.6797 29.6133 39.8051 29.6133C39.948 29.6133 40.091 29.6041 40.2341 29.595C40.3774 29.5859 40.5208 29.5767 40.6641 29.5767C40.669 29.5767 40.6779 29.5761 40.6896 29.5752C40.7638 29.5696 40.9507 29.5556 40.9507 29.6484C40.9507 29.7447 40.8609 29.767 40.7502 29.7945Z" fill="#7B6E7F"/>
<path d="M49.7146 35.707C49.9481 35.6356 50.2953 35.5294 50.2953 34.6972H50.2967V31.3327C50.2967 30.0182 49.7611 29.8819 49.4462 29.8018C49.315 29.7684 49.222 29.7448 49.222 29.6498C49.222 29.6146 49.2937 29.5781 49.3295 29.5781C49.4011 29.5781 49.4726 29.5873 49.5441 29.5964C49.6156 29.6055 49.687 29.6146 49.7587 29.6146C49.8303 29.6146 49.9019 29.6055 49.9736 29.5964C50.0452 29.5873 50.1169 29.5781 50.1885 29.5781C50.2715 29.5781 50.3331 29.6631 50.3734 29.7187C50.3853 29.7351 50.3953 29.7489 50.4035 29.7572L54.7358 34.5904L54.8433 34.6979C54.8791 34.6979 54.8791 34.6627 54.8791 34.5904V30.7961C54.8791 30.0045 54.4291 29.8877 54.1322 29.8106C53.9859 29.7727 53.8768 29.7443 53.8768 29.6498C53.8768 29.5781 53.9126 29.5781 53.9842 29.5781C54.105 29.5781 54.2343 29.5866 54.368 29.5954C54.5111 29.6049 54.6593 29.6146 54.8074 29.6146C54.961 29.6146 55.1453 29.6042 55.3163 29.5944C55.4644 29.586 55.6025 29.5781 55.7023 29.5781C55.7739 29.5781 55.8098 29.5781 55.8098 29.6498C55.8098 29.7284 55.7378 29.759 55.6465 29.7978C55.4884 29.865 55.2724 29.9567 55.2724 30.3655V35.6292C55.2724 35.8793 55.2724 36.0233 55.2008 36.0233C55.1291 36.0233 55.0217 35.9874 54.8426 35.7732L50.9401 31.3678C50.9401 31.3678 50.8326 31.1887 50.761 31.1887C50.7252 31.1887 50.6893 31.2245 50.6893 31.4037V35.1277C50.6893 35.6449 51.0293 35.6987 51.2627 35.7357C51.3846 35.755 51.4774 35.7697 51.4774 35.8435C51.4774 35.9144 51.4774 35.986 51.4058 35.986C51.3164 35.986 51.2149 35.98 51.0961 35.9729C50.9283 35.963 50.726 35.9509 50.4744 35.9509C50.2553 35.9509 49.97 35.9671 49.7872 35.9775C49.701 35.9824 49.6376 35.986 49.6147 35.986C49.5072 35.986 49.5072 35.9151 49.5072 35.8786C49.5072 35.7704 49.5963 35.7432 49.7146 35.707Z" fill="#7B6E7F"/>
<path d="M60.3033 35.7043C60.5153 35.6488 60.8213 35.5686 60.8213 34.9837H60.8227V30.3304C60.8227 29.9221 60.5349 29.8443 60.3241 29.7873C60.2023 29.7544 60.1063 29.7285 60.1063 29.6498C60.1063 29.5781 60.1063 29.5781 60.1779 29.5781C60.3391 29.5781 60.5091 29.5873 60.6791 29.5964C60.8491 29.6055 61.019 29.6146 61.1802 29.6146C61.3283 29.6146 61.4762 29.6049 61.6191 29.5955C61.7528 29.5867 61.8822 29.5781 62.0034 29.5781C62.1467 29.5781 62.1825 29.5781 62.1825 29.6498C62.1825 29.7271 62.0991 29.7488 61.9922 29.7766C61.8021 29.826 61.5378 29.8946 61.5378 30.3304V35.1994C61.5378 35.5695 61.8433 35.6479 62.0821 35.7092C62.2352 35.7486 62.361 35.7809 62.361 35.8786C62.361 35.9509 62.3245 35.986 62.146 35.986C62.0743 35.986 61.9676 35.9804 61.8401 35.9736C61.6506 35.9635 61.4151 35.9509 61.1795 35.9509C60.7796 35.9509 60.5715 35.968 60.4458 35.9784C60.3913 35.9828 60.3523 35.986 60.3198 35.986C60.1414 35.986 60.1049 35.9151 60.1049 35.8435C60.1049 35.7563 60.1909 35.7338 60.3033 35.7043Z" fill="#7B6E7F"/>
<path d="M69.1722 35.6772C69.1561 35.6322 69.1413 35.5907 69.1278 35.5569L66.9082 30.258C66.7593 29.9376 66.5339 29.8716 66.3759 29.8253C66.2687 29.7938 66.1925 29.7715 66.1925 29.6849C66.1925 29.6139 66.2276 29.5774 66.3351 29.5774C66.4559 29.5774 66.5852 29.586 66.7188 29.5948C66.862 29.6042 67.0101 29.6139 67.1583 29.6139C67.3014 29.6139 67.4673 29.6021 67.6102 29.5919C67.7184 29.5842 67.8134 29.5774 67.8754 29.5774C67.9099 29.5774 67.9815 29.614 67.9815 29.6491C67.9964 29.7092 67.9366 29.7442 67.8617 29.7879C67.7571 29.8491 67.6233 29.9273 67.6233 30.1148C67.6227 30.2378 67.647 30.3597 67.6949 30.473L69.3069 34.197C69.486 34.6972 69.5577 34.8763 69.6651 34.8763C69.7283 34.8763 69.7642 34.7631 69.7961 34.6624C69.8 34.6501 69.8039 34.6379 69.8077 34.6262L71.3832 30.7596C71.4555 30.617 71.5623 30.3297 71.5272 30.1148C71.5272 29.888 71.3373 29.851 71.1761 29.8197C71.0572 29.7966 70.954 29.7765 70.954 29.6856C70.954 29.5781 70.9898 29.5781 71.0615 29.5781C71.1734 29.5781 71.2855 29.5881 71.3926 29.5976C71.4905 29.6063 71.5842 29.6146 71.6697 29.6146C71.942 29.6146 72.0995 29.5999 72.2146 29.5892C72.281 29.583 72.3334 29.5781 72.3855 29.5781C72.4578 29.5781 72.5295 29.614 72.5295 29.6856C72.5295 29.7518 72.4952 29.7641 72.4392 29.7841C72.3439 29.8181 72.1857 29.8746 72.0273 30.2587L69.7726 35.592C69.7418 35.6532 69.714 35.7232 69.6867 35.792C69.6181 35.9647 69.5525 36.13 69.4495 36.13C69.3338 36.13 69.2413 35.8707 69.1722 35.6772Z" fill="#7B6E7F"/>
<path d="M77.7815 30.0217C77.7134 30.0981 77.7201 30.2412 77.7201 30.5088H77.7222V32.191C77.7222 32.3478 77.7141 32.4285 77.7506 32.47C77.7893 32.5141 77.8783 32.5141 78.0804 32.5141H79.0476C79.6771 32.5141 79.7666 32.1872 79.8246 31.9752C79.8524 31.8736 79.873 31.7984 79.9425 31.7984C80.0134 31.7984 80.0499 31.8693 80.0499 31.941V33.5881C80.0499 33.659 80.0141 33.6955 79.9425 33.6955C79.851 33.6955 79.8313 33.5902 79.8064 33.4566C79.7631 33.2249 79.7039 32.9082 79.2267 32.9082H77.9013C77.714 32.9082 77.7173 33.0172 77.7211 33.1408C77.7217 33.1586 77.7222 33.1767 77.7222 33.1947V34.8763C77.7222 34.9215 77.7217 34.9644 77.7212 35.0051C77.716 35.4482 77.7139 35.6285 78.4028 35.6285C80.0793 35.6285 80.6056 35.0417 80.8227 34.7997C80.8791 34.7368 80.9147 34.6972 80.9441 34.6972C80.9799 34.6972 81.0164 34.7681 81.0164 34.8046C81.0164 35.1277 80.765 35.4494 80.5507 35.6643C80.2642 35.986 80.0485 35.986 79.6545 35.986C79.3858 35.986 79.117 35.9749 78.846 35.9636C78.4312 35.9463 78.0111 35.9288 77.5782 35.9509C77.3991 35.9509 77.2202 35.9597 77.0413 35.9685C76.8623 35.9773 76.6834 35.986 76.5043 35.986C76.3968 35.986 76.3603 35.9509 76.3603 35.8786C76.3603 35.8144 76.3991 35.8015 76.4922 35.7705C76.5541 35.7499 76.64 35.7213 76.7543 35.6643C76.9693 35.5562 77.0044 35.2696 77.0044 34.8756V30.7224C77.0044 30.3297 77.0044 29.8991 76.5036 29.8275C76.4828 29.8174 76.4531 29.8102 76.4214 29.8025C76.3429 29.7835 76.2521 29.7614 76.2521 29.6849C76.2521 29.6139 76.2887 29.5774 76.5752 29.5774C77.7269 29.5774 78.3246 29.5945 78.702 29.6053C78.8762 29.6103 79.0034 29.6139 79.1165 29.6139C79.1986 29.6139 79.4237 29.6063 79.6675 29.598C79.9557 29.5882 80.27 29.5774 80.4054 29.5774C80.4763 29.5774 80.5128 29.6491 80.5128 29.7565C80.5128 30.7589 80.3702 30.8305 80.3337 30.8305C80.2132 30.8305 80.2055 30.6953 80.1967 30.5386C80.1897 30.416 80.182 30.2801 80.1188 30.1857C79.8916 29.9253 79.1022 29.9317 78.6912 29.935C78.65 29.9354 78.6125 29.9357 78.5799 29.9357C78.0778 29.9357 77.8685 29.9242 77.7815 30.0217Z" fill="#7B6E7F"/>
<path fill-rule="evenodd" clip-rule="evenodd" d="M89.0342 31.1171C89.0342 31.8328 88.5341 32.4425 87.8893 32.6925L89.3945 34.9844C89.8458 35.6504 90.1868 35.7319 90.3647 35.7744C90.4546 35.7958 90.5029 35.8074 90.5029 35.8793C90.5029 35.9867 90.0028 35.9867 89.9312 35.9867C89.2499 35.9867 88.8923 35.5211 88.5693 34.9844L87.5669 33.409C87.4157 33.1975 87.354 33.0816 87.2577 33.0182C87.1259 32.9316 86.9294 32.9433 86.3504 32.9433C86.0916 32.9433 86.0952 33.0607 86.0983 33.1627C86.0986 33.1736 86.0989 33.1843 86.0989 33.1947V35.0919C86.0989 35.5713 86.4582 35.6522 86.7388 35.7153C86.9186 35.7557 87.0661 35.7889 87.0661 35.9151C87.0661 35.9867 86.9587 35.9867 86.887 35.9867C86.8697 35.9867 86.8444 35.9848 86.8058 35.9817C86.6821 35.972 86.4218 35.9516 85.8482 35.9516C85.6917 35.9516 85.5263 35.9599 85.3565 35.9685C85.1774 35.9775 84.9933 35.9867 84.8094 35.9867C84.7742 35.9867 84.7377 35.9158 84.7377 35.8793C84.7377 35.8023 84.821 35.7668 84.9277 35.7214C85.1179 35.6405 85.3825 35.5279 85.3825 35.0919V30.473C85.3825 29.9285 85.0803 29.873 84.8589 29.8324C84.7311 29.809 84.6303 29.7905 84.6303 29.6856C84.6303 29.6146 84.7019 29.5781 84.8094 29.5781C84.8608 29.5781 84.8892 29.5828 84.9257 29.5888C84.9914 29.5996 85.0832 29.6146 85.3825 29.6146C85.6383 29.6146 85.9031 29.6052 86.1629 29.5959C86.413 29.5869 86.6586 29.5781 86.887 29.5781C86.8956 29.5781 86.9111 29.5773 86.9325 29.5762C87.2651 29.5592 89.0342 29.4688 89.0342 31.1171ZM86.553 29.8635C86.2773 29.8606 86.0983 29.8588 86.0983 30.1857V32.5134C86.0983 32.6327 86.4993 32.6276 86.8817 32.6228C86.9564 32.6218 87.0304 32.6209 87.1006 32.6209C87.4946 32.6209 88.3543 32.4769 88.3543 31.332C88.3543 30.2222 87.5311 29.864 86.6349 29.864C86.6068 29.864 86.5795 29.8637 86.553 29.8635Z" fill="#7B6E7F"/>
<path d="M96.0153 36.0577C95.3361 36.0577 94.5129 35.6995 94.4764 35.5569L94.2621 34.3748C94.2256 34.1957 94.2621 34.0882 94.3682 34.0882C94.459 34.0882 94.4731 34.1649 94.4973 34.2967C94.5017 34.3209 94.5065 34.347 94.5122 34.3748C94.6203 34.8039 95.1921 35.7353 96.4459 35.7353C97.3042 35.7353 98.1288 35.2696 98.1288 34.3038C98.1288 33.5124 97.3474 33.2903 96.504 33.0506C95.5149 32.7694 94.4405 32.4641 94.4405 31.188C94.4405 30.0431 95.4063 29.47 96.4803 29.47C97.2974 29.47 97.6793 29.6565 97.8628 29.7461C97.9208 29.7744 97.959 29.7931 97.9848 29.7931C98.0207 29.7931 98.0478 29.7749 98.0748 29.7568C98.1017 29.7387 98.1285 29.7207 98.1639 29.7207C98.2349 29.7207 98.2714 29.7207 98.2714 29.8282L98.414 31.0819C98.414 31.1529 98.414 31.188 98.3065 31.188C98.245 31.188 98.1839 31.0563 98.1456 30.9738C98.1394 30.9602 98.1337 30.9481 98.1288 30.938C97.8773 30.1506 97.1981 29.7565 96.4094 29.7565C95.6936 29.7565 94.9414 30.0782 94.9414 30.938C94.9414 31.6989 95.688 31.9181 96.506 32.1582C97.4971 32.4491 98.5931 32.7707 98.5931 34.124C98.5931 34.9128 98.0564 36.0577 96.0153 36.0577Z" fill="#7B6E7F"/>
<path d="M102.982 35.7043C103.194 35.6488 103.499 35.5686 103.499 34.9837H103.5V30.3304C103.477 29.9233 103.182 29.8448 102.969 29.7878C102.845 29.7547 102.748 29.7288 102.748 29.6498C102.748 29.5781 102.784 29.5781 102.855 29.5781C103.013 29.5781 103.169 29.5868 103.33 29.5957C103.5 29.605 103.674 29.6146 103.857 29.6146C103.978 29.6146 104.108 29.6061 104.241 29.5973C104.384 29.5879 104.533 29.5781 104.681 29.5781C104.825 29.5781 104.86 29.5781 104.86 29.6498C104.86 29.7271 104.776 29.7488 104.669 29.7766C104.479 29.826 104.215 29.8946 104.215 30.3304V35.1994C104.215 35.5695 104.508 35.6479 104.737 35.7092C104.883 35.7486 105.004 35.7809 105.004 35.8786C105.004 35.9509 104.967 35.986 104.825 35.986C104.731 35.986 104.603 35.9794 104.459 35.9718C104.273 35.9621 104.059 35.9509 103.857 35.9509C103.475 35.9509 103.268 35.9666 103.13 35.977C103.062 35.9822 103.01 35.986 102.963 35.986C102.82 35.986 102.784 35.9151 102.784 35.8435C102.784 35.7563 102.869 35.7338 102.982 35.7043Z" fill="#7B6E7F"/>
<path d="M110.971 35.6819C111.18 35.6143 111.448 35.5271 111.448 35.1987H111.45V30.4723C111.45 30.4632 111.45 30.4501 111.451 30.4339C111.456 30.3236 111.467 30.0738 111.342 30.0431H109.874C109.347 30.0431 109.305 30.1639 109.162 30.5746C109.149 30.6101 109.136 30.6479 109.122 30.6879C109.114 30.7105 109.108 30.7331 109.102 30.7546C109.081 30.8358 109.063 30.9021 108.978 30.9021C108.907 30.9021 108.872 30.8312 108.872 30.7961L108.978 29.8998C108.978 29.7931 108.978 29.5781 109.158 29.5781C109.454 29.5781 109.756 29.585 110.098 29.5928C110.542 29.603 111.052 29.6146 111.7 29.6146C112.938 29.6146 113.732 29.594 114.125 29.5837C114.255 29.5804 114.341 29.5781 114.385 29.5781C114.563 29.5781 114.635 29.6139 114.635 29.8282L114.671 30.5439C114.671 30.5622 114.672 30.5804 114.673 30.5981C114.678 30.6848 114.682 30.7589 114.564 30.7589C114.444 30.7589 114.438 30.6605 114.43 30.5368C114.416 30.3266 114.398 30.0431 113.812 30.0431H112.523C112.323 30.0431 112.232 30.0353 112.191 30.077C112.144 30.1252 112.165 30.2396 112.165 30.5088V35.1277C112.165 35.5918 112.438 35.6596 112.647 35.7113C112.776 35.7433 112.88 35.7692 112.88 35.8786C112.88 35.8786 112.88 35.986 112.809 35.986C112.709 35.986 112.601 35.9785 112.486 35.9704C112.353 35.961 112.21 35.9509 112.056 35.9509C111.214 35.9509 110.953 35.9757 110.87 35.9836C110.854 35.9851 110.844 35.986 110.839 35.986C110.731 35.986 110.731 35.9509 110.731 35.8435C110.731 35.7598 110.839 35.7248 110.971 35.6819Z" fill="#7B6E7F"/>
<path d="M120.685 33.0156C120.685 32.8351 120.577 32.656 120.506 32.5499L118.964 30.1148C118.843 29.9131 118.642 29.8594 118.489 29.8187C118.372 29.7873 118.283 29.7637 118.283 29.6856C118.283 29.6498 118.356 29.5781 118.427 29.5781C118.523 29.5781 118.603 29.5835 118.702 29.5901C118.861 29.6008 119.067 29.6146 119.465 29.6146C119.656 29.6146 119.831 29.5984 119.948 29.5876C120.007 29.5822 120.05 29.5781 120.074 29.5781C120.146 29.5781 120.253 29.5781 120.253 29.6498C120.253 29.7119 120.173 29.7537 120.082 29.8013C119.962 29.8641 119.823 29.9368 119.823 30.0789C119.823 30.2229 119.931 30.3655 120.003 30.4378L121.077 32.191C121.149 32.2992 121.22 32.3715 121.256 32.3715C121.318 32.3715 121.353 32.3174 121.407 32.2338C121.416 32.2203 121.426 32.206 121.436 32.191L122.367 30.6521C122.439 30.5804 122.581 30.4013 122.581 30.1864C122.581 29.9089 122.34 29.8604 122.145 29.8211C122.013 29.7945 121.902 29.7722 121.902 29.6856C121.902 29.5781 121.974 29.5781 122.081 29.5781C122.189 29.5781 122.296 29.5873 122.404 29.5964C122.511 29.6055 122.618 29.6146 122.726 29.6146C122.874 29.6146 123.012 29.6049 123.146 29.5955C123.271 29.5867 123.393 29.5781 123.515 29.5781C123.586 29.5781 123.621 29.6146 123.621 29.6856C123.621 29.7403 123.536 29.7746 123.464 29.8035C123.443 29.8121 123.423 29.8202 123.406 29.8282C123.219 29.9349 123.113 30.1201 123.011 30.296C122.976 30.3574 122.941 30.4176 122.904 30.473L121.652 32.4425C121.633 32.4651 121.615 32.4862 121.598 32.5059C121.458 32.6719 121.4 32.7403 121.4 32.8351V35.0554C121.4 35.547 121.693 35.6341 121.913 35.6996C122.046 35.7391 122.153 35.7708 122.153 35.8786C122.153 35.9861 122.081 35.986 121.938 35.986C121.899 35.986 121.802 35.9813 121.68 35.9754C121.467 35.965 121.176 35.9509 120.971 35.9509C120.667 35.9509 120.416 35.9686 120.27 35.9789C120.211 35.9831 120.169 35.986 120.148 35.986C120.041 35.986 120.005 35.9861 120.005 35.8786C120.005 35.7826 120.105 35.7552 120.229 35.7215C120.427 35.6673 120.685 35.5967 120.685 35.1994V33.0156Z" fill="#7B6E7F"/>
<path d="M105.111 6.91411C105.111 6.01857 104.359 5.267 103.463 5.267C103.246 5.26655 103.032 5.30885 102.832 5.39146C102.632 5.47407 102.45 5.59538 102.297 5.74842C102.144 5.90145 102.023 6.08321 101.94 6.28325C101.857 6.48329 101.815 6.69768 101.816 6.91411C101.816 7.84547 102.533 8.59703 103.463 8.59703C104.359 8.59703 105.111 7.84547 105.111 6.91411Z" fill="#7B6E7F"/>
<path d="M117.427 24.4928C118.787 24.0988 119.145 23.6345 119.217 22.9174L119.038 8.91874C118.967 8.27464 118.895 7.77314 118.035 7.41492C117.427 7.19999 117.104 6.80664 117.964 6.44843C119.213 6.00427 119.58 5.86118 120.501 5.50178C120.767 5.39797 121.079 5.2761 121.473 5.12372C122.206 4.92621 122.162 5.52876 122.11 6.23085C122.096 6.42012 122.081 6.61663 122.081 6.80664L122.188 22.2733C122.489 23.7133 122.728 23.8071 124.016 24.3102C124.106 24.3453 124.2 24.3823 124.301 24.4219C124.945 24.7085 125.124 25.3877 124.086 25.3877C121.436 25.1018 120.506 25.0295 117.57 25.46C116.496 25.4242 116.352 24.8511 117.427 24.4928Z" fill="#7B6E7F"/>
<path d="M108.368 24.4219C109.729 24.0279 110.087 23.5622 110.159 22.8113L109.944 8.81059C109.909 8.20162 109.837 7.66499 108.977 7.30677C108.369 7.12766 108.047 6.69849 108.906 6.34028C110.289 5.86843 110.569 5.75621 111.828 5.25072C112.003 5.18058 112.197 5.10286 112.415 5.01557C113.149 4.84619 113.104 5.45543 113.051 6.15923C113.037 6.34852 113.023 6.54465 113.023 6.73431L113.13 22.1651C113.435 23.6205 113.644 23.7008 114.994 24.2183C115.073 24.2485 115.156 24.2802 115.243 24.3137C115.887 24.6368 116.031 25.2809 115.028 25.3161C112.379 25.0295 111.448 24.9585 108.512 25.3877C107.402 25.3167 107.294 24.745 108.368 24.4219Z" fill="#7B6E7F"/>
<path d="M100.813 15.0773C101.71 15.328 101.816 15.9363 101.889 16.7244H101.888V22.8471C101.852 23.8143 101.457 24.0285 100.348 24.4226C99.2027 24.8166 99.3812 25.5324 100.313 25.5324C103.069 24.9592 103.714 24.9957 106.542 25.3884C107.329 25.3884 107.258 24.601 106.614 24.3509C106.543 24.3232 106.467 24.296 106.389 24.2677C105.753 24.0385 104.923 23.7397 104.859 22.5599V14.5041C104.868 14.3485 104.874 14.2138 104.88 14.0909C104.899 13.7046 104.912 13.4351 104.967 13.0003C105.217 12.2123 104.717 11.9973 104.286 12.2481C102.854 13.3937 102.604 13.5011 100.778 14.0743C99.8475 14.4325 100.169 15.0056 100.813 15.0773Z" fill="#7B6E7F"/>
<path d="M87.8177 5.01625C81.6233 5.51707 77.22 8.38141 76.5752 15.2557C76.4678 18.5857 78.1858 21.3784 79.5815 22.6322C82.6615 25.6047 88.1387 26.1413 93.2233 24.9599C96.2879 23.8557 96.2657 23.3047 96.1602 20.6818C96.1288 19.9028 96.0901 18.9409 96.1228 17.7274C96.2758 16.8711 97.2387 16.7464 97.8962 16.6612C98.0084 16.6467 98.1116 16.6333 98.2004 16.6176C99.6319 16.4385 99.561 15.4004 98.3795 15.3287C95.2459 15.6423 92.6789 15.5929 90.9486 15.5597C90.5043 15.5511 90.1152 15.5437 89.7858 15.5437C88.1394 15.5437 88.5686 16.94 89.8223 16.8325C89.9725 16.8422 90.1239 16.848 90.2744 16.8537C91.237 16.8903 92.1619 16.9255 92.4717 17.9781C92.5082 19.8402 92.5082 22.0956 92.0777 22.9188C90.0731 26.1771 80.3709 23.6359 80.7636 14.9705C81.015 8.81196 85.1669 5.19605 90.8246 6.44912C92.4717 7.12904 93.0449 7.91642 93.7606 9.27695C94.3689 10.7449 95.2286 10.4584 95.1921 9.13366C95.2996 5.48124 94.3689 5.05208 87.8177 5.01625Z" fill="#7B6E7F"/>
<path d="M71.2041 11.7114C68.7703 11.7114 64.0439 13.072 63.4707 18.7648C63.1842 21.9151 67.4097 28.002 74.3915 23.7068C75.1424 23.2046 75.0714 22.4524 74.1401 22.6315C70.3457 24.601 67.2293 22.2016 66.8366 19.0156C66.406 15.793 67.8754 13.1085 70.2727 12.7503C71.4478 12.8296 71.8698 13.3854 72.284 13.9309C72.6145 14.3662 72.94 14.7949 73.6392 14.9698C74.3915 15.1848 75.0707 14.6833 75.0707 13.7168C75.0356 12.7503 74.1049 11.7831 71.2041 11.7114Z" fill="#7B6E7F"/>
<path d="M40.7253 7.52064C41.4951 7.68201 41.8483 7.75605 41.953 9.16949L41.1636 23.0248C40.9385 23.9889 40.483 24.117 39.0452 24.5213C38.8813 24.5674 38.7047 24.617 38.5141 24.672C37.6551 24.7801 37.9052 25.6033 38.4783 25.6033C41.9875 25.1376 42.6316 25.1376 46.4273 25.4607C46.8929 25.1741 46.8571 24.7085 46.3198 24.5294C46.0523 24.4465 45.8033 24.3736 45.5722 24.306C44.1029 23.8758 43.3602 23.6583 43.2054 22.4517L43.1696 10.4935C43.1696 10.2069 43.4203 10.0636 43.5994 10.5293L49.8647 24.063C50.4014 24.9578 50.6163 24.9578 51.1178 23.8129L56.4167 10.601C56.5958 10.0278 56.9182 10.0278 56.954 10.5293L57.2405 23.0607C56.9188 23.7764 56.5606 24.0265 55.2001 24.3496C54.018 24.6003 54.0896 25.531 55.1643 25.4235C58.9235 25.066 60.2124 25.0295 64.0074 25.46C64.6873 25.2816 64.8664 24.7085 64.079 24.3502C63.9218 24.3101 63.7706 24.2729 63.6255 24.2372C62.0861 23.8585 61.2265 23.647 60.9646 21.8799L60.7139 8.88291C61.0004 7.59403 61.8953 6.98506 63.614 6.98506C64.7245 6.66267 64.7961 5.80364 63.6857 5.76782L63.6628 5.77029C62.3535 5.91193 61.7007 5.98254 59.0316 5.94692C57.4913 5.80364 56.9547 6.01857 56.4532 6.98506L52.014 18.2992C51.6917 19.0507 51.5484 18.9439 51.2618 18.3708C50.5075 16.7728 49.5822 14.7783 48.6575 12.7849C47.7385 10.804 46.82 8.82421 46.0704 7.23581C45.7839 6.44843 45.4263 6.12603 44.6024 5.98275C42.8127 6.26932 41.7388 6.2335 39.5902 6.05439C38.3729 6.12604 38.4804 6.98506 39.6976 7.23581C40.1022 7.39001 40.442 7.46124 40.7253 7.52064Z" fill="#7B6E7F"/>
</g>
</g>
</g>
</svg>
