<svg width="137" height="40" viewBox="0 0 137 40" fill="none" xmlns="http://www.w3.org/2000/svg">
<g id="MilaQuebec_logo" clip-path="url(#clip0_12987_62013)">
<path id="Vector" d="M85.1976 38.5616C85.1972 38.7571 85.1194 38.9445 84.9811 39.0827C84.8429 39.2209 84.6555 39.2988 84.46 39.2991H80.0536C79.858 39.2991 79.6704 39.2214 79.532 39.0831C79.3937 38.9448 79.316 38.7572 79.316 38.5616V14.9932C79.3156 14.938 79.296 14.8845 79.2606 14.8421C79.2252 14.7996 79.1762 14.7707 79.122 14.7603C79.0677 14.7499 79.0115 14.7586 78.9629 14.785C78.9143 14.8114 78.8764 14.8537 78.8555 14.9049L69.3364 38.62C69.2566 38.8206 69.1184 38.9926 68.9396 39.1137C68.7609 39.2348 68.5498 39.2994 68.3339 39.2991H64.1231C63.9073 39.2984 63.6965 39.2334 63.5177 39.1125C63.339 38.9915 63.2003 38.8201 63.1193 38.62L53.6314 15.0068C53.6111 14.9547 53.5733 14.9114 53.5244 14.8844C53.4755 14.8573 53.4186 14.8482 53.3637 14.8587C53.3089 14.8692 53.2594 14.8986 53.2239 14.9418C53.1884 14.985 53.1692 15.0392 53.1696 15.0951V38.5602C53.1692 38.7557 53.0914 38.9431 52.9531 39.0813C52.8149 39.2196 52.6275 39.2974 52.432 39.2978H48.1804C47.9848 39.2978 47.7972 39.2201 47.6589 39.0817C47.5206 38.9434 47.4429 38.7558 47.4429 38.5602V1.10705C47.4432 0.911542 47.5211 0.724146 47.6593 0.585903C47.7975 0.447659 47.9849 0.369835 48.1804 0.369476H52.5733C52.7495 0.369518 52.9217 0.421976 53.0681 0.520178C53.2144 0.61838 53.3282 0.757888 53.3951 0.920957L66.0003 31.755C66.02 31.8027 66.0534 31.8435 66.0964 31.8723C66.1393 31.901 66.1898 31.9163 66.2414 31.9163C66.2931 31.9163 66.3436 31.901 66.3865 31.8723C66.4294 31.8435 66.4628 31.8027 66.4825 31.755L79.0864 0.927749C79.1536 0.763279 79.2687 0.622778 79.4167 0.52445C79.5646 0.426122 79.7387 0.374498 79.9164 0.376268H84.4668C84.661 0.377345 84.8468 0.455242 84.9838 0.592937C85.1207 0.730633 85.1976 0.916931 85.1976 1.11112V38.5629V38.5616Z" fill="#7B6E7F"/>
<path id="Vector_2" d="M91.0586 6.45749C90.7033 6.11182 90.4226 5.697 90.2338 5.23864C90.045 4.78027 89.9522 4.28809 89.961 3.79246C89.9521 3.29256 90.0447 2.79605 90.2334 2.33304C90.422 1.87003 90.7028 1.45016 91.0586 1.09889C91.4081 0.740717 91.8276 0.458315 92.291 0.269265C92.7544 0.0802139 93.2518 -0.0114395 93.7521 8.25792e-06C94.2445 -0.0112698 94.7337 0.0805454 95.1885 0.269557C95.6432 0.458569 96.0534 0.7406 96.3927 1.09754C96.7509 1.44709 97.0333 1.86661 97.2223 2.33001C97.4114 2.79341 97.5031 3.29075 97.4916 3.7911C97.5027 4.28354 97.4107 4.77285 97.2214 5.22761C97.0322 5.68237 96.7499 6.09251 96.3927 6.43168C96.0555 6.79307 95.6463 7.07984 95.1915 7.27355C94.7367 7.46725 94.2464 7.5636 93.7521 7.55638C93.2518 7.56774 92.7545 7.47605 92.2911 7.28701C91.8277 7.09796 91.4082 6.8156 91.0586 6.45749ZM96.6005 13.7286V38.5588C96.6005 38.6553 96.5815 38.7509 96.5446 38.84C96.5077 38.9292 96.4535 39.0102 96.3853 39.0784C96.3171 39.1467 96.2361 39.2008 96.1469 39.2377C96.0577 39.2747 95.9622 39.2937 95.8657 39.2937H91.6372C91.5407 39.2937 91.4452 39.2747 91.356 39.2377C91.2668 39.2008 91.1858 39.1467 91.1176 39.0784C91.0494 39.0102 90.9952 38.9292 90.9583 38.84C90.9214 38.7509 90.9024 38.6553 90.9024 38.5588V13.7286C90.9024 13.5337 90.9798 13.3468 91.1176 13.209C91.2554 13.0712 91.4423 12.9938 91.6372 12.9938H95.8657C96.0606 12.9938 96.2475 13.0712 96.3853 13.209C96.5231 13.3468 96.6005 13.5337 96.6005 13.7286Z" fill="#7B6E7F"/>
<path id="Vector_3" d="M103.044 0.365387H107.234C107.43 0.365387 107.618 0.443381 107.757 0.582212C107.896 0.721043 107.974 0.909338 107.974 1.10568V38.5547C107.974 38.7511 107.896 38.9394 107.757 39.0782C107.618 39.217 107.43 39.295 107.234 39.295H103.044C102.848 39.295 102.66 39.217 102.521 39.0782C102.382 38.9394 102.304 38.7511 102.304 38.5547V1.10568C102.304 0.909338 102.382 0.721043 102.521 0.582212C102.66 0.443381 102.848 0.365387 103.044 0.365387Z" fill="#7B6E7F"/>
<path id="Vector_4" d="M131.004 38.7965C130.853 37.8794 130.75 36.9549 130.697 36.0269C129.939 37.2032 128.84 38.1703 127.378 38.9025C125.915 39.6346 124.214 40 122.28 40C119.43 40 117.129 39.242 115.377 37.7261C113.626 36.2089 112.762 34.1442 112.762 31.5295C112.762 28.9147 113.625 26.9546 115.343 25.4903C117.061 24.0261 119.396 23.2939 122.323 23.2939H130.597V22.2765C130.597 18.6946 128.635 16.9166 124.688 16.9166C121.692 16.9166 119.508 18.0223 118.138 20.2336C118.033 20.3986 117.869 20.5167 117.679 20.563C117.489 20.6094 117.289 20.5804 117.119 20.4822L114.252 18.8318C114.077 18.7338 113.948 18.5703 113.894 18.3772C113.839 18.1841 113.863 17.9773 113.961 17.8022C116.135 14.0849 119.806 12.2385 124.976 12.263C128.244 12.263 130.936 13.0997 133.028 14.7732C135.12 16.4466 136.166 19.1619 136.166 22.9014V33.6729C136.166 35.9467 136.262 37.5781 136.454 38.5928C136.471 38.6785 136.468 38.7668 136.446 38.8514C136.425 38.936 136.385 39.0148 136.329 39.082C136.273 39.1492 136.203 39.2031 136.124 39.24C136.045 39.2768 135.958 39.2956 135.871 39.295H131.611C131.467 39.2963 131.327 39.247 131.216 39.1556C131.104 39.0643 131.029 38.9367 131.002 38.7952M130.594 27.2942H123.61C121.963 27.2942 120.709 27.66 119.846 28.3917C118.983 29.1239 118.539 30.144 118.539 31.4765C118.539 32.809 118.983 33.8563 119.897 34.5613C120.811 35.2662 122.071 35.6058 123.663 35.6058C125.624 35.6058 127.27 34.9524 128.603 33.6715C129.935 32.3906 130.597 30.4822 130.597 27.9462V27.2928L130.594 27.2942Z" fill="#7B6E7F"/>
<path id="Vector_5" d="M30.1458 20C30.1463 20.2324 30.0779 20.4598 29.9492 20.6534C29.8205 20.8469 29.6372 20.9979 29.4227 21.0873C29.2081 21.1767 28.9719 21.2004 28.7438 21.1555C28.5157 21.1106 28.3061 20.999 28.1415 20.835C27.9768 20.6709 27.8646 20.4617 27.8188 20.2338C27.7731 20.0059 27.796 19.7695 27.8847 19.5546C27.9733 19.3398 28.1237 19.156 28.3168 19.0266C28.5099 18.8972 28.7371 18.828 28.9695 18.8278C29.2808 18.8278 29.5793 18.9511 29.7998 19.1708C30.0203 19.3906 30.1447 19.6887 30.1458 20Z" fill="#7B6E7F"/>
<path id="Vector_6" d="M40.8562 20C40.8568 20.2324 40.7884 20.4598 40.6597 20.6534C40.5309 20.8469 40.3477 20.9979 40.1331 21.0873C39.9186 21.1767 39.6823 21.2004 39.4542 21.1555C39.2262 21.1106 39.0166 20.999 38.8519 20.835C38.6873 20.6709 38.575 20.4617 38.5293 20.2338C38.4836 20.0059 38.5065 19.7695 38.5951 19.5546C38.6838 19.3398 38.8342 19.156 39.0273 19.0266C39.2204 18.8972 39.4475 18.828 39.6799 18.8278C39.9912 18.8278 40.2898 18.9511 40.5103 19.1708C40.7308 19.3906 40.8552 19.6887 40.8562 20Z" fill="#7B6E7F"/>
<path id="Vector_7" d="M35.4678 10.9141C35.4684 11.1466 35.3999 11.374 35.2712 11.5675C35.1425 11.7611 34.9593 11.9121 34.7447 12.0015C34.5301 12.0909 34.2939 12.1146 34.0658 12.0697C33.8378 12.0248 33.6281 11.9132 33.4635 11.7491C33.2989 11.585 33.1866 11.3758 33.1409 11.1479C33.0952 10.92 33.1181 10.6837 33.2067 10.4688C33.2953 10.2539 33.4457 10.0702 33.6388 9.94078C33.8319 9.81139 34.0591 9.74218 34.2915 9.74191C34.6028 9.74191 34.9014 9.86528 35.1219 10.085C35.3423 10.3047 35.4667 10.6029 35.4678 10.9141Z" fill="#7B6E7F"/>
<path id="Vector_8" d="M24.7559 10.9141C24.7564 11.1466 24.688 11.374 24.5593 11.5675C24.4306 11.7611 24.2474 11.9121 24.0328 12.0015C23.8182 12.0909 23.582 12.1146 23.3539 12.0697C23.1258 12.0248 22.9162 11.9132 22.7516 11.7491C22.5869 11.585 22.4747 11.3758 22.4289 11.1479C22.3832 10.92 22.4062 10.6837 22.4948 10.4688C22.5834 10.2539 22.7338 10.0702 22.9269 9.94078C23.12 9.81139 23.3472 9.74218 23.5796 9.74191C23.8909 9.74191 24.1895 9.86528 24.4099 10.085C24.6304 10.3047 24.7548 10.6029 24.7559 10.9141Z" fill="#7B6E7F"/>
<path id="Vector_9" d="M30.1458 1.88943C30.1463 2.12187 30.0779 2.34925 29.9492 2.5428C29.8205 2.73634 29.6372 2.88736 29.4227 2.97675C29.2081 3.06613 28.9719 3.08987 28.7438 3.04495C28.5157 3.00003 28.3061 2.88848 28.1415 2.7244C27.9768 2.56033 27.8646 2.3511 27.8188 2.1232C27.7731 1.8953 27.796 1.65896 27.8847 1.44408C27.9733 1.22921 28.1237 1.04545 28.3168 0.916059C28.5099 0.78667 28.7371 0.717463 28.9695 0.717194C29.2808 0.717192 29.5793 0.840565 29.7998 1.06029C30.0203 1.28001 30.1447 1.57816 30.1458 1.88943Z" fill="#7B6E7F"/>
<path id="Vector_10" d="M26.924 2.17333H24.0349C23.9628 2.16834 23.8953 2.1362 23.846 2.08338C23.7967 2.03056 23.7693 1.961 23.7693 1.88876C23.7693 1.81651 23.7967 1.74695 23.846 1.69413C23.8953 1.64132 23.9628 1.60917 24.0349 1.60419H26.924C26.9961 1.60917 27.0636 1.64132 27.1129 1.69413C27.1622 1.74695 27.1896 1.81651 27.1896 1.88876C27.1896 1.961 27.1622 2.03056 27.1129 2.08338C27.0636 2.1362 26.9961 2.16834 26.924 2.17333Z" fill="#7B6E7F"/>
<path id="Vector_11" d="M30.0223 18.4909C29.9716 18.4915 29.9217 18.4778 29.8783 18.4515C29.8461 18.4325 29.8181 18.4073 29.7957 18.3774C29.7733 18.3474 29.757 18.3134 29.7478 18.2772C29.7386 18.241 29.7366 18.2033 29.742 18.1663C29.7474 18.1293 29.76 18.0938 29.7792 18.0617L33.0323 12.5469C33.0707 12.482 33.1333 12.4351 33.2062 12.4164C33.2792 12.3976 33.3567 12.4087 33.4215 12.447C33.4864 12.4854 33.5333 12.548 33.552 12.6209C33.5707 12.6939 33.5597 12.7713 33.5213 12.8362L30.2614 18.351C30.2357 18.3927 30.1997 18.4271 30.1569 18.4509C30.1141 18.4747 30.0658 18.4871 30.0169 18.4868" fill="#7B6E7F"/>
<path id="Vector_12" d="M24.657 9.47841C24.6063 9.47898 24.5564 9.46533 24.513 9.43901C24.4482 9.4008 24.4012 9.33842 24.3823 9.26558C24.3635 9.19273 24.3743 9.11539 24.4125 9.05053L27.6847 3.50313C27.7037 3.47066 27.7289 3.44226 27.7589 3.41953C27.7888 3.39681 27.823 3.38021 27.8594 3.37069C27.8958 3.36117 27.9337 3.3589 27.971 3.36403C28.0082 3.36916 28.0441 3.38158 28.0766 3.40057C28.109 3.41957 28.1374 3.44478 28.1602 3.47475C28.1829 3.50473 28.1995 3.53888 28.209 3.57527C28.2185 3.61166 28.2208 3.64957 28.2157 3.68683C28.2105 3.7241 28.1981 3.75999 28.1791 3.79245L24.9028 9.3385C24.8772 9.38023 24.8412 9.41465 24.7984 9.43844C24.7556 9.46223 24.7073 9.47459 24.6583 9.47433" fill="#7B6E7F"/>
<path id="Vector_13" d="M20.7081 16.1356C20.6574 16.1361 20.6075 16.1225 20.5641 16.0962C20.4995 16.0574 20.4527 15.9948 20.4339 15.9219C20.4151 15.8489 20.4257 15.7715 20.4636 15.7063L22.3503 12.5129C22.3885 12.4482 22.4508 12.4014 22.5235 12.3827C22.5963 12.3639 22.6734 12.3749 22.7381 12.4131C22.8028 12.4512 22.8496 12.5136 22.8683 12.5863C22.8871 12.659 22.8761 12.7362 22.8379 12.8009L20.9512 15.9943C20.9256 16.036 20.8896 16.0704 20.8468 16.0942C20.804 16.118 20.7557 16.1304 20.7067 16.1301" fill="#7B6E7F"/>
<path id="Vector_14" d="M33.2756 9.47841C33.2265 9.47893 33.1782 9.46669 33.1353 9.44287C33.0925 9.41905 33.0565 9.38449 33.0311 9.34258L29.7779 3.82505C29.7589 3.79294 29.7464 3.75741 29.7411 3.72048C29.7359 3.68354 29.7379 3.64593 29.7472 3.6098C29.7659 3.53681 29.8129 3.47426 29.8777 3.43589C29.9426 3.39753 30.02 3.38649 30.093 3.40521C30.1659 3.42394 30.2285 3.47088 30.2669 3.53573L33.5201 9.05053C33.5391 9.0826 33.5517 9.11812 33.5569 9.15506C33.5622 9.19199 33.5601 9.2296 33.5507 9.26572C33.5414 9.30184 33.525 9.33575 33.5025 9.36549C33.48 9.39523 33.4518 9.42022 33.4195 9.43902C33.3762 9.46533 33.3263 9.47898 33.2756 9.47841Z" fill="#7B6E7F"/>
<path id="Vector_15" d="M22.5976 9.47841C22.5485 9.47893 22.5002 9.46668 22.4573 9.44287C22.4145 9.41905 22.3785 9.38449 22.3531 9.34257L21.4987 7.89867C21.46 7.83365 21.4486 7.7559 21.4672 7.68254C21.4858 7.60917 21.5328 7.5462 21.5978 7.50747C21.6629 7.46875 21.7406 7.45744 21.814 7.47603C21.8873 7.49463 21.9503 7.54161 21.989 7.60663L22.8434 9.05053C22.8625 9.0827 22.8751 9.11833 22.8804 9.15537C22.8857 9.19241 22.8836 9.23012 22.8742 9.26635C22.8649 9.30258 22.8485 9.33661 22.8259 9.36647C22.8034 9.39633 22.7752 9.42145 22.7429 9.44037C22.6993 9.46624 22.6496 9.47985 22.5989 9.47976" fill="#7B6E7F"/>
<path id="Vector_16" d="M27.9318 18.4909C27.8827 18.4914 27.8344 18.4792 27.7915 18.4553C27.7487 18.4315 27.7127 18.397 27.6873 18.3551L24.4137 12.8076C24.3752 12.7428 24.364 12.6653 24.3826 12.5922C24.4012 12.5191 24.448 12.4564 24.5129 12.4178C24.5777 12.3793 24.6552 12.3681 24.7283 12.3866C24.8014 12.4052 24.8642 12.4521 24.9027 12.517L28.179 18.0657C28.2168 18.1307 28.2274 18.2079 28.2086 18.2806C28.1898 18.3534 28.143 18.4157 28.0785 18.4542C28.0351 18.4805 27.9852 18.4942 27.9345 18.4936" fill="#7B6E7F"/>
<path id="Vector_17" d="M32.2445 11.198H25.6281C25.5528 11.198 25.4806 11.1681 25.4274 11.1149C25.3741 11.0616 25.3442 10.9894 25.3442 10.9141C25.3442 10.8388 25.3741 10.7666 25.4274 10.7134C25.4806 10.6602 25.5528 10.6302 25.6281 10.6302H32.2445C32.3198 10.6302 32.392 10.6602 32.4453 10.7134C32.4985 10.7666 32.5284 10.8388 32.5284 10.9141C32.5284 10.9894 32.4985 11.0616 32.4453 11.1149C32.392 11.1681 32.3198 11.198 32.2445 11.198Z" fill="#7B6E7F"/>
<path id="Vector_18" d="M38.6136 18.4909C38.5645 18.4914 38.5162 18.4792 38.4733 18.4553C38.4305 18.4315 38.3945 18.397 38.3691 18.3551L35.0982 12.8076C35.06 12.7426 35.0493 12.6651 35.0682 12.5921C35.0872 12.5191 35.1344 12.4567 35.1994 12.4185C35.2645 12.3803 35.342 12.3695 35.415 12.3885C35.4879 12.4075 35.5504 12.4547 35.5886 12.5197L38.8594 18.0657C38.8785 18.0979 38.8911 18.1335 38.8964 18.1706C38.9017 18.2076 38.8996 18.2453 38.8902 18.2815C38.8809 18.3178 38.8645 18.3518 38.842 18.3817C38.8194 18.4115 38.7912 18.4366 38.7589 18.4556C38.7156 18.4819 38.6657 18.4955 38.6149 18.495" fill="#7B6E7F"/>
<path id="Vector_19" d="M21.5328 10.6303C21.6081 10.6303 21.6803 10.6602 21.7335 10.7134C21.7868 10.7667 21.8167 10.8389 21.8167 10.9142C21.8167 10.9894 21.7868 11.0617 21.7335 11.1149C21.6803 11.1681 21.6081 11.198 21.5328 11.198H19.3989C19.3268 11.1931 19.2593 11.1609 19.21 11.1081C19.1607 11.0553 19.1333 10.9857 19.1333 10.9135C19.1333 10.8412 19.1607 10.7717 19.21 10.7189C19.2593 10.666 19.3268 10.6339 19.3989 10.6289H21.5328V10.6303Z" fill="#7B6E7F"/>
<path id="Vector_20" d="M26.9239 20.2839H23.2483C23.2093 20.2866 23.1701 20.2812 23.1332 20.2682C23.0964 20.2551 23.0626 20.2346 23.034 20.2079C23.0054 20.1812 22.9826 20.1489 22.967 20.113C22.9514 20.0771 22.9434 20.0384 22.9434 19.9993C22.9434 19.9602 22.9514 19.9215 22.967 19.8856C22.9826 19.8498 23.0054 19.8175 23.034 19.7908C23.0626 19.7641 23.0964 19.7436 23.1332 19.7305C23.1701 19.7174 23.2093 19.7121 23.2483 19.7148H26.9239C26.996 19.7197 27.0635 19.7519 27.1128 19.8047C27.1621 19.8575 27.1895 19.9271 27.1895 19.9993C27.1895 20.0716 27.1621 20.1411 27.1128 20.194C27.0635 20.2468 26.996 20.2789 26.9239 20.2839Z" fill="#7B6E7F"/>
<path id="Vector_21" d="M37.6344 20.2839H31.0207C30.9817 20.2866 30.9426 20.2812 30.9057 20.2682C30.8688 20.2551 30.835 20.2346 30.8064 20.2079C30.7778 20.1812 30.755 20.1489 30.7395 20.113C30.7239 20.0771 30.7158 20.0384 30.7158 19.9993C30.7158 19.9602 30.7239 19.9215 30.7395 19.8856C30.755 19.8498 30.7778 19.8175 30.8064 19.7908C30.835 19.7641 30.8688 19.7436 30.9057 19.7305C30.9426 19.7174 30.9817 19.7121 31.0207 19.7148H37.6344C37.7065 19.7197 37.774 19.7519 37.8233 19.8047C37.8726 19.8575 37.9 19.9271 37.9 19.9993C37.9 20.0716 37.8726 20.1411 37.8233 20.194C37.774 20.2468 37.7065 20.2789 37.6344 20.2839Z" fill="#7B6E7F"/>
<path id="Vector_22" d="M5.35912 15.6683C6.2994 15.6683 7.21857 15.3895 8.00038 14.8671C8.7822 14.3447 9.39155 13.6022 9.75138 12.7335C10.1112 11.8648 10.2054 10.9089 10.0219 9.98666C9.83848 9.06445 9.38569 8.21734 8.72081 7.55246C8.05593 6.88758 7.20882 6.43479 6.28661 6.25136C5.3644 6.06792 4.4085 6.16206 3.53979 6.52189C2.67109 6.88172 1.92859 7.49107 1.4062 8.27289C0.883806 9.0547 0.60498 9.97387 0.60498 10.9141C0.60498 12.175 1.10586 13.3843 1.99744 14.2758C2.88901 15.1674 4.09825 15.6683 5.35912 15.6683Z" fill="#7B6E7F"/>
<path id="Vector_23" d="M11.4363 10.9142C11.4363 11.6027 11.6405 12.2758 12.023 12.8483C12.4055 13.4208 12.9493 13.867 13.5854 14.1305C14.2215 14.394 14.9215 14.463 15.5969 14.3287C16.2722 14.1943 16.8925 13.8628 17.3794 13.3759C17.8663 12.889 18.1978 12.2687 18.3322 11.5933C18.4665 10.918 18.3976 10.218 18.1341 9.58189C17.8706 8.94575 17.4243 8.40203 16.8518 8.01949C16.2793 7.63695 15.6062 7.43277 14.9177 7.43277C13.9947 7.43385 13.1098 7.80098 12.4571 8.45364C11.8045 9.10629 11.4374 9.99117 11.4363 10.9142Z" fill="#7B6E7F"/>
<path id="Vector_24" d="M3.43717 22.4382C3.91911 22.4369 4.38984 22.2927 4.78991 22.024C5.18997 21.7553 5.50143 21.374 5.68493 20.9284C5.86843 20.4827 5.91574 19.9927 5.8209 19.5202C5.72605 19.0477 5.49331 18.6139 5.15205 18.2736C4.81079 17.9333 4.37634 17.7017 3.90356 17.6082C3.43078 17.5147 2.94089 17.5633 2.49576 17.7481C2.05064 17.9328 1.67024 18.2453 1.40263 18.6461C1.13502 19.0469 0.992189 19.5181 0.992188 20C0.993985 20.6473 1.25238 21.2674 1.7107 21.7245C2.16903 22.1816 2.7899 22.4382 3.43717 22.4382Z" fill="#7B6E7F"/>
<path id="Vector_25" d="M19.8931 7.22087C20.6072 7.22087 21.3053 7.00912 21.899 6.6124C22.4927 6.21568 22.9555 5.65181 23.2288 4.99209C23.502 4.33237 23.5735 3.60643 23.4342 2.90607C23.2949 2.20572 22.951 1.5624 22.4461 1.05747C21.9412 0.552545 21.2979 0.208684 20.5975 0.0693751C19.8972 -0.0699343 19.1712 0.00156433 18.5115 0.274829C17.8518 0.548094 17.2879 1.01085 16.8912 1.60459C16.4945 2.19832 16.2827 2.89636 16.2827 3.61043C16.2838 4.56765 16.6645 5.48535 17.3414 6.1622C18.0182 6.83906 18.9359 7.21979 19.8931 7.22087Z" fill="#7B6E7F"/>
<path id="Vector_26" d="M18.6136 23.6104C19.3277 23.6104 20.0257 23.3987 20.6195 23.002C21.2132 22.6052 21.6759 22.0414 21.9492 21.3816C22.2225 20.7219 22.294 19.996 22.1547 19.2956C22.0154 18.5953 21.6715 17.952 21.1666 17.447C20.6616 16.9421 20.0183 16.5982 19.318 16.4589C18.6176 16.3196 17.8917 16.3911 17.232 16.6644C16.5722 16.9377 16.0084 17.4004 15.6116 17.9941C15.2149 18.5879 15.0032 19.2859 15.0032 20C15.0043 20.9572 15.385 21.8749 16.0618 22.5518C16.7387 23.2286 17.6564 23.6093 18.6136 23.6104Z" fill="#7B6E7F"/>
<path id="Vector_27" d="M11.121 6.46562C11.6852 6.46562 12.2367 6.29833 12.7058 5.98489C13.1749 5.67146 13.5405 5.22596 13.7564 4.70474C13.9723 4.18351 14.0288 3.60997 13.9187 3.05665C13.8087 2.50332 13.537 1.99505 13.1381 1.59613C12.7391 1.1972 12.2309 0.925525 11.6775 0.815462C11.1242 0.705398 10.5507 0.761887 10.0294 0.977784C9.50822 1.19368 9.06272 1.55929 8.74929 2.02838C8.43585 2.49747 8.26855 3.04897 8.26855 3.61314C8.26855 4.36966 8.56908 5.0952 9.10403 5.63015C9.63897 6.16509 10.3645 6.46562 11.121 6.46562Z" fill="#7B6E7F"/>
<path id="Vector_28" d="M10.4079 22.8552C10.9721 22.8552 11.5236 22.6879 11.9927 22.3745C12.4618 22.061 12.8274 21.6155 13.0433 21.0943C13.2592 20.5731 13.3156 19.9996 13.2056 19.4462C13.0955 18.8929 12.8238 18.3846 12.4249 17.9857C12.026 17.5868 11.5177 17.3151 10.9644 17.205C10.4111 17.095 9.83753 17.1515 9.31631 17.3674C8.79508 17.5833 8.34959 17.9489 8.03615 18.418C7.72272 18.8871 7.55542 19.4386 7.55542 20.0027C7.55542 20.7593 7.85595 21.4848 8.39089 22.0197C8.92584 22.5547 9.65138 22.8552 10.4079 22.8552Z" fill="#7B6E7F"/>
<path id="Vector_29" d="M35.4678 29.0872C35.4684 28.8548 35.3999 28.6274 35.2712 28.4338C35.1425 28.2403 34.9593 28.0893 34.7447 27.9999C34.5301 27.9105 34.2939 27.8868 34.0658 27.9317C33.8378 27.9766 33.6281 28.0882 33.4635 28.2522C33.2989 28.4163 33.1866 28.6255 33.1409 28.8534C33.0952 29.0813 33.1181 29.3177 33.2067 29.5326C33.2953 29.7474 33.4457 29.9312 33.6388 30.0606C33.8319 30.19 34.0591 30.2592 34.2915 30.2595C34.6028 30.2595 34.9014 30.1361 35.1219 29.9164C35.3423 29.6966 35.4667 29.3985 35.4678 29.0872Z" fill="#7B6E7F"/>
<path id="Vector_30" d="M24.7559 29.0872C24.7564 28.8548 24.688 28.6274 24.5593 28.4338C24.4306 28.2403 24.2474 28.0893 24.0328 27.9999C23.8182 27.9105 23.582 27.8868 23.3539 27.9317C23.1258 27.9766 22.9162 28.0882 22.7516 28.2522C22.5869 28.4163 22.4747 28.6255 22.4289 28.8534C22.3832 29.0813 22.4062 29.3177 22.4948 29.5326C22.5834 29.7474 22.7338 29.9312 22.9269 30.0606C23.12 30.19 23.3472 30.2592 23.5796 30.2595C23.8909 30.2595 24.1895 30.1361 24.4099 29.9164C24.6304 29.6966 24.7548 29.3985 24.7559 29.0872Z" fill="#7B6E7F"/>
<path id="Vector_31" d="M30.1458 38.1106C30.1463 37.8781 30.0779 37.6507 29.9492 37.4572C29.8205 37.2636 29.6372 37.1126 29.4227 37.0232C29.2081 36.9339 28.9719 36.9101 28.7438 36.955C28.5157 37 28.3061 37.1115 28.1415 37.2756C27.9768 37.4397 27.8646 37.6489 27.8188 37.8768C27.7731 38.1047 27.796 38.341 27.8847 38.5559C27.9733 38.7708 28.1237 38.9545 28.3168 39.0839C28.5099 39.2133 28.7371 39.2825 28.9695 39.2828C29.2808 39.2828 29.5793 39.1594 29.7998 38.9397C30.0203 38.72 30.1447 38.4218 30.1458 38.1106Z" fill="#7B6E7F"/>
<path id="Vector_32" d="M26.924 37.8267H24.0349C23.9628 37.8317 23.8953 37.8638 23.846 37.9166C23.7967 37.9695 23.7693 38.039 23.7693 38.1113C23.7693 38.1835 23.7967 38.2531 23.846 38.3059C23.8953 38.3587 23.9628 38.3908 24.0349 38.3958H26.924C26.9961 38.3908 27.0636 38.3587 27.1129 38.3059C27.1622 38.2531 27.1896 38.1835 27.1896 38.1113C27.1896 38.039 27.1622 37.9695 27.1129 37.9166C27.0636 37.8638 26.9961 37.8317 26.924 37.8267Z" fill="#7B6E7F"/>
<path id="Vector_33" d="M30.0223 21.5105C29.9716 21.5099 29.9217 21.5235 29.8783 21.5498C29.8461 21.5689 29.8181 21.5941 29.7957 21.624C29.7733 21.6539 29.757 21.688 29.7478 21.7242C29.7386 21.7604 29.7366 21.7981 29.742 21.8351C29.7474 21.872 29.76 21.9076 29.7792 21.9397L33.0323 27.4545C33.0707 27.5193 33.1333 27.5663 33.2062 27.585C33.2792 27.6037 33.3567 27.5927 33.4215 27.5543C33.4864 27.516 33.5333 27.4534 33.552 27.3804C33.5707 27.3074 33.5597 27.23 33.5213 27.1652L30.2614 21.6504C30.2357 21.6086 30.1997 21.5742 30.1569 21.5504C30.1141 21.5266 30.0658 21.5143 30.0169 21.5145" fill="#7B6E7F"/>
<path id="Vector_34" d="M24.6569 30.523C24.6057 30.5221 24.5553 30.5358 24.5115 30.5623C24.4467 30.6006 24.3997 30.6629 24.3809 30.7358C24.362 30.8086 24.3729 30.886 24.411 30.9508L27.6832 36.4982C27.724 36.5582 27.786 36.6005 27.8568 36.6163C27.9276 36.6322 28.0017 36.6205 28.0642 36.5837C28.1266 36.5468 28.1727 36.4875 28.193 36.4179C28.2133 36.3483 28.2064 36.2736 28.1736 36.2089L24.9014 30.6629C24.8757 30.6211 24.8397 30.5867 24.7969 30.5629C24.7541 30.5391 24.7059 30.5268 24.6569 30.527" fill="#7B6E7F"/>
<path id="Vector_35" d="M20.7082 23.8644C20.66 23.8662 20.6131 23.8807 20.5724 23.9065C20.5078 23.9453 20.461 24.0079 20.4422 24.0808C20.4234 24.1538 20.434 24.2312 20.4719 24.2964L22.3586 27.4898C22.3775 27.5218 22.4025 27.5498 22.4323 27.5722C22.462 27.5945 22.4958 27.6108 22.5318 27.62C22.5678 27.6293 22.6053 27.6314 22.6421 27.6262C22.679 27.621 22.7144 27.6086 22.7464 27.5897C22.7784 27.5707 22.8064 27.5457 22.8288 27.516C22.8511 27.4863 22.8674 27.4524 22.8767 27.4164C22.8859 27.3804 22.888 27.3429 22.8828 27.3061C22.8776 27.2693 22.8652 27.2339 22.8463 27.2018L20.9595 24.0084C20.9339 23.9667 20.8979 23.9323 20.8551 23.9085C20.8123 23.8847 20.764 23.8723 20.715 23.8726" fill="#7B6E7F"/>
<path id="Vector_36" d="M33.2756 30.523C33.2265 30.5224 33.1782 30.5347 33.1353 30.5585C33.0925 30.5823 33.0565 30.6169 33.0311 30.6588L29.7779 36.1722C29.7589 36.2043 29.7464 36.2399 29.7411 36.2768C29.7359 36.3137 29.7379 36.3514 29.7472 36.3875C29.7565 36.4236 29.7728 36.4576 29.7952 36.4874C29.8175 36.5173 29.8456 36.5424 29.8777 36.5614C29.9098 36.5804 29.9454 36.5929 29.9823 36.5981C30.0192 36.6034 30.0568 36.6013 30.093 36.5921C30.1291 36.5828 30.1631 36.5665 30.1929 36.5441C30.2227 36.5217 30.2479 36.4937 30.2669 36.4616L33.5201 30.9468C33.5391 30.9147 33.5517 30.8792 33.5569 30.8422C33.5622 30.8053 33.5601 30.7677 33.5507 30.7316C33.5414 30.6954 33.525 30.6615 33.5025 30.6318C33.48 30.6021 33.4518 30.5771 33.4195 30.5583C33.3762 30.532 33.3263 30.5183 33.2756 30.5189" fill="#7B6E7F"/>
<path id="Vector_37" d="M22.5975 30.523C22.5485 30.5224 22.5002 30.5347 22.4573 30.5585C22.4144 30.5823 22.3785 30.6169 22.353 30.6588L21.4986 32.1027C21.4658 32.1674 21.4589 32.2421 21.4792 32.3117C21.4995 32.3813 21.5456 32.4406 21.6081 32.4774C21.6705 32.5143 21.7447 32.526 21.8154 32.5101C21.8862 32.4942 21.9483 32.452 21.989 32.392L22.8434 30.9481C22.8809 30.8838 22.8917 30.8074 22.8734 30.7352C22.8551 30.6631 22.8092 30.601 22.7456 30.5624C22.702 30.5365 22.6523 30.5229 22.6016 30.523" fill="#7B6E7F"/>
<path id="Vector_38" d="M27.9318 21.5105C27.8827 21.5099 27.8344 21.5222 27.7915 21.546C27.7487 21.5698 27.7127 21.6044 27.6873 21.6463L24.4137 27.1937C24.3946 27.2258 24.3821 27.2614 24.3767 27.2983C24.3714 27.3353 24.3733 27.3729 24.3826 27.4091C24.3918 27.4453 24.408 27.4794 24.4304 27.5093C24.4527 27.5392 24.4808 27.5644 24.5129 27.5835C24.545 27.6026 24.5805 27.6152 24.6175 27.6205C24.6545 27.6259 24.6921 27.6239 24.7283 27.6147C24.7645 27.6055 24.7986 27.5892 24.8285 27.5669C24.8584 27.5445 24.8836 27.5165 24.9027 27.4844L28.179 21.9397C28.2168 21.8747 28.2274 21.7975 28.2086 21.7248C28.1898 21.652 28.143 21.5897 28.0785 21.5512C28.0351 21.5249 27.9852 21.5112 27.9345 21.5118" fill="#7B6E7F"/>
<path id="Vector_39" d="M32.2445 28.8033H25.6281C25.5528 28.8033 25.4806 28.8332 25.4274 28.8865C25.3741 28.9397 25.3442 29.0119 25.3442 29.0872C25.3442 29.1625 25.3741 29.2347 25.4274 29.2879C25.4806 29.3412 25.5528 29.3711 25.6281 29.3711H32.2445C32.3198 29.3711 32.392 29.3412 32.4453 29.2879C32.4985 29.2347 32.5284 29.1625 32.5284 29.0872C32.5284 29.0119 32.4985 28.9397 32.4453 28.8865C32.392 28.8332 32.3198 28.8033 32.2445 28.8033Z" fill="#7B6E7F"/>
<path id="Vector_40" d="M38.6136 21.5105C38.5645 21.5099 38.5162 21.5222 38.4733 21.546C38.4305 21.5698 38.3945 21.6044 38.3691 21.6463L35.0982 27.1937C35.06 27.2587 35.0493 27.3362 35.0682 27.4092C35.0872 27.4822 35.1344 27.5447 35.1994 27.5829C35.2645 27.621 35.342 27.6318 35.415 27.6129C35.4879 27.5939 35.5504 27.5467 35.5886 27.4817L38.8594 21.9397C38.8785 21.9075 38.8911 21.8719 38.8964 21.8348C38.9017 21.7978 38.8996 21.7601 38.8902 21.7239C38.8809 21.6876 38.8645 21.6536 38.842 21.6237C38.8194 21.5939 38.7912 21.5688 38.7589 21.5498C38.7156 21.5235 38.6657 21.5099 38.6149 21.5105" fill="#7B6E7F"/>
<path id="Vector_41" d="M21.5328 29.3711C21.6081 29.3711 21.6803 29.3412 21.7335 29.2879C21.7868 29.2347 21.8167 29.1625 21.8167 29.0872C21.8167 29.0119 21.7868 28.9397 21.7335 28.8865C21.6803 28.8332 21.6081 28.8033 21.5328 28.8033H19.3989C19.3268 28.8083 19.2593 28.8404 19.21 28.8933C19.1607 28.9461 19.1333 29.0156 19.1333 29.0879C19.1333 29.1601 19.1607 29.2297 19.21 29.2825C19.2593 29.3353 19.3268 29.3675 19.3989 29.3725H21.5328V29.3711Z" fill="#7B6E7F"/>
<path id="Vector_42" d="M5.35912 24.3331C6.2994 24.3331 7.21857 24.6119 8.00038 25.1343C8.7822 25.6567 9.39155 26.3992 9.75138 27.2679C10.1112 28.1366 10.2054 29.0925 10.0219 30.0147C9.83848 30.9369 9.38569 31.784 8.72081 32.4489C8.05593 33.1138 7.20882 33.5666 6.28661 33.75C5.3644 33.9334 4.4085 33.8393 3.53979 33.4795C2.67109 33.1196 1.92859 32.5103 1.4062 31.7285C0.883806 30.9467 0.60498 30.0275 0.60498 29.0872C0.60498 27.8263 1.10586 26.6171 1.99744 25.7255C2.88901 24.834 4.09825 24.3331 5.35912 24.3331Z" fill="#7B6E7F"/>
<path id="Vector_43" d="M11.4363 29.0872C11.4363 28.3986 11.6405 27.7256 12.023 27.153C12.4055 26.5805 12.9493 26.1343 13.5854 25.8708C14.2215 25.6073 14.9215 25.5384 15.5969 25.6727C16.2722 25.807 16.8925 26.1386 17.3794 26.6255C17.8663 27.1124 18.1978 27.7327 18.3322 28.408C18.4665 29.0833 18.3976 29.7833 18.1341 30.4195C17.8706 31.0556 17.4243 31.5993 16.8518 31.9819C16.2793 32.3644 15.6062 32.5686 14.9177 32.5686C13.9947 32.5675 13.1098 32.2004 12.4571 31.5477C11.8045 30.8951 11.4374 30.0102 11.4363 29.0872Z" fill="#7B6E7F"/>
<path id="Vector_44" d="M19.8931 32.7791C20.6072 32.7791 21.3053 32.9909 21.899 33.3876C22.4927 33.7843 22.9555 34.3482 23.2288 35.0079C23.502 35.6676 23.5735 36.3936 23.4342 37.0939C23.2949 37.7943 22.951 38.4376 22.4461 38.9425C21.9412 39.4475 21.2979 39.7913 20.5975 39.9306C19.8972 40.0699 19.1712 39.9984 18.5115 39.7252C17.8518 39.4519 17.2879 38.9892 16.8912 38.3954C16.4945 37.8017 16.2827 37.1037 16.2827 36.3896C16.2838 35.4324 16.6645 34.5147 17.3414 33.8378C18.0182 33.161 18.9359 32.7802 19.8931 32.7791Z" fill="#7B6E7F"/>
<path id="Vector_45" d="M11.121 33.5344C11.6852 33.5344 12.2367 33.7017 12.7058 34.0151C13.1749 34.3285 13.5405 34.774 13.7564 35.2953C13.9723 35.8165 14.0288 36.39 13.9187 36.9433C13.8087 37.4967 13.537 38.0049 13.1381 38.4039C12.7391 38.8028 12.2309 39.0745 11.6775 39.1845C11.1242 39.2946 10.5507 39.2381 10.0294 39.0222C9.50822 38.8063 9.06272 38.4407 8.74929 37.9716C8.43585 37.5025 8.26855 36.951 8.26855 36.3868C8.26855 35.6303 8.56908 34.9048 9.10403 34.3698C9.63897 33.8349 10.3645 33.5344 11.121 33.5344Z" fill="#7B6E7F"/>
</g>
<defs>
<clipPath id="clip0_12987_62013">
<rect width="135.853" height="40" fill="white" transform="translate(0.60498)"/>
</clipPath>
</defs>
</svg>
