<svg width="178" height="40" viewBox="0 0 178 40" fill="none" xmlns="http://www.w3.org/2000/svg">
<g id="MiT Massachusetts Institute of Technology">
<g id="Union">
<path d="M12.4727 3.33334H5.65308V34.7643H12.4727V3.33334Z" fill="#7B6E7F"/>
<path d="M23.5547 3.33334H16.735V24.8387H23.5547V3.33334Z" fill="#7B6E7F"/>
<path d="M67.03 3.33334H49.9809V9.95039H67.03V3.33334Z" fill="#7B6E7F"/>
<path d="M27.817 3.33334H34.6366V34.7643H27.817V3.33334Z" fill="#7B6E7F"/>
<path d="M49.9809 14.0862H56.8005V34.7645H49.9809V14.0862Z" fill="#7B6E7F"/>
<path d="M45.7186 3.33334H38.8989V9.95039H45.7186V3.33334Z" fill="#7B6E7F"/>
<path d="M38.8989 14.0862H45.7186V34.7645H38.8989V14.0862Z" fill="#7B6E7F"/>
<path d="M81.5218 3.33334H84.3349L85.6988 8.79241L87.0628 3.33334H89.7906V10.6948H88.0005V4.98761L86.466 10.6948H84.7611L83.2267 4.98761V10.6948H81.5218V3.33334Z" fill="#7B6E7F"/>
<path fill-rule="evenodd" clip-rule="evenodd" d="M96.1841 10.6947C96.0136 10.3638 96.0136 9.95025 96.0136 9.53668H96.0988V6.55901C96.0136 5.31831 95.0759 4.98746 93.5415 4.98746C92.7743 4.98746 91.3251 5.15289 91.2398 6.72444H92.8595C92.9447 6.14545 93.2005 5.98002 93.712 5.98002C94.1382 5.98002 94.4792 6.14545 94.4792 6.55901V7.05529L93.8824 7.138C92.0923 7.38614 90.9841 7.88242 90.9841 9.20583C90.9841 10.2811 91.7513 10.8601 92.8595 10.8601C93.4562 10.8601 94.3087 10.5292 94.5644 10.1157C94.5644 10.2811 94.5644 10.5292 94.6497 10.6947H96.1841ZM93.2857 8.29598L94.3939 7.96513V8.46141C94.3939 9.28854 93.9677 9.70211 93.2857 9.70211C92.8595 9.70211 92.5185 9.45397 92.5185 9.0404C92.5185 8.54413 92.8595 8.3787 93.2857 8.29598Z" fill="#7B6E7F"/>
<path d="M101.214 6.80715C100.873 6.39358 100.191 6.22816 99.6792 6.22816C99.2529 6.22816 98.9972 6.39358 98.9972 6.64172C98.9972 7.00456 99.5259 7.10432 100.162 7.22426C101.12 7.40508 102.322 7.63179 102.322 8.87498C102.322 10.3638 100.958 10.8601 99.7644 10.8601C98.571 10.8601 97.8038 10.5292 97.0365 9.78482L98.0595 8.87498C98.571 9.37126 99.0824 9.61939 99.8496 9.61939C100.105 9.61939 100.787 9.53668 100.787 9.0404C100.787 8.71594 100.276 8.62058 99.6539 8.50467C98.6906 8.32512 97.4628 8.09626 97.4628 6.88986C97.4628 5.48374 98.7415 4.98746 99.8496 4.98746C100.702 4.98746 101.555 5.31831 102.322 5.81459L101.214 6.80715Z" fill="#7B6E7F"/>
<path d="M105.646 6.22816C106.158 6.22816 106.84 6.39358 107.181 6.80715L108.289 5.81459C107.522 5.31831 106.669 4.98746 105.817 4.98746C104.709 4.98746 103.43 5.48374 103.43 6.88986C103.43 8.09626 104.658 8.32512 105.621 8.50467C106.243 8.62058 106.755 8.71594 106.755 9.0404C106.755 9.53668 106.073 9.61939 105.817 9.61939C105.05 9.61939 104.538 9.37126 104.027 8.87498L103.004 9.78482C103.771 10.5292 104.453 10.8601 105.732 10.8601C107.01 10.8601 108.289 10.3638 108.289 8.87498C108.289 7.63179 107.087 7.40508 106.129 7.22426C105.493 7.10432 104.964 7.00456 104.964 6.64172C104.964 6.39358 105.22 6.22816 105.646 6.22816Z" fill="#7B6E7F"/>
<path fill-rule="evenodd" clip-rule="evenodd" d="M114.171 9.53668C114.171 9.95025 114.171 10.3638 114.341 10.6947H112.807C112.722 10.5292 112.722 10.2811 112.722 10.1157C112.466 10.5292 111.614 10.8601 111.017 10.8601C109.909 10.8601 109.141 10.2811 109.141 9.20583C109.141 7.88242 110.25 7.38614 112.04 7.138L112.637 7.05529V6.55901C112.637 6.14545 112.296 5.98002 111.869 5.98002C111.358 5.98002 111.102 6.14545 111.017 6.72444H109.312C109.397 5.15289 110.846 4.98746 111.614 4.98746C113.148 4.98746 114.171 5.31831 114.171 6.55901V9.53668ZM112.637 7.96513L111.528 8.29598C111.102 8.3787 110.761 8.54413 110.761 9.0404C110.761 9.45397 111.102 9.70211 111.528 9.70211C112.21 9.70211 112.637 9.28854 112.637 8.46141V7.96513Z" fill="#7B6E7F"/>
<path d="M118.348 6.31115C118.604 6.31115 119.03 6.39386 119.371 7.05557L120.65 6.39386C120.053 5.48402 119.2 5.07045 118.092 5.07045C116.558 5.07045 115.279 6.14572 115.279 7.96541C115.279 9.7851 116.473 10.8604 118.177 10.8604C119.286 10.8604 120.223 10.2814 120.735 9.37154L119.541 8.79254C119.286 9.45425 118.859 9.61967 118.348 9.61967C117.496 9.61967 117.069 8.87526 117.069 7.96541C117.069 7.05557 117.41 6.31115 118.348 6.31115Z" fill="#7B6E7F"/>
<path d="M121.673 3.33334H123.292V5.73202C123.633 5.31846 124.315 5.07032 124.827 5.07032C126.02 5.07032 126.617 5.73202 126.617 6.80729V10.6948H124.997V7.38629C124.997 6.55916 124.486 6.31102 124.145 6.31102C123.804 6.31102 123.292 6.55916 123.292 7.55171V10.6948H121.673V3.33334Z" fill="#7B6E7F"/>
<path d="M131.561 10.6948H133.181L133.095 5.23572H131.476V8.70967C131.476 9.28866 131.135 9.5368 130.623 9.5368C130.027 9.5368 129.856 9.28866 129.856 8.79238V5.23572H128.236V9.28866C128.236 10.1158 128.577 10.8602 129.941 10.8602C130.453 10.8602 131.135 10.6948 131.561 10.1985V10.6948Z" fill="#7B6E7F"/>
<path d="M138.381 6.80715C138.04 6.39358 137.358 6.22816 136.846 6.22816C136.42 6.22816 136.164 6.39358 136.164 6.64172C136.164 7.00456 136.693 7.10432 137.329 7.22426C138.287 7.40508 139.489 7.63179 139.489 8.87498C139.489 10.3638 138.125 10.8601 136.932 10.8601C135.738 10.8601 134.971 10.5292 134.204 9.78482L135.227 8.87498C135.738 9.37126 136.25 9.61939 137.017 9.61939C137.273 9.61939 137.955 9.53668 137.955 9.0404C137.955 8.71594 137.443 8.62058 136.821 8.50467C135.858 8.32512 134.63 8.09626 134.63 6.88986C134.63 5.48374 135.909 4.98746 137.017 4.98746C137.869 4.98746 138.722 5.31831 139.489 5.81459L138.381 6.80715Z" fill="#7B6E7F"/>
<path fill-rule="evenodd" clip-rule="evenodd" d="M143.069 9.70239C142.558 9.70239 141.876 9.37153 141.876 8.29626H145.797C145.712 6.55929 145.03 5.07045 142.984 5.07045C141.194 5.07045 140.171 6.22844 140.171 8.13084C140.171 9.70239 141.194 10.8604 142.984 10.8604C144.263 10.8604 145.115 10.4468 145.712 9.37154L144.433 8.70983C144.007 9.37153 143.666 9.70239 143.069 9.70239ZM142.984 6.22844C143.41 6.22844 144.007 6.47658 144.092 7.30371H141.876C141.961 6.55929 142.558 6.22844 142.984 6.22844Z" fill="#7B6E7F"/>
<path d="M149.718 6.31126H148.695V9.04079C148.695 9.45436 148.951 9.61978 149.207 9.61978H149.718V10.8605C149.648 10.8605 149.519 10.8747 149.367 10.8913C149.153 10.9148 148.895 10.9432 148.695 10.9432C147.246 10.9432 147.076 10.1161 147.076 9.28893V6.39397H146.309V5.40141H147.076V3.82987H148.695V5.40141H149.718V6.31126Z" fill="#7B6E7F"/>
<path d="M152.446 6.31126H153.469V5.40141H152.446V3.82987H150.827V5.40141H150.059V6.39397H150.827V9.28893C150.827 10.1161 150.997 10.9432 152.446 10.9432C152.646 10.9432 152.904 10.9148 153.118 10.8913C153.27 10.8747 153.399 10.8605 153.469 10.8605V9.61978H152.958C152.702 9.61978 152.446 9.45436 152.446 9.04079V6.31126Z" fill="#7B6E7F"/>
<path d="M158.073 6.80715C157.732 6.39358 157.05 6.22816 156.538 6.22816C156.112 6.22816 155.856 6.39358 155.856 6.64172C155.856 7.00456 156.385 7.10432 157.021 7.22426C157.979 7.40508 159.181 7.63179 159.181 8.87498C159.181 10.3638 157.817 10.8601 156.623 10.8601C155.43 10.8601 154.663 10.5292 153.895 9.78482L154.918 8.87498C155.43 9.37126 155.941 9.61939 156.709 9.61939C156.964 9.61939 157.646 9.53668 157.646 9.0404C157.646 8.71594 157.135 8.62058 156.513 8.50467C155.55 8.32512 154.322 8.09626 154.322 6.88986C154.322 5.48374 155.6 4.98746 156.709 4.98746C157.561 4.98746 158.413 5.31831 159.181 5.81459L158.073 6.80715Z" fill="#7B6E7F"/>
<path d="M83.4825 15.3268H81.607V22.6882H83.4825V15.3268Z" fill="#7B6E7F"/>
<path d="M85.0169 17.2293H86.6366V17.7256C87.0628 17.2293 87.7448 17.0639 88.2562 17.0639C89.6202 17.0639 89.9611 17.8083 89.9611 18.6354V22.6884H88.3415V19.2144C88.3415 18.7181 88.171 18.3046 87.5743 18.3046C86.8923 18.3046 86.7218 18.7181 86.7218 19.2144V22.6057H85.0169V17.2293Z" fill="#7B6E7F"/>
<path d="M93.6267 18.2216C94.1382 18.2216 94.8202 18.387 95.1611 18.8006L96.2693 17.808C95.5021 17.3117 94.6497 16.9809 93.7972 16.9809C92.689 16.9809 91.4103 17.4772 91.4103 18.8833C91.4103 20.0897 92.6382 20.3185 93.6015 20.4981C94.2233 20.614 94.7349 20.7094 94.7349 21.0338C94.7349 21.5301 94.0529 21.6128 93.7972 21.6128C93.03 21.6128 92.5185 21.3647 92.007 20.8684L90.9841 21.7782C91.7513 22.5227 92.5185 22.8535 93.712 22.8535C94.9906 22.8535 96.2693 22.2745 96.2693 20.8684C96.2693 19.6252 95.0677 19.3985 94.1092 19.2177C93.4735 19.0977 92.9447 18.998 92.9447 18.6351C92.9447 18.387 93.2005 18.2216 93.6267 18.2216Z" fill="#7B6E7F"/>
<path d="M100.191 18.3044H99.1677V21.0339C99.1677 21.4475 99.4234 21.6129 99.6792 21.6129H100.191V22.8536C100.12 22.8536 99.991 22.8678 99.8397 22.8844C99.6258 22.9079 99.3674 22.9363 99.1677 22.9363C97.7185 22.9363 97.548 22.1092 97.548 21.2821V18.3871H96.7808V17.3119H97.548V15.7403H99.1677V17.3119H100.191V18.3044Z" fill="#7B6E7F"/>
<path d="M101.128 15.3268V16.5675H102.748V15.3268H101.128Z" fill="#7B6E7F"/>
<path d="M102.833 22.6882V17.2292H101.214V22.6882H102.833Z" fill="#7B6E7F"/>
<path d="M107.096 18.3044H106.073V21.0339C106.073 21.4475 106.328 21.6129 106.584 21.6129H107.096V22.8536C107.025 22.8536 106.896 22.8678 106.745 22.8844C106.531 22.908 106.272 22.9363 106.073 22.9363C104.623 22.9363 104.453 22.1092 104.453 21.2821V18.3871H103.686V17.3119H104.453V15.7403H106.073V17.3119H107.096V18.3044Z" fill="#7B6E7F"/>
<path d="M111.443 22.6882H113.063L112.977 17.2291H111.358V20.7031C111.358 21.2821 111.017 21.5302 110.505 21.5302C109.909 21.5302 109.738 21.2821 109.738 20.7858V17.2291H108.118V21.2821C108.118 22.1092 108.459 22.8536 109.823 22.8536C110.335 22.8536 111.017 22.6882 111.443 22.1919V22.6882Z" fill="#7B6E7F"/>
<path d="M117.325 18.3044H116.302V21.0339C116.302 21.4475 116.558 21.6129 116.814 21.6129H117.325V22.8536C117.254 22.8536 117.125 22.8678 116.974 22.8844C116.76 22.908 116.502 22.9363 116.302 22.9363C114.853 22.9363 114.682 22.1092 114.682 21.2821V18.3871H113.915V17.3119H114.682V15.7403H116.302V17.3119H117.325V18.3044Z" fill="#7B6E7F"/>
<path fill-rule="evenodd" clip-rule="evenodd" d="M120.735 21.6958C120.223 21.6958 119.541 21.365 119.541 20.2897H123.463C123.377 18.5527 122.696 17.0639 120.65 17.0639C118.859 17.0639 117.837 18.2219 117.837 20.1243C117.837 21.6958 118.859 22.8538 120.65 22.8538C121.928 22.8538 122.781 22.3575 123.377 21.365L122.099 20.7033C121.673 21.365 121.332 21.6958 120.735 21.6958ZM120.65 18.2219C121.076 18.2219 121.673 18.47 121.758 19.2971H119.541C119.627 18.5527 120.138 18.2219 120.65 18.2219Z" fill="#7B6E7F"/>
<path fill-rule="evenodd" clip-rule="evenodd" d="M133.181 19.9588C133.181 21.7785 131.902 22.8538 130.197 22.8538C128.407 22.8538 127.214 21.7785 127.214 19.9588C127.214 18.1392 128.492 17.0639 130.197 17.0639C131.987 17.0639 133.181 18.1392 133.181 19.9588ZM128.833 19.9588C128.833 20.8687 129.259 21.6131 130.197 21.6131C131.135 21.6131 131.561 20.8687 131.561 19.8761C131.561 18.9663 131.135 18.3046 130.197 18.3046C129.259 18.3046 128.833 19.049 128.833 19.9588Z" fill="#7B6E7F"/>
<path d="M133.692 18.3045H134.545V22.6883H136.164V18.3045H137.187V17.312H136.164V16.9811C136.164 16.6503 136.505 16.5675 136.761 16.5675H137.273V15.4096C137.017 15.3268 136.505 15.2441 136.164 15.2441C134.715 15.2441 134.545 16.0713 134.545 16.733V17.312H133.692V18.3045Z" fill="#7B6E7F"/>
<path d="M79.7317 27.4028H85.5284V28.809H83.5677V34.7643H81.6923V28.809H79.7317V27.4028Z" fill="#7B6E7F"/>
<path fill-rule="evenodd" clip-rule="evenodd" d="M88.0005 33.7719C87.489 33.7719 86.807 33.441 86.807 32.3657H90.7283C90.6431 30.7115 89.9611 29.1399 87.9152 29.1399C86.1251 29.1399 85.1021 30.2979 85.1021 32.2003C85.1021 33.7719 86.1251 34.9299 87.9152 34.9299C89.1939 34.9299 90.0464 34.4336 90.6431 33.441L89.3644 32.7793C88.9382 33.441 88.5972 33.7719 88.0005 33.7719ZM87.9152 30.2979C88.3415 30.2979 88.9382 30.5461 89.0234 31.3732H86.807C86.8923 30.6288 87.4038 30.2979 87.9152 30.2979Z" fill="#7B6E7F"/>
<path d="M95.5021 31.125C95.1611 30.4633 94.6497 30.3806 94.4792 30.3806C93.5415 30.3806 93.2005 31.1251 93.2005 32.0349C93.2005 32.9447 93.6267 33.6892 94.4792 33.6892C94.9907 33.6892 95.4169 33.5237 95.6726 32.862L96.8661 33.441C96.3546 34.3509 95.4169 34.9299 94.3087 34.9299C92.6038 34.9299 91.4103 33.8546 91.4103 32.0349C91.4103 30.2152 92.689 29.1399 94.2234 29.1399C95.3316 29.1399 96.1841 29.5535 96.7808 30.4633L95.5021 31.125Z" fill="#7B6E7F"/>
<path d="M99.4234 27.4028H97.8038V34.6816H99.4234V31.6212C99.4234 30.6286 99.9349 30.3805 100.276 30.3805C100.617 30.3805 101.128 30.6286 101.128 31.4558V34.7643H102.748V30.8768C102.748 29.8015 102.151 29.1398 100.958 29.1398C100.446 29.1398 99.7644 29.3879 99.4234 29.8015V27.4028Z" fill="#7B6E7F"/>
<path d="M104.282 29.2227H105.902V29.719C106.328 29.2227 107.01 29.0573 107.522 29.0573C108.886 29.0573 109.227 29.8017 109.227 30.6289V34.6818H107.607V31.2079C107.607 30.6289 107.437 30.298 106.84 30.298C106.158 30.298 105.987 30.7116 105.987 31.2079V34.5991H104.368L104.282 29.2227Z" fill="#7B6E7F"/>
<path fill-rule="evenodd" clip-rule="evenodd" d="M113.489 34.9299C115.194 34.9299 116.473 33.8546 116.473 32.0349C116.473 30.1325 115.194 29.1399 113.489 29.1399C111.784 29.1399 110.505 30.2152 110.505 32.0349C110.505 33.8546 111.699 34.9299 113.489 34.9299ZM113.404 33.6892C112.466 33.6892 112.04 32.9447 112.04 32.0349C112.04 31.0423 112.466 30.3806 113.404 30.3806C114.341 30.3806 114.768 31.0423 114.768 31.9522C114.768 32.9447 114.341 33.6892 113.404 33.6892Z" fill="#7B6E7F"/>
<path d="M117.496 34.7643V27.4028H119.115V34.7643H117.496Z" fill="#7B6E7F"/>
<path fill-rule="evenodd" clip-rule="evenodd" d="M123.292 34.9299C124.997 34.9299 126.276 33.8546 126.276 32.0349C126.276 30.1325 125.082 29.1399 123.292 29.1399C121.587 29.1399 120.309 30.2152 120.309 32.0349C120.309 33.8546 121.502 34.9299 123.292 34.9299ZM123.292 33.6892C122.355 33.6892 121.928 32.9447 121.928 32.0349C121.928 31.0423 122.355 30.3806 123.292 30.3806C124.23 30.3806 124.656 31.0423 124.656 31.9522C124.656 32.9447 124.23 33.6892 123.292 33.6892Z" fill="#7B6E7F"/>
<path fill-rule="evenodd" clip-rule="evenodd" d="M132.328 29.2227V34.7645C132.328 36.5015 130.453 36.5842 129.6 36.5842C127.896 36.5842 127.043 36.0052 126.958 34.6818H128.663C128.663 35.2608 129.004 35.5089 129.6 35.5089C130.197 35.5089 130.623 35.3435 130.623 34.5991V33.9374C130.282 34.2682 129.6 34.3509 129.089 34.3509C127.469 34.3509 126.873 33.1103 126.873 31.7041C126.873 30.3807 127.64 29.0573 129.089 29.0573C129.686 29.0573 130.282 29.2227 130.709 29.6363V29.2227H132.328ZM129.686 30.298C129.174 30.298 128.663 30.6289 128.663 31.7868C128.663 32.4485 128.833 33.2757 129.686 33.2757C130.709 33.2757 130.794 32.3658 130.794 31.7868C130.794 30.6289 130.197 30.298 129.686 30.298Z" fill="#7B6E7F"/>
<path d="M134.204 35.3433H133.607L133.692 36.6667H134.971C135.909 36.6667 136.335 36.005 136.591 35.1778L138.551 29.3052H136.761L135.823 33.5236L134.886 29.3052H133.181L134.8 34.3507C134.971 34.7643 134.971 34.847 134.971 34.9297C134.971 35.2606 134.715 35.3433 134.204 35.3433Z" fill="#7B6E7F"/>
</g>
</g>
</svg>
