<svg width="24" height="24" viewBox="0 0 24 24" fill="none" xmlns="http://www.w3.org/2000/svg">
<path d="M9.33691 13.154H7.86903C7.70267 13.154 7.54609 13.1735 7.38952 13.2225L7.27209 13.105C7.07637 12.9093 6.56751 12.5472 6.55772 12.283C6.54794 11.9699 7.23295 11.5882 7.27209 11.2946C7.32102 10.8934 6.62622 10.2084 6.67515 9.8072C6.72408 9.43534 7.50695 8.9754 7.56567 8.60354C7.64395 8.09467 6.87087 7.16501 6.93937 6.65615C6.97851 6.35279 7.50695 5.91242 7.59502 5.61885C7.72224 5.17848 7.38952 4.59314 7.65374 4.22128C7.86903 3.9277 8.71061 3.91792 9.00419 3.7222C9.37605 3.47755 9.79684 2.53811 10.2274 2.45004C10.6384 2.36196 11.3919 3.06655 11.8127 3.06655C12.1748 3.06655 12.8109 2.44025 13.1632 2.50875C13.6329 2.60661 14.0831 3.64391 14.5038 3.87877C14.7974 4.05492 16.0011 3.93749 16.2066 4.20171C16.5002 4.57357 16.0402 5.18827 16.2066 5.61885C16.4997 6.42486 16.8043 6.00024 17 7.00024C17.0881 7.45039 16.2066 8.29633 16.2066 8.75627C16.187 9.2847 16.7448 9.91484 16.6469 10.4335C16.6078 10.6096 16.2359 10.8445 16.2066 11.0304C16.187 11.1968 16.3142 11.4219 16.4414 11.6469C15.7564 11.6567 15.0616 11.9209 14.5332 12.4592L13.8775 13.154" stroke="#452B4F" stroke-width="1.5"/>
<path d="M6 22.0002V15.0327C6 14.1617 6.59694 13.4376 7.38959 13.2321C7.54617 13.1831 7.70274 13.1636 7.8691 13.1636H7.90824" stroke="#452B4F" stroke-width="1.5"/>
<path d="M17.4201 17.4692V20.2974H14.7583L17.4201 17.4692Z" stroke="#452B4F" stroke-width="1.5"/>
<path d="M18.448 12.469C17.9 11.9112 17.1661 11.6372 16.4419 11.6567C15.7569 11.6665 15.0621 11.9307 14.5337 12.469L13.878 13.1638L12.0872 15.0622L10.9227 16.305L7.92822 19.4756C8.02608 19.9454 8.43709 20.2977 8.93617 20.2977H14.7588L17.4205 17.4695L18.448 16.3833C18.996 15.8451 19.2603 15.1307 19.2603 14.4261C19.2603 13.7216 18.996 13.0072 18.448 12.469Z" stroke="#452B4F" stroke-width="1.5"/>
<path d="M13.8776 13.1636H13.0947V10.5M9.33691 13.1636H10.3253V10.5" stroke="#452B4F" stroke-width="1.5"/>
<path d="M17.4201 17.4692V20.2974H14.7583L17.4201 17.4692Z" stroke="#452B4F" stroke-width="1.5"/>
<path d="M14.5 8.5034C14.5 9.54422 13.8605 10.4354 12.9558 10.8095C12.6633 10.932 12.3367 11 12.0034 11C11.6701 11 11.3299 10.932 11.0306 10.8027C10.1327 10.4286 9.5 9.53741 9.5 8.5034C9.5 7.12245 10.6224 6 12.0034 6C13.3844 6 14.5 7.12245 14.5 8.5034Z" stroke="#452B4F" stroke-width="1.5"/>
</svg>
