<svg width="15" height="14" viewBox="0 0 15 14" fill="none" xmlns="http://www.w3.org/2000/svg">
<path d="M8.37795 2.18055L9.35852 4.1417C9.49224 4.4147 9.84881 4.67655 10.1497 4.7267L11.927 5.02198C13.0635 5.21141 13.331 6.03598 12.512 6.84941L11.1302 8.23112C10.8962 8.46512 10.7681 8.91641 10.8405 9.23955L11.2361 10.95C11.5481 12.3038 10.8294 12.8276 9.63152 12.12L7.96567 11.1338C7.66481 10.9556 7.16895 10.9556 6.86252 11.1338L5.19667 12.12C4.00438 12.8276 3.2801 12.2983 3.5921 10.95L3.98767 9.23955C4.0601 8.91641 3.93195 8.46512 3.69795 8.23112L2.31624 6.84941C1.50281 6.03598 1.76467 5.21141 2.90124 5.02198L4.67852 4.7267C4.97381 4.67655 5.33038 4.4147 5.4641 4.1417L6.44467 2.18055C6.97952 1.11641 7.84867 1.11641 8.37795 2.18055Z" fill="#FDCB7B"/>
</svg>
