<svg width="133" height="40" viewBox="0 0 133 40" fill="none" xmlns="http://www.w3.org/2000/svg">
<g id="World_Health_Organization_Logo">
<g id="Union">
<path d="M23.2474 6.28112C23.0473 5.26822 22.6651 3.33334 24.157 3.33334C25.6072 3.33334 25.2436 5.00703 25.0145 6.06155C24.9679 6.27625 24.9268 6.46528 24.9078 6.6093C24.9078 6.61746 24.9014 6.88212 24.8912 7.30305L24.8912 7.3046L24.8912 7.30484C24.8552 8.79375 24.7722 12.232 24.7576 13.1982L24.2509 13.3278C23.9881 13.3833 23.7441 13.4388 23.4814 13.5129C23.4439 12.2358 23.3125 6.66483 23.3125 6.62781C23.2971 6.53275 23.2739 6.41498 23.2474 6.28112Z" fill="#7B6E7F"/>
<path d="M23.8983 22.1443C23.8288 22.1674 23.7583 22.1909 23.6878 22.2117C23.6878 21.675 23.594 16.7333 23.5752 16.067C23.9506 15.9375 24.3447 15.8264 24.7388 15.7339C24.7341 15.9598 24.7232 16.449 24.7097 17.0589L24.7095 17.0698C24.6698 18.8585 24.6075 21.6724 24.6075 21.9341C24.5418 21.9526 24.4808 21.9711 24.4198 21.9896C24.3588 22.0081 24.2978 22.0267 24.2321 22.0452C24.1266 22.0683 24.0138 22.1058 23.8983 22.1443Z" fill="#7B6E7F"/>
<path d="M24.2288 24.1076C24.2787 24.0874 24.3214 24.0702 24.3447 24.0626C24.4386 24.0255 24.6075 23.97 24.6075 23.97C24.6075 23.97 24.4761 30.0592 24.4761 30.1333C24.4761 31.3178 23.8755 31.2993 23.8755 30.1333C23.8755 30.0222 23.7629 24.3217 23.7629 24.3217C23.7629 24.2847 23.8943 24.2291 24.0069 24.1921C24.0728 24.1705 24.1579 24.1361 24.2285 24.1077L24.2288 24.1076Z" fill="#7B6E7F"/>
<path fill-rule="evenodd" clip-rule="evenodd" d="M21.6234 8.71924C22.055 8.49714 22.5055 8.33057 22.9559 8.1825C22.9559 8.39216 22.9601 8.61831 22.9645 8.85707L22.9645 8.85728C22.9694 9.1243 22.9747 9.40708 22.9747 9.70018C22.5055 9.86675 22.1113 10.1814 21.811 10.5701C21.5295 10.9587 20.5348 11.5695 19.878 11.9397C19.2961 12.2728 18.9771 12.2913 18.8269 12.2543C18.7143 12.3469 18.3953 12.6245 18.0387 13.4203C18.0762 13.2167 18.1325 13.0131 18.2076 12.8096C18.2076 12.8096 17.7759 13.0131 17.4569 12.8651C17.7947 12.9206 18.1325 12.7911 18.3578 12.5319C18.4704 12.4024 18.5642 12.2358 18.6017 12.0692C18.6017 12.0692 18.5454 11.8471 18.7706 11.477C18.8384 11.3684 18.8794 11.2108 18.923 11.0433C18.976 10.8397 19.0327 10.6215 19.146 10.459C19.3525 10.1814 19.5589 9.90377 19.7841 9.64465C20.3474 9.04415 20.8983 8.90638 21.3367 8.79674C21.4388 8.77121 21.5348 8.7472 21.6234 8.71924ZM19.8404 10.7181L20.1782 10.6441L20.7225 10.0703L20.2533 10.0518L19.8404 10.7181Z" fill="#7B6E7F"/>
<path d="M23.2937 25.6913C22.7494 25.3766 22.2052 24.988 22.2052 24.2476C22.2052 23.5814 22.7494 23.1927 23.2374 22.9336C23.3874 22.8596 23.5374 22.8041 23.6873 22.7487L23.6877 22.7485C23.9879 22.6375 24.2881 22.545 24.5882 22.4525L24.5886 22.4524C24.6637 22.4339 24.889 22.3598 25.0391 22.3043C25.4145 22.1562 25.9212 21.8971 25.9212 21.4159C25.9212 21.0272 25.5834 20.7866 25.0767 20.6015C25.086 20.3887 25.0907 20.1296 25.0954 19.8705C25.1001 19.6113 25.1048 19.3522 25.1142 19.1394C26.3153 19.5466 27.4039 20.0833 27.4039 21.4159C27.4039 22.7485 26.1277 23.1557 25.0204 23.4888C24.9223 23.513 24.8323 23.5451 24.7345 23.5799C24.6826 23.5983 24.6285 23.6176 24.5699 23.6369C24.2696 23.7294 23.9694 23.8405 23.6878 23.97C23.5002 24.0441 23.2937 24.1921 23.2749 24.4142C23.2749 24.4172 23.2754 24.448 23.2762 24.4984L23.2784 24.6361L23.2784 24.6366C23.2838 24.9769 23.2937 25.5973 23.2937 25.6913Z" fill="#7B6E7F"/>
<path d="M25.9963 8.07145C28.4174 8.58968 29.4121 10.0703 29.4121 11.4214C29.4308 14.1051 27.1411 14.7344 25.1142 15.2156L24.6638 15.3267C24.5553 15.3559 24.4469 15.3837 24.3395 15.4113L24.3373 15.4119C24.0365 15.4893 23.7437 15.5645 23.4814 15.6598C23.3125 15.7154 23.1623 15.7709 23.031 15.8264C22.4116 16.104 21.9987 16.4742 21.9987 17.122C21.9987 17.7698 22.4304 18.1584 23.0873 18.4546C23.106 18.9728 23.1248 19.5095 23.1248 20.0278C21.6797 19.5836 20.197 18.9173 20.197 17.085C20.197 15.2526 21.492 14.5308 22.9934 14.0866C23.1436 14.0311 23.2937 13.9941 23.4439 13.9571C23.8567 13.846 24.2884 13.735 24.7013 13.6424L25.1517 13.5314C26.503 13.1612 27.6103 12.68 27.6103 11.4029C27.6103 10.6256 27.1036 9.82973 25.696 9.49658C25.6209 9.48733 25.5412 9.47808 25.4614 9.46882L25.4612 9.4688C25.3815 9.45955 25.3018 9.4503 25.2268 9.44106C25.2268 9.38952 25.2308 9.24629 25.2352 9.09278L25.2352 9.09253L25.2352 9.09229L25.2352 9.09211L25.2352 9.0919L25.2352 9.09164C25.2402 8.91473 25.2456 8.72437 25.2456 8.64521C25.2456 8.64521 25.2643 8.1825 25.2643 7.97891C25.5083 7.99742 25.7523 8.03443 25.9963 8.07145Z" fill="#7B6E7F"/>
<path d="M26.4843 28.1714C26.2215 27.283 25.5834 26.8018 24.9078 26.4686L24.9265 25.6173C25.7523 26.0615 26.5969 26.6907 26.4843 28.1714Z" fill="#7B6E7F"/>
<path d="M37.5541 10.5697C37.0452 10.2243 36.5377 9.87978 36.1685 9.44106C35.894 9.11487 35.6882 8.74443 35.4767 8.36391C35.1243 7.72966 34.7562 7.06739 34.029 6.53527C36.3937 7.03499 38.3831 9.12642 38.9274 11.6806C38.5553 11.2494 38.0541 10.9092 37.5541 10.5697Z" fill="#7B6E7F"/>
<path d="M10.5281 12.8632C9.6093 13.5149 8.62536 14.2127 7.82895 15.9189C7.86688 15.653 7.82816 15.2582 7.78122 14.7796C7.61908 13.1264 7.35874 10.4721 9.81835 8.66371C9.2016 9.42398 9.05664 10.5539 8.9132 11.672C8.8122 12.4593 8.71195 13.2407 8.44829 13.883C9.21796 12.2365 10.5554 11.4594 11.5886 10.859C12.1931 10.5078 12.6934 10.2171 12.9151 9.84824C12.3863 11.5453 11.4931 12.1788 10.5281 12.8632Z" fill="#7B6E7F"/>
<path d="M10.7942 25.8318C10.8272 25.2638 10.8577 24.7387 10.7567 24.2847C11.9628 26.0738 12.1441 27.299 12.305 28.3865C12.4371 29.2791 12.5555 30.0789 13.2153 31.0217C12.7132 30.6672 12.0368 30.5065 11.2903 30.3292C9.38619 29.8768 7.02543 29.316 5.93339 25.1546C6.65716 26.5601 8.00852 27.2751 9.28197 27.9488C10.1549 28.4107 10.9913 28.8532 11.5638 29.4855C10.6541 28.2443 10.729 26.9542 10.7942 25.8318Z" fill="#7B6E7F"/>
<path d="M10.1457 24.3051C10.0188 25.3298 9.88732 26.3923 10.3063 27.9308C10.0175 27.5442 9.49467 27.2065 8.88758 26.8144C7.28585 25.7799 5.09729 24.3663 5.07007 20.6756C5.38422 21.5867 6.07138 22.2961 6.85609 23.1061C7.6653 23.9414 8.57824 24.8838 9.29285 26.265C8.75444 24.1289 9.10986 23.0389 9.43955 22.0279C9.60403 21.5235 9.7621 21.0387 9.79958 20.4535C10.4203 22.0859 10.2858 23.1724 10.1457 24.3051Z" fill="#7B6E7F"/>
<path d="M15.889 31.8013C16.077 32.3084 16.2556 32.7896 16.6686 33.3537C16.3279 33.1906 15.7545 33.2136 15.0476 33.2419C13.1065 33.3195 10.1592 33.4374 8.26061 29.8556C9.10574 30.8453 10.4682 31.102 11.8995 31.3717C13.011 31.5811 14.164 31.7983 15.1484 32.3728C13.6349 30.9651 13.4364 29.8837 13.2729 28.9928C13.187 28.5249 13.1108 28.1096 12.8588 27.7272C15.1179 29.7225 15.5216 30.811 15.889 31.8013Z" fill="#7B6E7F"/>
<path d="M35.1531 28.9837C34.9897 29.8702 34.7898 30.9548 33.2782 32.3728C34.2594 31.8003 35.408 31.5861 36.5145 31.3797C37.9478 31.1125 39.3106 30.8584 40.1473 29.8556C38.2628 33.4369 35.3197 33.3195 33.3722 33.2419C32.6626 33.2136 32.0851 33.1906 31.7393 33.3537C32.1616 32.7858 32.3418 32.3017 32.5319 31.7909C32.8995 30.8033 33.3044 29.7154 35.5679 27.7272C35.3153 28.1042 35.2393 28.5164 35.1531 28.9837Z" fill="#7B6E7F"/>
<path d="M37.6257 25.82C37.6967 26.9471 37.778 28.2369 36.8629 29.4855C37.435 28.8536 38.2675 28.4113 39.1361 27.9498C40.4047 27.2757 41.7504 26.5608 42.4745 25.1546C41.3817 29.319 39.0281 29.8776 37.1218 30.3301C36.3762 30.5071 35.6991 30.6678 35.1926 31.0217C35.8524 30.0789 35.9708 29.2791 36.1029 28.3865C36.2638 27.299 36.4451 26.0738 37.6512 24.2847C37.5577 24.7395 37.5904 25.2596 37.6257 25.82Z" fill="#7B6E7F"/>
<path d="M27.6291 33.0391C28.9053 33.0761 30.1628 33.2797 31.3827 33.5943C33.4472 34.131 35.2301 34.5567 36.7878 33.7794C35.2864 35.075 33.5598 35.5377 31.0449 35.2786C30.1064 35.1785 29.2479 34.9132 28.4076 34.6535C27.3827 34.3367 26.3848 34.0283 25.3019 34.0385H25.2268C26.4655 34.6493 27.5728 35.5007 28.4737 36.5371L27.5165 36.6667C27.5165 36.6667 26.5218 34.6863 24.2133 34.1681C21.9049 34.6863 20.9102 36.6667 20.9102 36.6667L19.953 36.5371C20.8539 35.5007 21.9612 34.6493 23.1999 34.0385H23.1248C22.0419 34.0283 21.044 34.3367 20.019 34.6535C19.1788 34.9132 18.3203 35.1785 17.3818 35.2786C14.8669 35.5562 13.1215 35.075 11.6388 33.7794C13.1966 34.5567 14.9795 34.131 17.044 33.5943C18.2639 33.2797 19.5214 33.0761 20.7976 33.0391C21.9612 33.0205 23.1248 33.2056 24.2133 33.6128C25.3019 33.2056 26.4655 33.0205 27.6291 33.0391Z" fill="#7B6E7F"/>
<path d="M9.21214 18.0821C9.48 17.7363 9.75249 17.3845 9.98726 16.9369C10.0649 18.6872 9.59111 19.6912 9.13328 20.6614C8.70517 21.5687 8.29097 22.4465 8.35445 23.8775C8.10102 23.2413 7.62838 22.7463 7.12914 22.2235C6.00167 21.0427 4.73853 19.7199 5.55803 16.3076C5.54842 17.2653 5.99196 18.0238 6.52278 18.9315C7.0281 19.7957 7.61251 20.795 7.96033 22.2302C7.85192 19.8382 8.51643 18.9803 9.21214 18.0821Z" fill="#7B6E7F"/>
<path d="M9.87465 14.3643C10.6629 13.735 10.8694 13.5499 11.1696 13.1427C10.5788 15.1043 9.81751 16.0418 9.12154 16.8988C8.49102 17.6752 7.91412 18.3856 7.5662 19.7316C7.53627 19.3381 7.29683 18.8778 7.016 18.338C6.24032 16.847 5.14889 14.749 7.28468 11.7731C6.81736 12.9483 7.07731 14.396 7.32205 15.7591C7.47047 16.5857 7.61331 17.3812 7.58497 18.0659C7.86649 16.6037 8.69228 15.2897 9.87465 14.3643Z" fill="#7B6E7F"/>
<path d="M38.5333 14.3643C39.7156 15.2897 40.5227 16.6037 40.8229 18.0659C40.8019 17.3893 40.9455 16.6044 41.0947 15.7883C41.3456 14.4167 41.6127 12.9567 41.142 11.7731C43.2816 14.7679 42.1825 16.8717 41.4065 18.3568C41.1275 18.8908 40.8903 19.3449 40.8605 19.7316C40.5048 18.39 39.9259 17.6799 39.2953 16.9064C38.5949 16.0473 37.8308 15.1101 37.2383 13.1427C37.5329 13.5422 37.7372 13.7101 38.4895 14.3283L38.5333 14.3643Z" fill="#7B6E7F"/>
<path d="M41.5061 23.1216C42.2942 22.3103 42.9851 21.5991 43.3003 20.6756C43.2731 24.3663 41.0846 25.7798 39.4829 26.8143C38.8758 27.2065 38.3529 27.5442 38.0641 27.9308C38.4831 26.3923 38.3516 25.3298 38.2247 24.3051C38.0845 23.1724 37.9501 22.0859 38.5708 20.4535C38.6083 21.0387 38.7663 21.5235 38.9308 22.0279C39.2605 23.0389 39.6159 24.1289 39.0775 26.265C39.7897 24.8885 40.6989 23.9525 41.5061 23.1216Z" fill="#7B6E7F"/>
<path d="M39.2714 20.6689C38.8099 19.6963 38.3331 18.6917 38.4207 16.9369C38.6568 17.3774 38.9267 17.7237 39.1911 18.063C39.8932 18.9639 40.5567 19.8152 40.4476 22.2488C40.7955 20.8042 41.3801 19.8044 41.8855 18.9401C42.4162 18.0327 42.8595 17.2745 42.8499 16.3076C43.6693 19.7194 42.3976 21.0512 41.271 22.2312C40.7719 22.7539 40.3012 23.2468 40.0535 23.8775C40.1168 22.4504 39.7007 21.5735 39.2714 20.6689Z" fill="#7B6E7F"/>
<path d="M12.8374 8.36391C12.6259 8.74443 12.42 9.11487 12.1456 9.44106C11.7811 9.86501 11.277 10.2018 10.77 10.5404C10.2589 10.8819 9.74481 11.2253 9.36792 11.662C9.91219 9.10791 11.9016 7.03499 14.2851 6.53527C13.5578 7.06739 13.1898 7.72966 12.8374 8.36391Z" fill="#7B6E7F"/>
<path d="M37.8153 12.8476C36.8463 12.1605 35.9485 11.524 35.4178 9.81122C35.6376 10.2028 36.1522 10.5073 36.7742 10.8753C37.7984 11.4812 39.1139 12.2594 39.8845 13.883C39.6333 13.2524 39.5365 12.4847 39.4388 11.7097C39.2955 10.5741 39.1503 9.42275 38.5145 8.66371C40.9753 10.4443 40.7135 13.105 40.5514 14.7529C40.5046 15.229 40.466 15.6206 40.5039 15.8819C39.7105 14.1913 38.7311 13.4969 37.8153 12.8476Z" fill="#7B6E7F"/>
<path d="M25.2268 11.1993C25.8837 11.2919 26.5406 11.4585 27.1599 11.7176C27.1411 11.8471 27.0848 11.9767 27.0098 12.1062C26.4467 11.8841 25.8461 11.7176 25.2268 11.625V11.1993Z" fill="#7B6E7F"/>
<path d="M26.8033 7.47919L26.6719 7.59024L26.3529 7.57173L26.0338 7.59024C25.8461 7.55322 25.6022 7.53471 25.3582 7.5162V7.42366L25.7335 7.46068L25.9025 7.34963L26.5593 7.36814L26.8033 7.47919Z" fill="#7B6E7F"/>
<path d="M25.0767 21.0827C25.2831 21.1753 25.4333 21.2863 25.4333 21.3974C25.4333 21.5825 25.2643 21.6935 25.0204 21.8231C25.0204 21.6881 25.0273 21.4779 25.0327 21.313C25.0362 21.2066 25.0391 21.119 25.0391 21.0827H25.0767Z" fill="#7B6E7F"/>
<path d="M17.9355 13.152C17.9261 13.1936 17.9167 13.2352 17.9073 13.2723L17.7009 13.0502C17.7868 13.0671 17.857 13.053 17.9402 13.0363L17.9636 13.0317C17.9542 13.0687 17.9449 13.1103 17.9355 13.152Z" fill="#7B6E7F"/>
<path d="M13.6095 25.1175L13.5907 25.2101L13.1966 24.5993L13.4218 24.6918L13.6095 25.1175Z" fill="#7B6E7F"/>
<path d="M29.337 15.7524L29.3182 15.5858L29.5247 15.5118L29.581 15.4007L29.4308 15.1601L29.5059 14.975L29.6185 14.7714L29.9563 14.6049L30.1065 14.7899L29.9563 14.864L30.0314 15.012L30.1065 15.0676L30.0502 15.1231L29.6936 14.8825L29.5622 15.0861L29.8249 15.4192L29.7123 15.6413L29.337 15.7524Z" fill="#7B6E7F"/>
<path fill-rule="evenodd" clip-rule="evenodd" d="M37.3509 19.0098C37.3696 26.228 31.439 32.0951 24.1195 32.0951C17.3443 32.1136 11.6764 27.0609 10.9632 20.4164C10.1937 13.2352 15.4675 6.81289 22.7682 6.07256C22.7807 6.15889 22.7932 6.22879 22.8057 6.29867C22.812 6.33363 22.8183 6.36869 22.8245 6.40571C22.8245 6.40571 22.8433 6.44273 22.8433 6.49825C19.953 6.79438 17.2692 8.03443 15.2047 10.0148L16.7437 11.5325C17.4194 10.8847 18.1701 10.3295 18.9959 9.88526C18.8645 10.0333 18.7519 10.1814 18.658 10.3295C18.6189 10.3938 18.5979 10.4671 18.5761 10.5431C18.5666 10.5764 18.5569 10.6103 18.5454 10.6441C18.0012 10.9958 17.4944 11.4029 17.0252 11.8471L17.9073 12.717C17.7947 12.7725 17.6446 12.8096 17.5132 12.8281H17.4194L16.7249 12.1433C14.942 13.9941 13.9473 16.4187 13.9098 18.9543H16.1056C16.1431 16.9924 16.9126 15.1046 18.2827 13.6794L18.1138 13.5129C18.1888 13.3463 18.2639 13.2167 18.3202 13.1242L18.583 13.3833C19.7841 12.2358 21.3419 11.4955 22.9934 11.2549V11.6806C21.4545 11.9212 20.0093 12.606 18.8833 13.6794L20.4222 15.1971C19.9906 15.7524 19.7841 16.4557 19.8029 17.159C19.7841 18.214 20.3284 19.1949 21.2292 19.7316C21.4732 19.8982 21.736 20.0278 21.9987 20.1388C22.0926 20.3239 22.2239 20.509 22.3741 20.6756L22.6744 20.3794L22.6746 20.3795C22.8246 20.435 22.9748 20.4905 23.1248 20.5275L22.6931 20.9532C22.8433 21.0642 23.0122 21.1753 23.1999 21.2493V21.712C22.9184 21.6195 22.6368 21.4529 22.3929 21.2678L20.8539 22.7855C21.1729 23.0631 21.5483 23.3037 21.9424 23.5073C21.8673 23.6369 21.8298 23.7664 21.7923 23.9145C21.3231 23.6924 20.9102 23.4148 20.5348 23.0816L18.9959 24.5993C20.197 25.6913 21.6984 26.3576 23.3125 26.5427V26.9684C21.8486 26.8203 20.4598 26.265 19.2961 25.3952L19.3337 25.5062L19.2211 25.7838L18.4328 25.7468L18.1325 26.0615L17.5695 26.0059L17.1754 26.4131C18.8645 28.0048 21.0416 28.9487 23.3688 29.1338V29.5595C20.929 29.3744 18.6205 28.375 16.8376 26.7278L15.2986 28.2454C20.2533 32.9095 28.0795 32.9095 33.0155 28.2084L31.4765 26.6907C29.6748 28.375 27.3476 29.3929 24.8702 29.5595V29.1338C25.4333 29.0968 26.0151 29.0043 26.5781 28.8747C26.7282 28.8377 26.9159 28.7081 26.9347 28.2269C27.0473 26.3021 25.9025 25.6173 24.9453 25.1546L24.9641 23.9885C25.0334 23.9672 25.1039 23.9458 25.1754 23.9242C25.7227 23.7585 26.3197 23.5778 26.7845 23.2667L26.8221 23.2297L26.8596 23.2112C27.4602 22.8225 27.8355 22.1562 27.8168 21.4529C27.8168 19.7872 26.4092 19.1579 25.0954 18.7137C25.0954 17.9734 25.133 16.4927 25.133 16.4927L25.696 16.7703L25.9212 16.7333L26.1464 16.7703L26.1277 16.5852L25.9963 16.5297V16.3446L25.8837 16.3631L26.259 15.8819L26.4092 15.956L26.0151 16.3261L26.1464 16.3076L26.2966 16.1595L26.9347 16.0485L26.9722 16.104L27.5728 15.4933L27.479 15.4192H27.3288L27.1224 15.4747L27.0848 15.5303L26.9722 15.5858L26.9535 15.6598L26.8033 15.6413L26.5781 15.6968L26.4843 15.5488L26.8033 15.4377L26.9159 15.5488L26.991 15.3637L27.1787 15.2712L27.2537 15.1971L27.1224 15.1046C27.2725 15.0491 27.4227 14.9935 27.5728 14.9195C27.6197 14.9658 27.6666 15.0074 27.7135 15.049C27.7604 15.0907 27.8074 15.1323 27.8543 15.1786L29.4121 13.6609L29.2994 13.5684C29.4496 13.3463 29.581 13.0872 29.6748 12.8281L29.8813 13.1982L30.388 12.6985L30.2191 12.4394L30.4818 12.3839L29.9188 11.6806V11.4214C29.9188 10.7551 29.7123 10.0888 29.3182 9.5336L29.5247 9.47808L29.6185 9.36703L30.7633 9.95929L31.1199 10.348L31.2888 10.9402L31.2325 11.1068L31.4765 11.0883L31.6642 11.1808L31.6079 11.4399L33.0718 9.99631C30.9886 7.97891 28.2672 6.72035 25.3582 6.44273C25.3665 6.39325 25.3786 6.34378 25.3911 6.29267L25.3912 6.29249C25.4067 6.22895 25.4229 6.16282 25.4333 6.09107L25.452 6.01704C32.2085 6.70184 37.3509 12.3098 37.3509 19.0098ZM16.4247 11.8101L14.8857 10.2924C12.6148 12.606 11.3386 15.6783 11.301 18.9173H13.4781C13.5156 16.2706 14.5666 13.7165 16.4247 11.8101ZM13.8159 22.0822L13.9473 22.1007C13.6658 21.2123 13.4969 20.2684 13.4781 19.343H11.301C11.3761 22.5449 12.6898 25.5987 14.9795 27.8753L16.5185 26.3576C15.9367 25.7838 15.4487 25.136 15.0171 24.4512L14.942 24.7659L14.698 24.6918L14.2851 24.0255L14.0974 23.9885L13.9473 23.8034V23.5443L13.891 23.5073L13.7408 23.6184L13.403 23.5258L13.3655 23.3407L13.2341 23.2667V23.6184L13.159 23.5814L12.8212 23.1001L12.6148 23.0631L12.6711 23.2482L12.596 23.3222L12.6711 23.6554L13.0277 24.3217L12.8963 24.2847L12.6711 23.933L12.2019 22.8225L12.1456 22.2117L12.2957 21.9526L12.7086 21.7861L12.84 21.9156L12.6898 22.0452L13.2529 22.1562L13.0652 21.8971L13.6845 21.9526L13.8159 22.0822ZM16.1431 19.9537C16.1056 19.7316 16.0868 19.528 16.0868 19.3245H13.9098C13.9473 20.2869 14.0974 21.2123 14.3977 22.1192H14.7168L15.2798 21.9341L15.261 20.9717L15.8241 20.2684L15.8804 20.0093L16.1431 19.9537ZM17.0628 25.6543L16.5748 25.3766L16.3308 25.5617C16.481 25.7468 16.6311 25.9134 16.8 26.08L17.1566 25.7283L17.0628 25.6543ZM20.1032 15.4377L18.5642 13.9201C17.2692 15.2712 16.5373 17.0479 16.5185 18.9173H17.4944L17.532 18.5471L17.7947 18.251L17.7009 18.0844L18.1701 17.2145L18.4891 17.2515L18.8269 16.9924H18.9396L19.1648 16.8444L19.2211 16.7703L18.9583 16.8258L18.658 16.8629L18.8833 16.6593H18.9583L19.1835 16.6037H19.2961C19.5026 16.1781 19.7841 15.7894 20.1032 15.4377ZM20.2533 20.1388L20.1407 20.1943L19.7466 19.9352H19.4463L19.1272 19.6021C19.2586 20.6756 19.7278 21.675 20.4785 22.4523L22.0175 20.9347C21.811 20.7126 21.6421 20.4535 21.5108 20.1758L21.4169 20.6385L21.248 20.7496L21.2855 20.8421L21.0603 20.9717L20.9102 20.6756L21.248 20.583L21.0603 20.3239L20.8727 20.1388L20.7037 20.4164L20.7225 20.6385L20.4035 20.435L20.5348 20.3424L20.2533 20.1388ZM17.9636 18.1584L17.9261 18.5841L18.1701 18.8988H18.6956L18.6993 18.8504C18.7169 18.6237 18.7356 18.383 18.7706 18.1584L18.6956 18.0844L18.2264 18.0104L17.9636 18.1584ZM17.0065 20.3794L17.2129 20.0648L17.0252 19.8612L17.1754 19.343H16.5185C16.5373 19.6761 16.5748 20.0278 16.6311 20.3609L16.6499 20.3794H17.0065ZM18.5038 24.0812C18.5559 24.1367 18.608 24.1922 18.658 24.2476L20.197 22.7485C19.2961 21.8231 18.7706 20.62 18.6956 19.343H18.339L18.4516 19.5095L18.339 20.1388L18.3578 20.4905V20.657L18.4328 20.7496L18.3953 21.0087H18.3202L18.1701 20.7311L18.0762 20.4905L18.1138 20.4535L18.2076 20.5645L18.339 20.4905L18.1513 20.0833L18.2076 19.9908L18.3202 19.491L18.2451 19.343H17.7384L17.6258 19.5095H17.3255L17.2129 19.7872L17.3255 20.0278L17.2129 20.3424L17.4757 20.472L17.7947 21.0642L17.7384 21.3789L18.0012 21.8786L18.0575 22.693L18.2827 23.2112L18.2076 23.7479C18.2952 23.859 18.3996 23.9701 18.5038 24.0812ZM34.7421 19.3245C34.6858 21.9341 33.6161 24.4327 31.758 26.3206L33.2782 27.8382C35.5492 25.5617 36.8441 22.5079 36.9192 19.3245H34.7421ZM31.3264 25.5432L31.1575 25.7283L31.4578 26.0244C33.2407 24.2291 34.2542 21.8416 34.3292 19.3245H32.1522C32.0771 21.2678 31.2888 23.1001 29.9188 24.5068L30.5757 25.1546L30.6507 25.0805L30.6883 24.7104L30.7633 24.4142L31.1199 24.5253L31.0449 24.6733L31.1575 24.7104L31.3264 25.5432ZM29.4496 27.32L29.2431 27.7457C29.9376 27.357 30.5757 26.8758 31.1387 26.3391L29.5997 24.8214C29.4871 24.9325 29.3557 25.0435 29.2244 25.1546L29.3745 25.3952H29.6185L29.9376 25.7283L29.6185 26.1355L29.4121 26.5612L29.6748 26.7278V26.8758L29.3745 27.1349L29.4496 27.32ZM28.7364 23.3593L28.9429 23.5628L29.2807 23.0631L29.4496 23.7294L29.3557 24.0255L29.581 24.2476C30.8572 22.9336 31.6079 21.1938 31.683 19.3615H30.0126L30.3129 19.9537L30.6883 20.0278L31.0449 19.8982L31.1012 20.1203L30.9886 20.1758L30.707 20.0463L30.7446 20.2499L30.8384 20.4164L30.3129 20.5645L30.1065 20.6756H29.7686L29.5997 20.6015L29.5059 20.62L29.6185 20.7496L29.4871 20.8977L29.4308 20.8421L29.3182 20.9902L29.1305 21.0642C28.9992 21.3233 28.849 21.601 28.6801 21.8416L28.7927 21.8786L28.8678 21.7305L29.0555 21.7861L29.1305 22.0637L29.1493 22.3413L29.0179 22.6374L29.093 22.7485L28.8866 23.1557L28.7364 23.3593ZM29.6936 13.9756L28.1546 15.4933C28.3423 15.6783 28.4924 15.8819 28.6426 16.1225H28.8866L28.7927 15.993C28.8115 15.993 28.9804 15.956 28.9804 15.956L29.1305 16.0115L28.9804 16.067L28.9241 16.1225L29.093 16.2521L29.5622 16.8073L29.656 16.7888V16.7148H29.7874L29.8249 16.8999L29.7311 16.9369L29.6748 16.8258L29.5622 16.8999L29.6373 17.085L29.8437 17.2515L30.0314 17.0479L30.1065 16.7518L30.4068 16.6408L30.8196 17.0294L30.6695 17.122L30.5757 17.5477L30.4631 17.7142H30.6695L30.7821 17.7698L30.8947 17.6217L31.0449 17.5477L31.1012 17.233L31.3076 17.085L31.4015 16.9369C31.3076 16.6037 31.195 16.2891 31.0449 15.9745L30.4818 15.6228L30.4631 15.2897L30.6507 15.2341C30.3692 14.7899 30.0502 14.3643 29.6936 13.9756ZM27.9294 23.6369L28.3986 23.7664L28.4737 23.6924L28.3235 23.5443L28.0232 23.3963L27.6291 23.1186C27.5165 23.2112 27.4039 23.3037 27.2725 23.3963L27.5165 23.4888L27.7792 23.6924L27.9294 23.6369ZM27.7605 16.6037L27.5728 16.6408L27.8168 16.7148L27.8731 16.8073L27.9669 16.5852H27.8919L27.8168 16.4372L27.9857 16.4002L28.1921 16.5482L28.2672 16.3076C28.1358 16.1225 28.0045 15.956 27.8543 15.7894L27.6291 16.03L27.5728 16.4372L27.7605 16.5667V16.6037ZM30.5757 17.9178L30.1815 18.1214L30.4068 18.2325L30.388 18.3435L30.1252 18.3805L30.0314 18.4546L29.9939 18.5656L29.7686 18.7322L29.8062 18.8988H31.7205C31.7017 18.5286 31.6642 18.1399 31.6079 17.7698L31.3451 18.1955V17.9919L31.5516 17.3811C31.5328 17.3256 31.5187 17.27 31.5047 17.2145C31.4906 17.159 31.4765 17.1035 31.4578 17.0479L31.3827 17.3626L31.2888 17.5477L31.0636 17.6772L30.9698 17.8623L30.5757 17.9178ZM31.1387 13.1057L30.6132 13.0872L29.9939 13.6424C30.2754 13.9571 30.5381 14.2902 30.7821 14.6419L30.8947 14.3828L31.0261 14.4568L30.951 14.7899L31.1575 14.7159L31.2138 14.7899L31.0636 14.864L31.1199 14.9935L31.0824 15.0305L30.9698 14.975C31.0449 15.0676 31.1012 15.1786 31.1575 15.2897L31.3264 15.2712L31.4578 15.4377V15.6783L31.6454 15.9375L31.5516 16.0855C31.6267 16.2521 31.8331 16.6408 31.8331 16.6408L32.0208 16.6223L31.927 15.993L31.8707 15.6228L31.683 15.0676L31.4015 14.5123L30.9135 13.8275L30.951 13.7165L31.439 14.0496L31.3639 14.1236L31.2138 14.0496L31.8143 14.9195L32.0771 15.7524L32.1709 16.4742L32.0396 17.159L31.9457 17.2886C32.0771 17.8253 32.1522 18.362 32.1522 18.9173H34.3292C34.3105 17.5106 33.9914 16.104 33.3909 14.827L33.0155 14.9565L32.0959 13.9015L31.9457 13.9201L31.2138 13.4759L31.2701 13.2538L31.1387 13.1057ZM36.938 18.9173C36.9005 15.7154 35.643 12.643 33.3909 10.3295L31.8519 11.8471C32.0583 12.0692 32.246 12.2913 32.4337 12.5134L32.978 12.9576L33.4472 13.5869L33.8413 14.2532L33.8037 14.3643L33.6536 14.2902L33.6348 14.3272C34.3668 15.7524 34.7421 17.3256 34.7609 18.9173H36.938Z" fill="#7B6E7F"/>
<path d="M30.5006 9.3115L30.632 9.51509L30.5944 9.70018L30.2754 9.47808L29.9939 9.33001L30.2191 9.16344L30.5006 9.3115Z" fill="#7B6E7F"/>
<path d="M23.0873 17.9734C22.6931 17.7513 22.4679 17.5106 22.4679 17.1405C22.4867 16.7888 22.6744 16.5297 23.0497 16.3076H23.0685C23.0685 16.3816 23.0685 16.8444 23.0873 17.27L22.9747 17.3071L22.8433 17.5477L23.0873 17.8068V17.9734Z" fill="#7B6E7F"/>
<path d="M51.9148 11.2364H51.9335L53.3787 18.9728H55.4807L57.4513 9.5336H55.856L54.4484 16.8073H54.4297L53.0033 9.5336H50.8638L49.4187 16.8073H49.3999L48.0486 9.5336H46.397L48.3489 18.9728H50.4133L51.9148 11.2364Z" fill="#7B6E7F"/>
<path fill-rule="evenodd" clip-rule="evenodd" d="M60.0038 11.8841C61.4489 11.8841 63.1005 12.6245 63.1005 15.4562C63.1005 18.3805 61.4489 19.0468 60.0038 19.0468C58.5586 19.0468 56.8883 18.362 56.8883 15.4562C56.907 12.6245 58.5774 11.8841 60.0038 11.8841ZM60.0038 17.8808C61.0923 17.8808 61.355 16.6408 61.355 15.4747C61.355 14.3087 61.1111 13.0872 60.0038 13.0872C58.8965 13.0872 58.6525 14.3087 58.6525 15.4747C58.6525 16.6408 58.9152 17.8808 60.0038 17.8808Z" fill="#7B6E7F"/>
<path d="M63.8887 11.9952C63.9263 12.3839 63.945 12.754 63.945 13.1427L63.9638 18.9728H65.6529V15.1601C65.6529 13.8645 66.4224 13.4388 67.1168 13.4388C67.2669 13.4388 67.4358 13.4759 67.586 13.5129V11.9397C67.4921 11.9212 67.3983 11.9027 67.3045 11.9027C66.2347 11.9027 65.7092 12.7355 65.5028 13.2723H65.484C65.484 12.9885 65.4673 12.7047 65.4506 12.4209L65.4506 12.4197C65.4422 12.2782 65.4339 12.1367 65.4277 11.9952H63.8887Z" fill="#7B6E7F"/>
<path d="M68.2616 8.83028H69.9695V18.9543H68.2616V8.83028Z" fill="#7B6E7F"/>
<path fill-rule="evenodd" clip-rule="evenodd" d="M76.8949 17.7698V8.83028H75.187V13.0131H75.1682C74.8492 12.3098 74.136 11.8656 73.3477 11.9026C71.8275 11.9026 70.9079 13.2167 70.9079 15.4932C70.9079 17.4181 71.6399 19.0653 73.3853 19.0653C74.4738 19.0653 74.9805 18.4731 75.2621 17.8808H75.2996C75.2996 18.2325 75.3184 18.6026 75.3559 18.9543H76.9512C76.9136 18.5656 76.8949 18.1584 76.8949 17.7698ZM75.1682 15.4562C75.1682 16.7518 74.8304 17.8253 73.8357 17.8253C72.8598 17.8253 72.597 17.0294 72.5783 15.4192C72.5783 14.0311 72.9161 13.1242 73.8545 13.1242C74.7929 13.1242 75.1682 14.1051 75.1682 15.4562Z" fill="#7B6E7F"/>
<path d="M81.9622 9.5336H83.7264V13.3648H86.5604V9.5336H88.3058V18.9728H86.5604V14.7899H83.7264V18.9543H81.9622V9.5336Z" fill="#7B6E7F"/>
<path fill-rule="evenodd" clip-rule="evenodd" d="M92.4347 19.0654C93.1479 19.0654 93.8798 18.9173 94.5367 18.6212L94.4804 17.3256C94.1614 17.5477 93.6546 17.8623 92.6224 17.8623C91.3086 17.8623 90.8207 17.1405 90.8207 15.956H94.8933V15.6228C94.8933 12.7726 93.5983 11.9027 92.0781 11.9027C90.2764 11.9027 89.1691 13.5129 89.1691 15.5858C89.1691 17.4551 90.1638 19.0654 92.4347 19.0654ZM92.0593 13.0317C92.8288 13.0317 93.2417 13.6609 93.2417 14.8825H90.8019C90.8019 13.9571 91.1585 13.0317 92.0593 13.0317Z" fill="#7B6E7F"/>
<path fill-rule="evenodd" clip-rule="evenodd" d="M95.8505 12.4024C96.5449 12.0692 97.3144 11.8841 98.0838 11.8841C100.28 11.8841 100.786 12.9391 100.786 14.6789V17.7142C100.786 18.1214 100.824 18.5286 100.88 18.9358H99.3413C99.2662 18.6211 99.2287 18.3065 99.2475 17.9919H99.2287C98.797 18.5656 98.2715 19.0468 97.2581 19.0468C96.1695 19.0468 95.1561 18.3065 95.1561 17.0109C95.1561 15.1231 96.7138 14.6419 98.8721 14.6419H99.2099V14.3827C99.2099 13.6979 98.8721 13.0502 97.8962 13.0502C97.2018 13.0687 96.5261 13.3093 95.9631 13.735L95.8505 12.4024ZM99.041 15.5488C97.5959 15.5488 96.7326 15.8449 96.7326 16.8629C96.695 17.4181 97.1267 17.8993 97.6897 17.9363H97.8211C98.8346 17.9363 99.2099 17.196 99.2099 15.9559V15.5488H99.041Z" fill="#7B6E7F"/>
<path d="M104.108 8.83028H102.419V18.9543H104.108V8.83028Z" fill="#7B6E7F"/>
<path d="M105.985 10.5701L107.674 10.0518V11.9952H109.082V13.2167H107.674V16.8444C107.674 17.5847 107.956 17.8068 108.444 17.8068C108.669 17.8068 108.894 17.7513 109.082 17.6587V18.8433C108.725 18.9913 108.331 19.0654 107.937 19.0654C106.68 19.0654 105.966 18.4916 105.966 17.0294V13.2353H104.84V12.0137H105.966V10.5701H105.985Z" fill="#7B6E7F"/>
<path d="M111.428 8.83028H109.739V18.9543H111.428V14.901C111.428 14.0126 111.747 13.2723 112.629 13.2723C113.323 13.2723 113.605 13.7165 113.605 14.7899V18.9543H115.294V14.4753C115.294 13.0687 114.806 11.9026 113.211 11.9026C112.17 11.9026 111.773 12.4652 111.474 12.8895L111.465 12.9021H111.428V8.83028Z" fill="#7B6E7F"/>
<path fill-rule="evenodd" clip-rule="evenodd" d="M50.2444 21.4714C52.2338 21.4714 54.0543 22.9336 54.0543 26.3206C54.0543 29.7076 52.2338 31.1697 50.2444 31.1697C48.255 31.1697 46.4346 29.7076 46.4346 26.3206C46.4346 22.9336 48.255 21.4714 50.2444 21.4714ZM50.2444 29.8556C51.3517 29.8556 52.2526 28.9302 52.2526 26.3206C52.2526 23.7109 51.3517 22.804 50.2444 22.804C49.1371 22.804 48.2363 23.7294 48.2363 26.3206C48.2363 28.9117 49.1371 29.8556 50.2444 29.8556Z" fill="#7B6E7F"/>
<path d="M54.6924 24.0256C54.73 24.4142 54.7487 24.7844 54.7487 25.1731V31.0032H56.4379V27.1905C56.4379 25.8949 57.2073 25.4692 57.9017 25.4692C58.0707 25.4692 58.2396 25.5062 58.3897 25.5432V23.97C58.2959 23.9515 58.202 23.933 58.1082 23.933C57.0572 23.933 56.5129 24.7659 56.3065 25.3026H56.2877C56.2877 25.0188 56.271 24.735 56.2543 24.4512L56.2543 24.4501C56.246 24.3086 56.2376 24.1671 56.2314 24.0256H54.6924Z" fill="#7B6E7F"/>
<path fill-rule="evenodd" clip-rule="evenodd" d="M59.253 32.2062C59.8911 32.5764 60.6043 32.7799 61.3363 32.7985C62.9315 32.7985 63.1943 31.7065 63.1943 30.6145V29.9482H63.1755C62.894 30.4849 62.4248 31.1327 61.3175 31.1327C60.3416 31.1327 58.8589 30.4849 58.8589 27.6717C58.8589 25.7468 59.5533 24.0626 61.4114 24.0626C62.4436 24.0626 62.9128 24.6363 63.2694 25.2471H63.3257C63.3257 24.9976 63.3427 24.7565 63.3596 24.5182L63.3596 24.5179C63.3678 24.4027 63.3759 24.2882 63.382 24.1736H64.921C64.9146 24.2997 64.906 24.4236 64.8975 24.5468C64.881 24.7855 64.8646 25.0215 64.8646 25.2656V30.3924C64.8646 32.5764 64.189 34.1125 61.599 34.1125C60.7732 34.1125 59.9474 33.9645 59.178 33.6868L59.253 32.2062ZM61.7116 29.8927C62.7814 29.8927 63.2131 29.1338 63.2131 27.5606C63.2131 26.0985 62.65 25.3211 61.843 25.3396C60.9422 25.3581 60.6043 26.1725 60.6043 27.5791C60.6043 29.2079 61.1298 29.8927 61.7116 29.8927Z" fill="#7B6E7F"/>
<path fill-rule="evenodd" clip-rule="evenodd" d="M68.6182 23.9145C67.8487 23.9145 67.0793 24.0811 66.3848 24.4327L66.4974 25.7653C67.0605 25.3396 67.7361 25.099 68.4305 25.0805C69.4065 25.0805 69.7443 25.7283 69.7443 26.4131V26.6722H69.4065C67.2482 26.6722 65.6904 27.1534 65.6904 29.0413C65.6904 30.3368 66.7039 31.0772 67.7924 31.0772C68.8059 31.0772 69.3314 30.596 69.7631 30.0222H69.7818C69.7631 30.3368 69.8006 30.6515 69.8757 30.9661H71.4146C71.3583 30.5589 71.3208 30.1518 71.3208 29.7446V26.7092C71.3208 24.9695 70.8141 23.9145 68.6182 23.9145ZM69.5754 27.5791H69.7255L69.7443 27.9863C69.7443 29.2264 69.3689 29.9667 68.3555 29.9667H68.2241C67.6611 29.9297 67.2294 29.4485 67.2669 28.8932C67.2669 27.8753 68.1303 27.5791 69.5754 27.5791Z" fill="#7B6E7F"/>
<path d="M72.7659 25.1731C72.7659 24.7844 72.7472 24.4142 72.7096 24.0256H74.3049C74.311 24.1396 74.3191 24.2556 74.3272 24.3723L74.3272 24.3727L74.3272 24.373L74.3272 24.3734V24.3739C74.3441 24.6164 74.3612 24.862 74.3612 25.099H74.38C74.624 24.6733 75.1119 23.933 76.2568 23.933C77.852 23.933 78.34 25.099 78.34 26.5057V30.9847H76.6321V26.8018C76.6321 25.7283 76.3506 25.2841 75.6562 25.2841C74.7741 25.2841 74.455 26.0244 74.455 26.9128V30.9661H72.7659V25.1731Z" fill="#7B6E7F"/>
<path d="M81.2866 21.1198H79.5224V22.767H81.2866V21.1198Z" fill="#7B6E7F"/>
<path d="M81.249 24.0811H79.5599V31.0402H81.249V24.0811Z" fill="#7B6E7F"/>
<path d="M82.7129 29.615L85.7346 25.3766H82.8068V24.0996H87.4237V25.5247L84.4583 29.7816H87.5175V31.0587H82.6942V29.615H82.7129Z" fill="#7B6E7F"/>
<path fill-rule="evenodd" clip-rule="evenodd" d="M90.952 23.9145C90.1826 23.9145 89.4131 24.0811 88.7187 24.4327L88.8313 25.7653C89.3943 25.3396 90.0699 25.099 90.7644 25.0805C91.7403 25.0805 92.0781 25.7283 92.0781 26.4131V26.6722H91.7403C89.582 26.6722 88.0242 27.1534 88.0242 29.0413C88.0242 30.3368 89.0377 31.0772 90.1263 31.0772C91.1397 31.0772 91.6652 30.596 92.0969 30.0222H92.1157C92.0969 30.3368 92.1344 30.6515 92.2095 30.9661H93.7485C93.6922 30.5589 93.6546 30.1518 93.6546 29.7446V26.7092C93.6546 24.9695 93.1479 23.9145 90.952 23.9145ZM91.9092 27.5791H92.0781V27.9863C92.0781 29.2264 91.7028 29.9667 90.6893 29.9667H90.5579C89.9949 29.9297 89.5632 29.4485 89.6008 28.8932C89.6008 27.8753 90.4641 27.5791 91.9092 27.5791Z" fill="#7B6E7F"/>
<path d="M95.4751 22.5819L97.1642 22.0637V24.007H98.5718V25.2286H97.1642V28.8377C97.1642 29.578 97.4457 29.8001 97.9337 29.8001C98.1589 29.8001 98.3841 29.7631 98.5718 29.652V30.8366C98.2152 31.0031 97.8211 31.0772 97.427 31.0587C96.1695 31.0587 95.4563 30.4849 95.4563 29.0413V25.2286H94.3303V24.007H95.4563L95.4751 22.5819Z" fill="#7B6E7F"/>
<path d="M101.349 21.1198H99.6041V22.767H101.349V21.1198Z" fill="#7B6E7F"/>
<path d="M101.349 24.0811H99.6416L99.6604 31.0402H101.349V24.0811Z" fill="#7B6E7F"/>
<path fill-rule="evenodd" clip-rule="evenodd" d="M105.422 24.0626C106.867 24.0626 108.519 24.8029 108.519 27.6347C108.519 30.559 106.867 31.2253 105.422 31.2253C103.977 31.2253 102.307 30.559 102.307 27.6347C102.325 24.8214 103.996 24.0626 105.422 24.0626ZM105.422 30.0592C106.511 30.0592 106.773 28.8192 106.773 27.6532C106.773 26.4871 106.529 25.2656 105.422 25.2656C104.315 25.2656 104.071 26.4871 104.071 27.6532C104.071 28.8192 104.334 30.0592 105.422 30.0592Z" fill="#7B6E7F"/>
<path d="M109.87 24.0256C109.908 24.4142 109.926 24.7844 109.926 25.1731L109.945 30.9661H111.634V26.9128C111.634 26.0244 111.953 25.2841 112.835 25.2841C113.53 25.2841 113.811 25.7283 113.811 26.8018V30.9847H115.5V26.5057C115.5 25.099 115.013 23.933 113.417 23.933C112.272 23.933 111.784 24.6733 111.54 25.099H111.522C111.522 24.8618 111.505 24.6162 111.488 24.3735C111.48 24.2564 111.471 24.14 111.465 24.0256H109.87Z" fill="#7B6E7F"/>
</g>
</g>
</svg>
